<svg width="20" height="20" viewBox="0 0 20 20" fill="none" xmlns="http://www.w3.org/2000/svg">
<g clip-path="url(#clip0_21_501)">
<path d="M5.625 12.625C5.125 13.125 5.125 13.875 5.625 14.375C6.125 14.875 6.875 14.875 7.375 14.375L14.5 7.25C15 6.75 15 6 14.5 5.5C14 5 13.25 5 12.75 5.5L5.625 12.625Z" fill="#00FFC3"/>
<path fill-rule="evenodd" clip-rule="evenodd" d="M2.875 17.125C6.75 21 13.125 21 17 17.125C20.875 13.25 20.875 6.875 17 3C13.125 -0.875 6.75 -0.875 2.875 3C-1 6.875 -1 13.125 2.875 17.125ZM15.25 15.25C12.375 18.125 7.625 18.125 4.625 15.25C1.75 12.375 1.75 7.625 4.625 4.625C7.5 1.75 12.25 1.75 15.25 4.625C18.25 7.625 18.25 12.375 15.25 15.25Z" fill="#00FFC3"/>
</g>
<defs>
<clipPath id="clip0_21_501">
<rect width="20" height="20" fill="white"/>
</clipPath>
</defs>
</svg>
