<svg width="15" height="17" viewBox="0 0 15 17" fill="none" xmlns="http://www.w3.org/2000/svg">
<path d="M14.4703 10.0693H11.9703V7.39932L13.9689 5.38972C14.1737 5.18379 14.1737 4.84293 13.9689 4.637C13.7641 4.43107 13.4251 4.43107 13.2203 4.637L11.2994 6.5614C11.0664 5.09857 10.0141 3.91269 8.62994 3.48663L11.1935 0.908933C11.3983 0.703002 11.3983 0.36215 11.1935 0.156219C10.9887 -0.0497128 10.6497 -0.0497128 10.4449 0.156219L7.51412 3.10317L4.61158 0.184623C4.40678 -0.0213085 4.0678 -0.0213085 3.86299 0.184623C3.65819 0.390554 3.65819 0.731406 3.86299 0.937338L6.40537 3.49373C5.02119 3.91979 3.96893 5.10567 3.73588 6.5685L1.81497 4.637C1.61017 4.43107 1.27119 4.43107 1.06638 4.637C0.861582 4.84293 0.861582 5.18379 1.06638 5.38972L3.06497 7.39932V10.0693H0.529661C0.240113 10.0693 0 10.3108 0 10.6019C0 10.8931 0.240113 11.1345 0.529661 11.1345H3.06497C3.06497 12.0434 3.3404 12.8814 3.8065 13.5844L1.31356 16.0911C1.10876 16.297 1.10876 16.6378 1.31356 16.8438C1.41949 16.9503 1.55367 17 1.68785 17C1.82203 17 1.95621 16.9503 2.06215 16.8438L4.49153 14.401C5.28249 15.1395 6.34887 15.594 7.51412 15.594C8.67232 15.594 9.73164 15.1466 10.5226 14.4152L12.9379 16.8438C13.0438 16.9503 13.178 17 13.3121 17C13.4463 17 13.5805 16.9503 13.6864 16.8438C13.8912 16.6378 13.8912 16.297 13.6864 16.0911L11.2147 13.6057C11.6879 12.8956 11.9633 12.0505 11.9633 11.1345H14.4633C14.7528 11.1345 14.9929 10.8931 14.9929 10.6019C15 10.3108 14.7599 10.0693 14.4703 10.0693ZM7.51412 4.38846C8.86299 4.38846 9.98588 5.36131 10.2401 6.64661H4.78814C5.04237 5.36131 6.16525 4.38846 7.51412 4.38846ZM4.12429 11.1203V7.71177H6.98446V14.4862C5.36723 14.2306 4.12429 12.8175 4.12429 11.1203ZM8.04379 14.4862V7.70467H10.904V11.1132C10.904 12.8175 9.66102 14.2306 8.04379 14.4862Z" fill="#00FFC3"/>
</svg>
