<svg width="30" height="30" viewBox="0 0 30 30" fill="none" xmlns="http://www.w3.org/2000/svg">
<g clip-path="url(#clip0_22_94)">
<path d="M4.58839 14.871H6.70341V18.3813H7.09316C7.09378 18.3813 7.09378 18.3813 7.09439 18.3813H7.48599V14.871H9.64719V14.219H20.1909V14.8987H22.1477V18.3813H22.5288C22.5288 18.3813 22.5288 18.3813 22.53 18.3813H22.9112V14.8987H25.2115V14.3717C25.2115 14.3643 25.2152 14.3587 25.2152 14.3519C25.2152 14.3076 25.2152 14.2639 25.2152 14.2196H28.7378V13.4093H25.2152C25.2152 13.376 25.2152 13.3428 25.2152 13.3083C25.2152 13.3015 25.2115 13.2954 25.2115 13.2886V12.7763H20.1909V13.4093H15.3199V11.7764H14.8956C14.895 11.7764 14.895 11.7764 14.8944 11.7764H14.4769V13.4093H9.64596V12.7295H4.58839V13.4093H0.685919V14.2196H4.58839V14.871Z" fill="#00FFC3"/>
<path d="M13.2282 10.3744H16.4325V8.76671H20.8245V0.957458H8.98221V8.76671H13.2282V10.3744ZM10.1823 7.56604V2.15812H19.6244V7.56604H10.1823Z" fill="#00FFC3"/>
<path d="M18.1584 10.4045H11.503V10.7352H18.1584V10.4045Z" fill="#00FFC3"/>
<path d="M0 27.0741H4.24604V28.6817H7.45028V27.0741H11.8429V19.2642H0V27.0741ZM1.20066 20.4643H10.6422V25.8734H1.20066V20.4643Z" fill="#00FFC3"/>
<path d="M9.17616 28.7119H2.5214V29.0426H9.17616V28.7119Z" fill="#00FFC3"/>
<path d="M18.1584 19.0838V26.8937H22.4038V28.5013H25.6086V26.8937H30.0006V19.0838H18.1584ZM28.7999 25.6936H19.3584V20.2857H28.7999V25.6936Z" fill="#00FFC3"/>
<path d="M27.3339 28.5315H20.6785V28.8621H27.3339V28.5315Z" fill="#00FFC3"/>
</g>
<defs>
<clipPath id="clip0_22_94">
<rect width="30" height="30" fill="white"/>
</clipPath>
</defs>
</svg>
