<svg width="16" height="17" viewBox="0 0 16 17" fill="none" xmlns="http://www.w3.org/2000/svg">
<g clip-path="url(#clip0_21_336)">
<path d="M15.4611 8.91784H13.9684C14.0707 8.81481 14.1354 8.66599 14.1354 8.5V8.47138C14.1354 8.15656 13.8929 7.89899 13.5965 7.89899C13.3001 7.89899 13.0576 8.15656 13.0576 8.47138V8.5C13.0576 8.66599 13.1223 8.80909 13.2247 8.91784H8.0027C7.7063 8.91784 7.46379 9.17542 7.46379 9.49023V13.0562C7.36679 12.9475 7.22668 12.8788 7.07039 12.8788H7.04345C6.74705 12.8788 6.50455 13.1364 6.50455 13.4512C6.50455 13.766 6.74705 14.0236 7.04345 14.0236H7.07039C7.22668 14.0236 7.3614 13.9549 7.46379 13.8461V16.4219C7.46379 16.7367 7.7063 16.9943 8.0027 16.9943H15.4611C15.7575 16.9943 16 16.7367 16 16.4219V9.49023C16.0054 9.17542 15.7629 8.91784 15.4611 8.91784ZM14.9222 10.0626V13.869H8.5416V10.0626H14.9222ZM8.5416 15.8495V15.0138H14.9222V15.8495H8.5416Z" fill="#00FFC3"/>
<path d="M10.4601 4.12122H10.514C10.8104 4.12122 11.0529 3.86365 11.0529 3.54883C11.0529 3.23402 10.8104 2.97644 10.514 2.97644H10.4601C10.1637 2.97644 9.92119 3.23402 9.92119 3.54883C9.92119 3.86365 10.1637 4.12122 10.4601 4.12122Z" fill="#00FFC3"/>
<path d="M12.0175 4.12122H12.0714C12.3678 4.12122 12.6103 3.86365 12.6103 3.54883C12.6103 3.23402 12.3678 2.97644 12.0714 2.97644H12.0175C11.7211 2.97644 11.4786 3.23402 11.4786 3.54883C11.4786 3.86365 11.7157 4.12122 12.0175 4.12122Z" fill="#00FFC3"/>
<path d="M13.5965 4.14984C13.8929 4.14984 14.1354 3.89227 14.1354 3.57745V3.54883C14.1354 3.23402 13.8929 2.97644 13.5965 2.97644H13.5696C13.2732 2.97644 13.0307 3.23402 13.0307 3.54883C13.0307 3.71482 13.0953 3.86365 13.2031 3.96668C13.3001 4.08115 13.4402 4.14984 13.5965 4.14984Z" fill="#00FFC3"/>
<path d="M14.1354 5.16871C14.1354 4.85389 13.8929 4.59631 13.5965 4.59631C13.3001 4.59631 13.0576 4.85389 13.0576 5.16871V5.22595C13.0576 5.54076 13.3001 5.79834 13.5965 5.79834C13.8929 5.79834 14.1354 5.54076 14.1354 5.22595V5.16871Z" fill="#00FFC3"/>
<path d="M13.5965 6.24475C13.3001 6.24475 13.0576 6.50233 13.0576 6.81714V6.87438C13.0576 7.1892 13.3001 7.44677 13.5965 7.44677C13.8929 7.44677 14.1354 7.1892 14.1354 6.87438V6.81714C14.1354 6.50233 13.8929 6.24475 13.5965 6.24475Z" fill="#00FFC3"/>
<path d="M5.53991 12.8788H5.48602C5.18962 12.8788 4.94711 13.1364 4.94711 13.4512C4.94711 13.766 5.18962 14.0236 5.48602 14.0236H5.53991C5.8363 14.0236 6.07881 13.766 6.07881 13.4512C6.0842 13.1364 5.84169 12.8788 5.53991 12.8788Z" fill="#00FFC3"/>
<path d="M3.98787 12.8788H3.93398C3.63759 12.8788 3.39508 13.1364 3.39508 13.4512C3.39508 13.766 3.63759 14.0236 3.93398 14.0236H3.98787C4.28427 14.0236 4.52677 13.766 4.52677 13.4512C4.52677 13.1364 4.28427 12.8788 3.98787 12.8788Z" fill="#00FFC3"/>
<path d="M2.4035 12.8502C2.1071 12.8502 1.86459 13.1077 1.86459 13.4225V13.4512C1.86459 13.766 2.1071 14.0236 2.4035 14.0236H2.43044C2.72684 14.0236 2.96934 13.766 2.96934 13.4512C2.96934 13.2852 2.90467 13.1364 2.79689 13.0333C2.70528 12.9188 2.55978 12.8502 2.4035 12.8502Z" fill="#00FFC3"/>
<path d="M2.9478 10.1256C2.9478 9.8108 2.70529 9.55322 2.4089 9.55322C2.1125 9.55322 1.87 9.8108 1.87 10.1256V10.1829C1.87 10.4977 2.1125 10.7552 2.4089 10.7552C2.70529 10.7552 2.9478 10.4977 2.9478 10.1829C2.9478 10.1771 2.9478 10.1256 2.9478 10.1256Z" fill="#00FFC3"/>
<path d="M2.40349 11.2017C2.1071 11.2017 1.86459 11.4592 1.86459 11.7741V11.8313C1.86459 12.1461 2.1071 12.4037 2.40349 12.4037C2.69989 12.4037 2.9424 12.1461 2.9424 11.8313V11.7741C2.94779 11.4592 2.70528 11.2017 2.40349 11.2017Z" fill="#00FFC3"/>
<path d="M1.8646 8.5V8.52862C1.8646 8.84343 2.10711 9.10101 2.4035 9.10101C2.6999 9.10101 2.9424 8.84343 2.9424 8.52862V8.5C2.9424 8.33401 2.87774 8.19091 2.77535 8.08216H7.9973C8.2937 8.08216 8.53621 7.82458 8.53621 7.50976V3.94377C8.63321 4.05253 8.77332 4.12121 8.92961 4.12121H8.95655C9.25295 4.12121 9.49545 3.86364 9.49545 3.54882C9.49545 3.23401 9.25295 2.97643 8.95655 2.97643H8.92961C8.77332 2.97643 8.6386 3.04512 8.53621 3.15387V0.572391C8.53621 0.257576 8.2937 0 7.9973 0H0.538902C0.242506 0 0 0.257576 0 0.572391V7.50976C0 7.82458 0.242506 8.08216 0.538902 8.08216H2.03166C1.92927 8.19091 1.8646 8.33401 1.8646 8.5ZM7.4584 1.15051V4.9569H1.08319V1.15051H7.4584ZM1.08319 6.10168H7.46379V6.93737H1.08319V6.10168Z" fill="#00FFC3"/>
</g>
<defs>
<clipPath id="clip0_21_336">
<rect width="16" height="17" fill="white"/>
</clipPath>
</defs>
</svg>
