<svg width="23" height="23" viewBox="0 0 23 23" fill="none" xmlns="http://www.w3.org/2000/svg">
<g clip-path="url(#clip0_41_1526)">
<path d="M22.7037 18.256L13.2694 2.61007C12.8978 1.99369 12.2198 1.61078 11.5 1.61078C10.7802 1.61078 10.1022 1.99369 9.73046 2.61011L0.29628 18.256C-0.0878474 18.8931 -0.0992126 19.6912 0.266586 20.339C0.632475 20.9868 1.32185 21.3892 2.06575 21.3892H20.9342C21.6781 21.3892 22.3675 20.9868 22.7334 20.339C23.0992 19.6912 23.0878 18.893 22.7037 18.256ZM21.4295 19.6027C21.3288 19.781 21.139 19.8918 20.9342 19.8918H2.06575C1.86095 19.8918 1.67116 19.781 1.57049 19.6027C1.46977 19.4244 1.47292 19.2046 1.57862 19.0293L11.0129 3.38335C11.1152 3.21368 11.3019 3.10825 11.5 3.10825C11.6981 3.10825 11.8848 3.21368 11.9871 3.38335L21.4213 19.0293C21.5271 19.2047 21.5302 19.4244 21.4295 19.6027Z" fill="#00FFC3"/>
<path d="M11.5068 7.77173C10.9372 7.77173 10.4927 8.07738 10.4927 8.61922C10.4927 10.2724 10.6871 12.6481 10.6871 14.3013C10.6872 14.732 11.0623 14.9126 11.5069 14.9126C11.8403 14.9126 12.3126 14.732 12.3126 14.3013C12.3126 12.6481 12.5071 10.2725 12.5071 8.61922C12.5071 8.07742 12.0487 7.77173 11.5068 7.77173Z" fill="#00FFC3"/>
<path d="M11.5209 15.8712C10.9097 15.8712 10.4512 16.3574 10.4512 16.9409C10.4512 17.5105 10.9096 18.0107 11.5209 18.0107C12.0906 18.0107 12.5768 17.5105 12.5768 16.9409C12.5768 16.3574 12.0905 15.8712 11.5209 15.8712Z" fill="#00FFC3"/>
</g>
<defs>
<clipPath id="clip0_41_1526">
<rect width="23" height="23" fill="white"/>
</clipPath>
</defs>
</svg>
