<svg width="40" height="40" viewBox="0 0 40 40" fill="none" xmlns="http://www.w3.org/2000/svg">
<path d="M39.3333 0H21.9999C21.5999 0 21.3333 0.266667 21.3333 0.666667V7.33333V14V20.6667C21.3333 21.0667 21.5999 21.3333 21.9999 21.3333H29.9999V22.6667H21.3333V24H39.9999V22.6667H31.3333V21.3333H39.3333C39.7333 21.3333 39.9999 21.0667 39.9999 20.6667V14V7.33333V0.666667C39.9999 0.266667 39.7333 0 39.3333 0ZM22.6666 8H38.6666V13.3333H22.6666V8ZM22.6666 1.33333H38.6666V6.66667H22.6666V1.33333ZM38.6666 20H22.6666V14.6667H38.6666V20Z" fill="#015944"/>
<path d="M18 16H0.666667C0.266667 16 0 16.2667 0 16.6667V23.3333V30V36.6667C0 37.0667 0.266667 37.3333 0.666667 37.3333H8.66667V38.6667H0V40H18.6667V38.6667H10V37.3333H18C18.4 37.3333 18.6667 37.0667 18.6667 36.6667V30V23.3333V16.6667C18.6667 16.2667 18.4 16 18 16ZM1.33333 24H17.3333V29.3333H1.33333V24ZM1.33333 17.3333H17.3333V22.6667H1.33333V17.3333ZM17.3333 36H1.33333V30.6667H17.3333V36Z" fill="#015944"/>
<path d="M25.3333 2.66663H24V5.33329H25.3333V2.66663Z" fill="#015944"/>
<path d="M28.0001 2.66663H26.6667V5.33329H28.0001V2.66663Z" fill="#015944"/>
<path d="M30.6666 2.66663H29.3333V5.33329H30.6666V2.66663Z" fill="#015944"/>
<path d="M25.3333 9.33337H24V12H25.3333V9.33337Z" fill="#015944"/>
<path d="M28.0001 9.33337H26.6667V12H28.0001V9.33337Z" fill="#015944"/>
<path d="M30.6666 9.33337H29.3333V12H30.6666V9.33337Z" fill="#015944"/>
<path d="M34.6666 3.33337H33.3333V4.66671H34.6666V3.33337Z" fill="#015944"/>
<path d="M37.3333 3.33337H36V4.66671H37.3333V3.33337Z" fill="#015944"/>
<path d="M34.6666 10H33.3333V11.3333H34.6666V10Z" fill="#015944"/>
<path d="M37.3333 10H36V11.3333H37.3333V10Z" fill="#015944"/>
<path d="M34 16.6666H30V18H34V16.6666Z" fill="#015944"/>
<path d="M36.6666 16.6666H35.3333V18H36.6666V16.6666Z" fill="#015944"/>
<path d="M28.6666 16.6666H27.3333V18H28.6666V16.6666Z" fill="#015944"/>
<path d="M26.0001 16.6666H24.6667V18H26.0001V16.6666Z" fill="#015944"/>
<path d="M4.00008 18.6666H2.66675V21.3333H4.00008V18.6666Z" fill="#015944"/>
<path d="M6.66659 18.6666H5.33325V21.3333H6.66659V18.6666Z" fill="#015944"/>
<path d="M9.33333 18.6666H8V21.3333H9.33333V18.6666Z" fill="#015944"/>
<path d="M4.00008 25.3334H2.66675V28H4.00008V25.3334Z" fill="#015944"/>
<path d="M6.66659 25.3334H5.33325V28H6.66659V25.3334Z" fill="#015944"/>
<path d="M9.33333 25.3334H8V28H9.33333V25.3334Z" fill="#015944"/>
<path d="M13.3333 19.3334H12V20.6667H13.3333V19.3334Z" fill="#015944"/>
<path d="M16.0001 19.3334H14.6667V20.6667H16.0001V19.3334Z" fill="#015944"/>
<path d="M13.3333 26H12V27.3333H13.3333V26Z" fill="#015944"/>
<path d="M16.0001 26H14.6667V27.3333H16.0001V26Z" fill="#015944"/>
<path d="M12.6666 32.6666H11.3333V34H12.6666V32.6666Z" fill="#015944"/>
<path d="M15.3333 32.6666H14V34H15.3333V32.6666Z" fill="#015944"/>
<path d="M7.33325 32.6666H3.33325V34H7.33325V32.6666Z" fill="#015944"/>
<path d="M10.0001 32.6666H8.66675V34H10.0001V32.6666Z" fill="#015944"/>
<path d="M30.2 26.2L28.2 28.2L29.1333 29.1333L30 28.2667V33.3333H20V34.6667H30.6667C31.0667 34.6667 31.3333 34.4 31.3333 34V28.2667L32.2 29.1333L33.1333 28.2L31.1333 26.2C30.8667 25.9333 30.4667 25.9333 30.2 26.2Z" fill="#00FFC3"/>
<path d="M9.33337 14C9.53337 14 9.6667 13.9334 9.80003 13.8L11.8 11.8L10.8667 10.8667L10 11.7334V6.66671H20V5.33337H9.33337C8.93337 5.33337 8.6667 5.60004 8.6667 6.00004V11.7334L7.80003 10.8667L6.8667 11.8L8.8667 13.8C9.00003 13.9334 9.13337 14 9.33337 14Z" fill="#00FFC3"/>
<path d="M20.0001 8H18.6667V9.33333H20.0001V8Z" fill="#00FFC3"/>
<path d="M17.3333 8H16V9.33333H17.3333V8Z" fill="#00FFC3"/>
<path d="M14.6666 8H13.3333V9.33333H14.6666V8Z" fill="#00FFC3"/>
<path d="M14.6666 10.6666H13.3333V12H14.6666V10.6666Z" fill="#00FFC3"/>
<path d="M17.3333 10.6666H16V12H17.3333V10.6666Z" fill="#00FFC3"/>
<path d="M20.0001 10.6666H18.6667V12H20.0001V10.6666Z" fill="#00FFC3"/>
<path d="M20.0001 13.3334H18.6667V14.6667H20.0001V13.3334Z" fill="#00FFC3"/>
<path d="M17.3333 13.3334H16V14.6667H17.3333V13.3334Z" fill="#00FFC3"/>
<path d="M21.3333 30.6666H20V32H21.3333V30.6666Z" fill="#00FFC3"/>
<path d="M24.0001 30.6666H22.6667V32H24.0001V30.6666Z" fill="#00FFC3"/>
<path d="M26.6666 30.6666H25.3333V32H26.6666V30.6666Z" fill="#00FFC3"/>
<path d="M26.6666 28H25.3333V29.3333H26.6666V28Z" fill="#00FFC3"/>
<path d="M24.0001 28H22.6667V29.3333H24.0001V28Z" fill="#00FFC3"/>
<path d="M21.3333 28H20V29.3333H21.3333V28Z" fill="#00FFC3"/>
<path d="M21.3333 25.3334H20V26.6667H21.3333V25.3334Z" fill="#00FFC3"/>
<path d="M24.0001 25.3334H22.6667V26.6667H24.0001V25.3334Z" fill="#00FFC3"/>
</svg>
