<svg width="21" height="16" viewBox="0 0 21 16" fill="none" xmlns="http://www.w3.org/2000/svg">
<path d="M9.45 15H11.55V13H9.45V15ZM8.4 15V13H2.625C1.155 13 0 11.9 0 10.5V2.5C0 1.1 1.155 0 2.625 0H18.375C19.845 0 21 1.1 21 2.5V10.5C21 11.9 19.845 13 18.375 13H12.6V15H14.175C14.49 15 14.7 15.2 14.7 15.5C14.7 15.8 14.49 16 14.175 16H6.825C6.51 16 6.3 15.8 6.3 15.5C6.3 15.2 6.51 15 6.825 15H8.4ZM2.625 1C1.785 1 1.05 1.7 1.05 2.5V10.5C1.05 11.3 1.785 12 2.625 12H18.375C19.215 12 19.95 11.3 19.95 10.5V2.5C19.95 1.7 19.215 1 18.375 1H2.625Z" fill="#00FFC3"/>
</svg>
