<svg width="17" height="13" viewBox="0 0 17 13" fill="none" xmlns="http://www.w3.org/2000/svg">
<g clip-path="url(#clip0_95_511)">
<path d="M14.3792 1.06557C13.2458 0.568306 12.1125 0.213115 10.9083 0H10.8375C10.6958 0.284153 10.5542 0.639344 10.4125 0.923497C9.1375 0.710382 7.8625 0.710382 6.5875 0.923497C6.44584 0.639344 6.30417 0.284153 6.09167 0C6.09167 0 6.09167 0 6.02084 0C4.8875 0.213115 3.68334 0.568306 2.62084 1.06557C0.425002 4.33333 -0.212498 7.60109 0.141668 10.7978C0.141668 10.7978 0.141668 10.7978 0.141668 10.8689C1.41667 11.7923 2.83333 12.5738 4.39167 13H4.4625C4.81667 12.5738 5.1 12.0765 5.3125 11.5792V11.5082C4.8875 11.3661 4.39167 11.153 3.96667 10.8689V10.7978C3.96667 10.6557 4.10834 10.6557 4.17917 10.5847H4.25C7.0125 11.8634 10.0583 11.8634 12.8208 10.5847H12.8917C12.9625 10.6557 13.0333 10.7268 13.175 10.7978V10.8689C12.75 11.082 12.325 11.2951 11.8292 11.5082C11.8292 11.5082 11.7583 11.5792 11.8292 11.5792C12.1125 12.0765 12.3958 12.5738 12.6792 13H12.75C14.3083 12.5027 15.725 11.7923 17 10.8689C17 10.8689 17 10.8689 17 10.7978C17.2833 7.10383 16.3625 3.9071 14.3792 1.06557ZM5.66667 8.87978C4.81667 8.87978 4.10834 8.09836 4.10834 7.17486C4.10834 6.25137 4.81667 5.46995 5.66667 5.46995C6.51667 5.46995 7.225 6.25137 7.225 7.17486C7.225 8.09836 6.51667 8.87978 5.66667 8.87978ZM11.3333 8.87978C10.4833 8.87978 9.775 8.09836 9.775 7.17486C9.775 6.25137 10.4833 5.46995 11.3333 5.46995C12.1833 5.46995 12.8917 6.25137 12.8917 7.17486C12.8917 8.09836 12.1833 8.87978 11.3333 8.87978Z" fill="#00FFC3"/>
</g>
<defs>
<clipPath id="clip0_95_511">
<rect width="17" height="13" fill="white"/>
</clipPath>
</defs>
</svg>
