<svg width="13" height="16" viewBox="0 0 13 16" fill="none" xmlns="http://www.w3.org/2000/svg">
<g clip-path="url(#clip0_21_354)">
<path d="M8.99262 0H2.18584C0.977876 0 0 0.964539 0 2.15603V13.844C0 15.0355 0.977876 16 2.18584 16H10.8333C12.0413 16 13.0192 15.0355 13.0192 13.844V4.42553L8.99262 0ZM9.31858 2.06147L11.1593 4.08511H9.31858C9.31858 4.06619 9.31858 2.06147 9.31858 2.06147ZM10.8142 14.8652H2.18584C1.61062 14.8652 1.15044 14.4113 1.15044 13.844V2.15603C1.15044 1.58865 1.61062 1.13475 2.18584 1.13475H8.16814V5.20095H11.8687V13.844C11.8496 14.4113 11.3894 14.8652 10.8142 14.8652Z" fill="#00FFC3"/>
</g>
<defs>
<clipPath id="clip0_21_354">
<rect width="13" height="16" fill="white"/>
</clipPath>
</defs>
</svg>
