<svg width="20" height="20" viewBox="0 0 20 20" fill="none" xmlns="http://www.w3.org/2000/svg">
<path d="M12.5 8.9375V7.5C12.5 6.125 11.375 5 10 5C8.625 5 7.5 6.125 7.5 7.5V8.9375C7.125 9.1875 6.875 9.5625 6.875 10V13.125C6.875 13.8125 7.4375 14.375 8.125 14.375H11.875C12.5625 14.375 13.125 13.8125 13.125 13.125V10C13.125 9.5625 12.875 9.125 12.5 8.9375ZM10 6.25C10.6875 6.25 11.25 6.8125 11.25 7.5V8.75H8.75V7.5C8.75 6.8125 9.3125 6.25 10 6.25ZM11.875 13.125H8.125V10H11.875V13.125Z" fill="#00FFC3"/>
<path d="M19 10.875C19.5 10.375 19.5 9.625 19 9.125L15.375 5.5L17.1875 3.6875C17.875 3.875 18.5625 3.4375 18.6875 2.75C18.875 2.0625 18.4375 1.375 17.75 1.25C17.0625 1.125 16.375 1.5 16.25 2.1875C16.1875 2.375 16.1875 2.625 16.25 2.8125L14.4375 4.5625L10.8125 0.9375C10.3125 0.4375 9.5625 0.4375 9.0625 0.9375L5.5 4.625L3.6875 2.8125C3.875 2.125 3.4375 1.4375 2.8125 1.25C2.1875 1.0625 1.4375 1.5 1.3125 2.1875C1.1875 2.875 1.5625 3.5625 2.25 3.6875C2.4375 3.75 2.6875 3.75 2.875 3.6875L4.625 5.5L1 9.125C0.5 9.625 0.5 10.375 1 10.875L4.625 14.5L2.875 16.3125C2.1875 16.125 1.5 16.5 1.3125 17.1875C1.125 17.875 1.5 18.5625 2.1875 18.75C2.875 18.9375 3.5625 18.5625 3.75 17.875C3.8125 17.6875 3.8125 17.4375 3.75 17.25L5.5625 15.4375L9.1875 19.0625C9.6875 19.5625 10.4375 19.5625 10.9375 19.0625L14.5625 15.4375L16.375 17.1875C16.1875 17.875 16.5625 18.5625 17.25 18.75C17.9375 18.9375 18.625 18.5625 18.8125 17.875C19 17.1875 18.625 16.5 17.9375 16.3125C17.75 16.25 17.5 16.25 17.3125 16.3125L15.5 14.5L19 10.875ZM10 18.125L1.875 10L10 1.875L18.125 10L10 18.125Z" fill="#00FFC3"/>
</svg>
