<svg width="17" height="15" viewBox="0 0 17 15" fill="none" xmlns="http://www.w3.org/2000/svg">
<path d="M16.41 2.5439H15.0569V0.564476C15.0569 0.255896 14.7894 0 14.4669 0H11.0606H7.65433H4.24017H0.590005C0.267469 0 0 0.255896 0 0.564476V14.4355C0 14.7441 0.267469 15 0.590005 15H16.41C16.7325 15 17 14.7441 17 14.4355V3.10838C17 2.79227 16.7404 2.5439 16.41 2.5439ZM13.8769 2.5439H11.6506V1.12895H13.8769V2.5439ZM10.4706 2.5439H8.24433V1.12895H10.4706V2.5439ZM7.06432 2.5439H4.83017V1.12895H7.05646V2.5439H7.06432ZM15.82 13.871H1.18001V1.12895H3.65016V3.10838C3.65016 3.41696 3.91763 3.67285 4.24017 3.67285H7.64646H11.0528H14.459H15.8121V13.871H15.82Z" fill="#00FFC3"/>
</svg>
