<svg width="44" height="43" viewBox="0 0 44 43" fill="none" xmlns="http://www.w3.org/2000/svg">
<g clip-path="url(#clip0_40_361)">
<path d="M29.1077 16.0602V5.00803C29.1077 2.24498 26.9077 0 24.2 0H4.90769C2.2 0 0 2.24498 0 5.00803V17.0964C0 19.3414 0.846154 21.241 2.36923 22.7952L4.90769 25.3855C5.07692 25.5582 5.24615 25.7309 5.58461 25.7309C5.75385 25.7309 6.09231 25.5582 6.26154 25.3855L8.8 22.7952C9.98461 21.5863 11.5077 20.8956 13.0308 20.8956H24.3692C26.9077 21.0683 29.1077 18.8233 29.1077 16.0602ZM12.8615 19.3414C10.8308 19.3414 8.8 20.2048 7.27692 21.759L5.41538 23.6586L3.55385 21.759C2.36923 20.5502 1.69231 18.8233 1.69231 17.0964V5.00803C1.69231 3.28112 3.21538 1.72691 4.90769 1.72691H24.0308C25.8923 1.72691 27.2462 3.28112 27.2462 5.00803V15.8875C27.2462 17.7871 25.7231 19.1687 24.0308 19.1687L12.8615 19.3414Z" fill="#00FFC3"/>
<path d="M6.26153 8.46183H16.7538C17.2615 8.46183 17.6 8.11645 17.6 7.59838C17.6 7.08031 17.2615 6.73492 16.7538 6.73492H6.26153C5.75384 6.73492 5.41537 7.08031 5.41537 7.59838C5.41537 8.11645 5.75384 8.46183 6.26153 8.46183Z" fill="#00FFC3"/>
<path opacity="0.3" d="M23.0154 12.261H6.09231C5.58462 12.261 5.24615 12.6064 5.24615 13.1245C5.24615 13.6426 5.58462 13.988 6.09231 13.988H23.0154C23.5231 13.988 23.8615 13.6426 23.8615 13.1245C23.8615 12.6064 23.5231 12.261 23.0154 12.261Z" fill="#00FFC3"/>
<path opacity="0.3" d="M23.0154 6.73492H20.3077C19.8 6.73492 19.4615 7.08031 19.4615 7.59838C19.4615 8.11645 19.8 8.46183 20.3077 8.46183H23.0154C23.5231 8.46183 23.8616 8.11645 23.8616 7.59838C24.0308 7.08031 23.5231 6.73492 23.0154 6.73492Z" fill="#00FFC3"/>
<path opacity="0.3" d="M39.9385 22.9679H25.3846C23.1846 22.9679 21.3231 24.8675 21.3231 27.1125V35.4016C21.3231 37.6466 23.1846 39.5462 25.3846 39.5462H33.8462C35.0308 39.5462 36.2154 40.0643 37.0616 40.9277L38.9231 42.8273C39.0923 43 39.2616 43.1727 39.6 43.1727C39.7692 43.1727 40.1077 43 40.2769 42.8273L42.1385 40.9277C43.3231 39.7189 44 37.992 44 36.2651V27.1125C44 24.8675 42.1385 22.9679 39.9385 22.9679ZM42.1385 36.2651C42.1385 37.4739 41.6308 38.6828 40.7846 39.5462L39.6 40.755L38.2462 39.3735C37.0616 38.1647 35.5385 37.4739 33.8462 37.4739H25.3846C24.2 37.4739 23.1846 36.4378 23.1846 35.2289V26.9398C23.1846 25.7309 24.2 24.6948 25.3846 24.6948H39.9385C41.1231 24.6948 42.1385 25.7309 42.1385 26.9398V36.2651Z" fill="#00FFC3"/>
<path opacity="0.3" d="M38.9231 28.1486H30.9692C30.4615 28.1486 30.1231 28.494 30.1231 29.0121C30.1231 29.5301 30.4615 29.8755 30.9692 29.8755H38.9231C39.4308 29.8755 39.7692 29.5301 39.7692 29.0121C39.7692 28.494 39.4308 28.1486 38.9231 28.1486Z" fill="#00FFC3"/>
<path opacity="0.3" d="M38.9231 32.2932H26.0615C25.5539 32.2932 25.2154 32.6385 25.2154 33.1566C25.2154 33.6747 25.5539 34.0201 26.0615 34.0201H38.9231C39.4308 34.0201 39.7692 33.6747 39.7692 33.1566C39.7692 32.8112 39.4308 32.2932 38.9231 32.2932Z" fill="#00FFC3"/>
<path d="M26.0615 29.8755H28.2615C28.7692 29.8755 29.1077 29.5301 29.1077 29.0121C29.1077 28.494 28.7692 28.1486 28.2615 28.1486H26.0615C25.5539 28.1486 25.2154 28.494 25.2154 29.0121C25.2154 29.5301 25.5539 29.8755 26.0615 29.8755Z" fill="#00FFC3"/>
</g>
<defs>
<clipPath id="clip0_40_361">
<rect width="44" height="43" fill="white"/>
</clipPath>
</defs>
</svg>
