<svg width="33" height="33" viewBox="0 0 33 33" fill="none" xmlns="http://www.w3.org/2000/svg">
<path d="M9.26693 20.2714L8.03448 21.9214C8.08836 21.9618 11.8463 24.7163 16.8233 24.7163C19.3286 24.7163 22.1437 24.0159 24.952 21.9214L23.7196 20.2714C16.5943 25.5851 9.56326 20.4937 9.26693 20.2714Z" fill="black"/>
<path d="M9.15918 15.5504L14.9173 11.8126L9.15918 8.07489L8.04122 9.80571L11.1324 11.8126L8.03448 13.8196L9.15918 15.5504Z" fill="black"/>
<path d="M24.9655 9.80571L23.8408 8.07489L18.0826 11.8126L23.8408 15.5504L24.9655 13.8196L21.8675 11.8126L24.9655 9.80571Z" fill="black"/>
<path d="M28.3463 0H4.65367C2.08775 0 0 2.08775 0 4.65367V28.3463C0 30.9122 2.08775 33 4.65367 33H28.3463C30.9122 33 33 30.9122 33 28.3463V4.65367C33 2.08775 30.9122 0 28.3463 0ZM30.9392 28.3463C30.9392 29.7741 29.7741 30.9392 28.3463 30.9392H4.65367C3.22592 30.9392 2.06082 29.7741 2.06082 28.3463V4.65367C2.06082 3.22592 3.22592 2.06082 4.65367 2.06082H28.3463C29.7741 2.06082 30.9392 3.22592 30.9392 4.65367V28.3463Z" fill="black"/>
</svg>
