<svg width="32" height="32" viewBox="0 0 32 32" fill="none" xmlns="http://www.w3.org/2000/svg">
<path d="M0 3.12195V28.8781H32V3.12195H0ZM29.6586 26.5366H2.34144V5.46345H12.2514L15.3734 10.1464H29.6585V26.5366H29.6586ZM29.6586 7.80488H16.6266L15.0656 5.46345H29.6586V7.80488Z" fill="#00FFC3"/>
<path d="M20.1622 19.3927C20.2472 19.0561 20.2927 18.7041 20.2927 18.3415C20.2927 17.9789 20.2472 17.6269 20.1621 17.2903L21.3169 16.6236L20.1461 14.5959L18.9885 15.2642C18.4854 14.7755 17.8635 14.4092 17.1707 14.2124V12.8781H14.8294V14.2124C14.1365 14.4092 13.5146 14.7755 13.0115 15.2642L11.854 14.5959L10.6832 16.6236L11.838 17.2903C11.753 17.6269 11.7074 17.9789 11.7074 18.3415C11.7074 18.7041 11.753 19.0561 11.838 19.3927L10.6833 20.0594L11.854 22.0871L13.0116 21.4187C13.5147 21.9075 14.1366 22.2737 14.8294 22.4706V23.8049H17.1709V22.4706C17.8637 22.2738 18.4856 21.9075 18.9887 21.4187L20.1462 22.0871L21.317 20.0594L20.1622 19.3927ZM16 20.2927C14.9242 20.2927 14.0489 19.4174 14.0489 18.3416C14.0489 17.2657 14.9242 16.3903 16 16.3903C17.0759 16.3903 17.9512 17.2656 17.9512 18.3416C17.9512 19.4174 17.0759 20.2927 16 20.2927Z" fill="#00FFC3"/>
</svg>
