<svg width="22" height="21" viewBox="0 0 22 21" fill="none" xmlns="http://www.w3.org/2000/svg">
<path d="M0 0.934901L0.97942 0L22 20.0651L21.0206 21L0 0.934901Z" fill="#00FFC3"/>
<path d="M16.373 10.4999C16.373 7.67319 13.9614 5.37122 11 5.37122C10.2793 5.37122 9.59556 5.50792 8.96725 5.75488L15.9757 12.4447C16.2297 11.8406 16.373 11.1879 16.373 10.4999Z" fill="#00FFC3"/>
<path d="M17.7589 10.5C17.7589 11.5583 17.491 12.555 17.0151 13.437L17.8698 14.2528C19.3528 13.2782 20.6002 11.9949 21.5057 10.5C20.0873 8.1583 17.8328 6.3326 15.1302 5.39771C16.7333 6.57956 17.7589 8.42731 17.7589 10.5Z" fill="#00FFC3"/>
<path d="M5.62704 10.5001C5.62704 13.3268 8.03864 15.6288 11 15.6288C11.7207 15.6288 12.4044 15.4921 13.0328 15.2451L6.02436 8.55969C5.77026 9.15944 5.62704 9.81211 5.62704 10.5001Z" fill="#00FFC3"/>
<path d="M4.24109 10.5C4.24109 9.44165 4.50904 8.44501 4.98489 7.56303L4.12559 6.74719C2.6426 7.72178 1.39522 9.00507 0.489716 10.5C1.90803 12.8417 4.16255 14.6674 6.8652 15.6023C5.27133 14.4204 4.24109 12.5727 4.24109 10.5Z" fill="#00FFC3"/>
</svg>
