<svg width="33" height="31" viewBox="0 0 33 31" fill="none" xmlns="http://www.w3.org/2000/svg">
<path d="M25.1454 23.1635L31.8223 29.6197L31.1131 30.3048L23.8996 23.3363L23.6688 23.1134L23.3701 23.2303C21.1973 24.08 18.8668 24.5239 16.5034 24.5239H16.4966H16.4899C13.2334 24.5239 10.0436 23.6803 7.25544 22.096C4.54689 20.5565 2.29179 18.3523 0.719139 15.732C0.718925 15.7317 0.718711 15.7313 0.718497 15.731L0.581429 15.5L0.718497 15.269C0.718711 15.2687 0.718925 15.2683 0.719139 15.268C2.29067 12.6496 4.55075 10.4461 7.25126 8.90642C7.3356 8.86076 7.41802 8.81526 7.4984 8.77089L7.49934 8.77037C7.58218 8.72464 7.66289 8.68009 7.74495 8.6357L8.34558 8.31077L7.85444 7.83632L1.17115 1.38009L1.88013 0.695199L9.09369 7.66368L9.32442 7.88657L9.62319 7.76973C11.7959 6.92002 14.1265 6.47606 16.4899 6.47606H16.4966H16.5034C19.7598 6.47606 22.9497 7.31967 25.7378 8.90403C28.4463 10.4435 30.7014 12.6476 32.274 15.2678C32.2743 15.2682 32.2745 15.2686 32.2748 15.269L32.4118 15.5L32.2745 15.7314C32.2743 15.7317 32.2742 15.732 32.274 15.7322C30.7025 18.3569 28.4493 20.5539 25.7488 22.0936C25.6642 22.1393 25.5816 22.1849 25.5011 22.2294L25.5007 22.2296C25.4178 22.2754 25.3371 22.3199 25.255 22.3643L24.6547 22.6891L25.1454 23.1635ZM31.0678 15.7718L31.2439 15.5L31.0678 15.2282C29.4758 12.7702 27.2602 10.7988 24.6943 9.45226L24.0631 10.1965C25.1869 11.6832 25.8555 13.5248 25.8555 15.5C25.8555 17.4757 25.1934 19.3106 24.0633 20.8032L24.6943 21.5477C27.2602 20.2012 29.4758 18.2298 31.0678 15.7718ZM16.4891 23.571H16.4899H16.4966H16.4967H16.4967H16.4967H16.4968H16.4968H16.4969H16.4969H16.4969H16.497H16.497H16.4971H16.4971H16.4971H16.4972H16.4972H16.4972H16.4973H16.4973H16.4974H16.4974H16.4974H16.4975H16.4975H16.4975H16.4976H16.4976H16.4976H16.4977H16.4977H16.4977H16.4978H16.4978H16.4979H16.4979H16.4979H16.498H16.498H16.498H16.4981H16.4981H16.4981H16.4982H16.4982H16.4982H16.4983H16.4983H16.4983H16.4984H16.4984H16.4984H16.4984H16.4985H16.4985H16.4985H16.4986H16.4986H16.4986H16.4987H16.4987H16.4987H16.4988H16.4988H16.4988H16.4989H16.4989H16.4989H16.4989H16.499H16.499H16.499H16.4991H16.4991H16.4991H16.4991H16.4992H16.4992H16.4992H16.4993H16.4993H16.4993H16.4993H16.4994H16.4994H16.4994H16.4995H16.4995H16.4995H16.4995H16.4996H16.4996H16.4996H16.4996H16.4997H16.4997H16.4997H16.4998H16.4998H16.4998H16.4998H16.4999H16.4999H16.4999H16.4999H16.5H16.5H16.5H16.5H16.5001H16.5001H16.5001H16.5001H16.5002H16.5002H16.5002H16.5002H16.5002H16.5003H16.5003H16.5003H16.5003H16.5004H16.5004H16.5004H16.5004H16.5005H16.5005H16.5005H16.5005H16.5005H16.5006H16.5006H16.5006H16.5006H16.5007H16.5007H16.5007H16.5007H16.5007H16.5008H16.5008H16.5008H16.5008H16.5008H16.5009H16.5009H16.5009H16.5009H16.5009H16.501H16.501H16.501H16.501H16.501H16.5011H16.5011H16.5011H16.5011H16.5011H16.5012H16.5012H16.5012H16.5012H16.5012H16.5013H16.5013H16.5013H16.5013H16.5013H16.5013H16.5014H16.5014H16.5014H16.5014H16.5014H16.5014H16.5015H16.5015H16.5015H16.5015H16.5015H16.5015H16.5016H16.5016H16.5016H16.5016H16.5016H16.5016H16.5017H16.5017H16.5017H16.5017H16.5017H16.5017H16.5018H16.5018H16.5018H16.5018H16.5018H16.5018H16.5019H16.5019H16.5019H16.502H16.502H16.502H16.502H16.5021H16.5021H16.5021H16.5021H16.5022H16.5022H16.5022H16.5022H16.5023H16.5023H16.5023H16.5023H16.5023H16.5024H16.5024H16.5024H16.5024H16.5025H16.5025H16.5025H16.5025H16.5025H16.5026H16.5026H16.5026H16.5026H16.5026H16.5026H16.5027H16.5027H16.5027H16.5027H16.5027H16.5028H16.5028H16.5028H16.5028H16.5028H16.5028H16.5028H16.5029H16.5029H16.5029H16.5029H16.5029H16.503H16.503H16.503H16.503H16.503H16.503H16.5031H16.5031H16.5031H16.5031H16.5031H16.5032H16.5032H16.5032H16.5032H16.5032H16.5032H16.5032H16.5033H16.5033H16.5033H16.5033H16.5033H16.5033H16.5034C18.4072 23.571 20.1689 22.9417 21.573 21.8967L22.0454 21.5451L21.6218 21.136L18.4007 18.0243L18.1453 17.7776L17.8283 17.9374C17.43 18.1381 16.9744 18.2549 16.4966 18.2549C14.8964 18.2549 13.6272 17.0044 13.6272 15.5C13.6272 15.0475 13.7457 14.6144 13.9513 14.2338L14.1315 13.9001L13.8587 13.6366L10.6376 10.5249L10.2434 10.1441L9.90027 10.5715C8.80794 11.9322 8.15938 13.643 8.15938 15.5C8.15938 19.9652 11.9106 23.5641 16.4891 23.571ZM16.5041 7.42902H16.5034H16.4966H16.4966H16.4966H16.4966H16.4966H16.4966H16.4965H16.4965H16.4965H16.4965H16.4965H16.4965H16.4964H16.4964H16.4964H16.4964H16.4964H16.4964H16.4963H16.4963H16.4963H16.4963H16.4963H16.4963H16.4962H16.4962H16.4962H16.4962H16.4962H16.4961H16.4961H16.4961H16.4961H16.4961H16.496H16.496H16.496H16.496H16.496H16.496H16.496H16.4959H16.4959H16.4959H16.4959H16.4959H16.4958H16.4958H16.4958H16.4958H16.4958H16.4957H16.4957H16.4957H16.4957H16.4957H16.4956H16.4956H16.4956H16.4956H16.4956H16.4955H16.4955H16.4955H16.4955H16.4954H16.4954H16.4954H16.4954H16.4953H16.4953H16.4953H16.4952H16.4952H16.4952H16.4952H16.4951H16.4951H16.4951H16.4951H16.4951H16.495H16.495H16.495H16.495H16.495H16.495H16.4949H16.4949H16.4949H16.4949H16.4949H16.4949H16.4948H16.4948H16.4948H16.4948H16.4948H16.4948H16.4947H16.4947H16.4947H16.4947H16.4947H16.4947H16.4946H16.4946H16.4946H16.4946H16.4946H16.4946H16.4945H16.4945H16.4945H16.4945H16.4945H16.4944H16.4944H16.4944H16.4944H16.4944H16.4943H16.4943H16.4943H16.4943H16.4943H16.4942H16.4942H16.4942H16.4942H16.4942H16.4941H16.4941H16.4941H16.4941H16.4941H16.494H16.494H16.494H16.494H16.494H16.4939H16.4939H16.4939H16.4939H16.4939H16.4938H16.4938H16.4938H16.4938H16.4937H16.4937H16.4937H16.4937H16.4937H16.4936H16.4936H16.4936H16.4936H16.4935H16.4935H16.4935H16.4935H16.4934H16.4934H16.4934H16.4934H16.4933H16.4933H16.4933H16.4933H16.4932H16.4932H16.4932H16.4932H16.4931H16.4931H16.4931H16.4931H16.493H16.493H16.493H16.493H16.4929H16.4929H16.4929H16.4929H16.4928H16.4928H16.4928H16.4927H16.4927H16.4927H16.4927H16.4926H16.4926H16.4926H16.4926H16.4925H16.4925H16.4925H16.4924H16.4924H16.4924H16.4924H16.4923H16.4923H16.4923H16.4922H16.4922H16.4922H16.4921H16.4921H16.4921H16.4921H16.492H16.492H16.492H16.4919H16.4919H16.4919H16.4918H16.4918H16.4918H16.4917H16.4917H16.4917H16.4916H16.4916H16.4916H16.4915H16.4915H16.4915H16.4914H16.4914H16.4914H16.4914H16.4913H16.4913H16.4912H16.4912H16.4912H16.4911H16.4911H16.4911H16.491H16.491H16.491H16.4909H16.4909H16.4909H16.4908H16.4908H16.4908H16.4907H16.4907H16.4907H16.4906H16.4906H16.4905H16.4905H16.4905H16.4904H16.4904H16.4904H16.4903H16.4903H16.4902H16.4902H16.4902H16.4901H16.4901H16.49H16.49H16.49H16.4899H16.4899C14.5861 7.42902 12.8244 8.05835 11.4203 9.1033L10.9479 9.45488L11.3714 9.86402L14.5926 12.9757L14.8479 13.2224L15.165 13.0626C15.5633 12.8619 16.0189 12.7451 16.4966 12.7451C18.0968 12.7451 19.366 13.9956 19.366 15.5C19.366 15.9525 19.2476 16.3856 19.042 16.7662L18.8618 17.0999L19.1345 17.3634L22.3557 20.4751L22.7499 20.8559L23.093 20.4285C24.1853 19.0678 24.8339 17.357 24.8339 15.5C24.8339 11.0348 21.0827 7.43592 16.5041 7.42902ZM1.92544 15.2282L1.74901 15.5006L1.92599 15.7726C3.52421 18.2295 5.73252 20.2009 8.299 21.5477L8.92937 20.8024C7.80022 19.3172 7.13774 17.4762 7.13774 15.5C7.13774 13.5243 7.7999 11.6894 8.92998 10.1968L8.299 9.45226C5.7331 10.7988 3.51748 12.7702 1.92544 15.2282Z" fill="black" stroke="black"/>
</svg>
