<svg width="7" height="16" viewBox="0 0 7 16" fill="none" xmlns="http://www.w3.org/2000/svg">
<path d="M6.78745 14.0788L6.56073 14.9691C5.89474 15.2195 5.37045 15.4281 4.97368 15.5533C4.57692 15.6924 4.12348 15.762 3.59919 15.762C2.7915 15.762 2.16802 15.5672 1.72875 15.1917C1.28947 14.8022 1.06275 14.3153 1.06275 13.7311C1.06275 13.5085 1.07692 13.272 1.11943 13.0216C1.14777 12.7712 1.20445 12.5069 1.2753 12.2009L2.09717 9.32144C2.16802 9.04323 2.23887 8.77893 2.28138 8.54246C2.33806 8.29207 2.35223 8.0695 2.35223 7.87475C2.35223 7.51308 2.28138 7.24878 2.12551 7.10968C1.96964 6.97057 1.67207 6.88711 1.23279 6.88711C1.02024 6.88711 0.793522 6.91493 0.580972 6.98448C0.354251 7.05404 0.170041 7.10968 0 7.16532L0.226721 6.27505C0.765182 6.05248 1.28947 5.87165 1.78543 5.71863C2.28138 5.56562 2.74899 5.48216 3.18826 5.48216C3.98178 5.48216 4.60526 5.6769 5.03036 6.05248C5.45547 6.42807 5.68219 6.91493 5.68219 7.52699C5.68219 7.65219 5.66802 7.87475 5.63968 8.18078C5.61134 8.50072 5.55466 8.77893 5.46964 9.04323L4.66194 11.9227C4.59109 12.1592 4.53441 12.4096 4.47773 12.7156C4.42105 13.0077 4.39271 13.2303 4.39271 13.3833C4.39271 13.7589 4.47773 14.0232 4.64777 14.1623C4.81781 14.3014 5.12955 14.3709 5.55466 14.3709C5.75304 14.3709 5.97976 14.3292 6.23482 14.2736C6.48988 14.1901 6.67409 14.1345 6.78745 14.0788ZM7 2.04627C7 2.54705 6.80162 2.97827 6.41903 3.32604C6.03644 3.6738 5.56883 3.85463 5.03036 3.85463C4.4919 3.85463 4.02429 3.6738 3.62753 3.32604C3.24494 2.97827 3.04656 2.54705 3.04656 2.04627C3.04656 1.5455 3.24494 1.11427 3.62753 0.766512C4.01012 0.418751 4.47773 0.237915 5.03036 0.237915C5.56883 0.237915 6.03644 0.418751 6.41903 0.766512C6.80162 1.12818 7 1.5455 7 2.04627Z" fill="#00FFC3"/>
</svg>
