<svg width="65" height="43" viewBox="0 0 65 43" fill="none" xmlns="http://www.w3.org/2000/svg">
<g clip-path="url(#clip0_40_324)">
<path d="M27.5094 18.446C27.5094 18.446 27.6311 18.446 27.6311 18.5682C27.6311 18.5682 27.6311 18.446 27.5094 18.446Z" fill="#00FFC3"/>
<path d="M24.588 4.03128C24.9532 3.54264 25.4401 3.05401 25.927 2.56537C25.4401 3.05401 24.9532 3.54264 24.588 4.03128Z" fill="#00FFC3"/>
<path d="M25.927 2.56536C25.927 2.56536 26.0487 2.4432 26.1704 2.32104C26.0487 2.4432 26.0487 2.4432 25.927 2.56536Z" fill="#00FFC3"/>
<path d="M22.8839 7.69602C23.0056 7.20738 23.1273 6.8409 23.2491 6.47443C23.1273 6.8409 23.0056 7.20738 22.8839 7.69602Z" fill="#00FFC3"/>
<path d="M22.7622 8.06249C22.7622 7.94033 22.8839 7.81817 22.8839 7.57385C22.8839 7.81817 22.8839 7.94033 22.7622 8.06249Z" fill="#00FFC3"/>
<path d="M23.6142 5.74149C23.736 5.37502 23.9794 5.00854 24.1011 4.76422C23.9794 5.00854 23.736 5.37502 23.6142 5.74149Z" fill="#00FFC3"/>
<path d="M24.1011 4.76418C24.2228 4.51986 24.3446 4.3977 24.4663 4.15338C24.3446 4.3977 24.2228 4.51986 24.1011 4.76418Z" fill="#00FFC3"/>
<path d="M23.3708 6.35225C23.4925 6.10793 23.4925 5.98577 23.6142 5.74146C23.4925 5.98577 23.3708 6.10793 23.3708 6.35225Z" fill="#00FFC3"/>
<path d="M26.4139 2.19888C26.5356 2.19888 26.5356 2.07672 26.6573 2.07672C26.5356 2.07672 26.4139 2.07672 26.4139 2.19888Z" fill="#00FFC3"/>
<path d="M41.264 8.55114C41.1423 8.30682 41.0206 8.0625 40.8989 7.81818C40.7771 7.57386 40.5337 7.4517 40.5337 7.20739C40.412 6.84091 39.8034 6.59659 39.8034 6.10795C39.8034 5.9858 39.6816 5.74148 39.6816 5.74148V5.49716C39.6816 5.375 39.6816 5.25284 39.6816 5.00852C39.3165 5.13068 39.073 5.00852 38.7079 4.88636C38.5861 4.7642 38.5861 4.7642 38.4644 4.64205C38.5861 4.51989 38.4644 4.51989 38.4644 4.51989C38.4644 4.39773 38.7079 4.39773 38.8296 4.39773C38.7079 4.39773 38.7079 4.51989 38.5861 4.39773C38.4644 4.27557 38.4644 4.39773 38.3427 4.39773C38.3427 4.39773 38.3427 4.39773 38.3427 4.51989C38.3427 4.51989 38.221 4.39773 38.221 4.51989C38.3427 4.64205 38.3427 4.7642 38.4644 4.7642C38.3427 4.7642 38.3427 4.7642 38.221 4.7642C38.221 4.7642 38.221 5.00852 38.3427 5.00852C38.221 5.00852 38.0992 4.88636 38.221 4.7642C38.0992 4.7642 37.8558 4.51989 37.8558 4.39773C37.8558 4.15341 37.4906 4.15341 37.4906 4.03125C37.4906 4.03125 36.882 3.66477 36.882 3.78693C36.882 4.03125 37.2472 4.27557 37.3689 4.27557C37.3689 4.39773 37.7341 4.39773 37.7341 4.51989C37.4906 4.39773 37.6124 4.39773 37.6124 4.64205C37.6124 4.64205 37.4906 4.88636 37.4906 4.7642C37.7341 4.7642 36.882 4.03125 36.882 4.15341C36.6386 3.90909 36.6386 3.90909 36.3951 4.03125C36.2734 4.15341 35.7865 3.90909 35.9082 4.15341C35.9082 4.15341 35.2996 4.39773 35.5431 4.51989C35.4213 4.64205 35.2996 4.7642 35.1779 4.7642C35.0562 4.7642 34.8127 4.88636 34.691 4.7642C34.5693 4.64205 34.5693 4.64205 34.3258 4.64205C34.2041 4.64205 34.3258 4.03125 34.3258 4.03125C34.2041 3.78693 34.0824 3.66477 34.3258 3.66477C34.4476 3.66477 34.691 3.66477 34.8127 3.78693C35.0562 3.78693 35.0562 3.78693 35.0562 3.54261C35.1779 3.2983 34.5693 3.2983 34.5693 3.17614C34.5693 3.05398 34.9345 3.17614 34.9345 3.17614V3.05398C35.1779 3.05398 35.1779 2.93182 35.4213 2.93182C35.6648 2.93182 35.5431 2.6875 35.7865 2.6875C35.9082 2.6875 36.03 2.6875 36.03 2.56534C36.03 2.44318 36.03 2.44318 36.2734 2.32102C36.2734 2.44318 36.2734 2.44318 36.2734 2.44318C36.2734 2.44318 36.2734 2.44318 36.2734 2.56534C36.2734 2.56534 36.3951 2.56534 36.3951 2.6875C36.3951 2.6875 36.3951 2.6875 36.2734 2.6875V2.80966C36.3951 2.80966 36.5169 2.80966 36.6386 2.80966C36.6386 2.93182 37.1255 2.80966 37.1255 2.80966H37.2472C37.2472 2.44318 37.7341 2.32102 37.7341 2.44318C37.7341 2.44318 37.4906 2.32102 37.6124 2.32102C37.7341 2.19886 37.9775 2.32102 38.0992 2.32102C37.9775 2.19886 37.1255 2.32102 37.2472 2.0767C37.1255 2.0767 37.1255 1.95455 37.1255 1.95455L37.4906 1.83239C37.3689 1.71023 37.1255 1.83239 37.1255 1.83239C37.1255 1.95455 36.7603 1.83239 36.7603 1.95455C36.7603 2.0767 36.882 2.0767 37.0037 2.19886C37.0037 2.19886 36.6386 2.32102 36.882 2.44318C36.882 2.56534 36.6386 2.56534 36.5169 2.56534C36.5169 2.56534 36.3951 2.32102 36.2734 2.32102C36.1517 2.19886 36.1517 2.0767 36.03 2.19886C36.03 2.19886 35.6648 2.32102 35.6648 2.19886C35.6648 2.19886 35.7865 2.19886 35.6648 2.19886C35.6648 2.19886 35.6648 2.19886 35.5431 2.19886C35.2996 2.0767 35.7865 1.95455 35.9082 1.95455C35.9082 1.95455 35.9082 1.95455 35.7865 1.95455C35.9082 1.95455 36.3951 1.71023 36.3951 1.71023C36.2734 1.71023 36.2734 1.71023 36.1517 1.71023C36.1517 1.71023 36.1517 1.71023 36.2734 1.71023H36.5169H36.6386C36.7603 1.71023 36.882 1.71023 37.0037 1.71023C36.882 1.71023 37.2472 1.58807 37.2472 1.71023C37.3689 1.71023 37.4906 1.71023 37.6124 1.83239C36.2734 0.610795 34.4476 0 32.5 0C30.309 0 28.3614 0.732955 26.6573 1.95455C26.779 1.95455 27.0225 1.95455 26.9007 1.95455C27.0225 1.95455 27.1442 1.71023 27.2659 1.83239L27.1442 1.95455C27.1442 2.0767 27.1442 1.95455 27.2659 2.0767H27.1442C27.0225 2.0767 26.4139 2.19886 26.2921 2.0767C26.2921 2.0767 26.1704 2.0767 26.1704 2.19886C26.2921 2.0767 26.4139 2.0767 26.5356 2.0767H26.779H26.6573H26.779C27.0225 2.0767 27.2659 2.0767 27.3876 2.0767C27.5094 1.95455 27.6311 2.0767 27.6311 1.95455C27.6311 1.95455 27.6311 1.95455 27.5094 1.95455C27.5094 1.95455 27.5094 1.95455 27.6311 1.95455H27.5094C27.6311 1.83239 27.8745 1.83239 27.8745 1.95455H27.7528H27.8745C27.7528 1.95455 27.8745 1.95455 27.8745 2.0767C27.8745 2.0767 28.118 1.95455 28.118 2.0767C27.9963 2.0767 27.9963 2.0767 27.9963 2.19886C28.118 2.32102 28.3614 2.0767 28.3614 2.0767H27.8745C27.9963 2.0767 27.9963 2.0767 27.9963 2.0767H27.8745C27.8745 1.95455 27.9963 1.95455 28.118 1.95455C28.118 1.95455 27.9963 1.95455 27.8745 1.95455H27.7528C27.8745 1.83239 27.9963 1.83239 28.2397 1.83239H28.118C28.2397 1.83239 28.3614 1.83239 28.4831 1.83239C28.4831 1.83239 28.2397 1.83239 28.3614 1.83239C28.2397 1.83239 28.7266 1.71023 28.8483 1.83239C29.0918 1.83239 29.2135 1.95455 29.4569 1.95455C29.4569 1.95455 29.4569 1.95455 29.5786 1.95455C29.5786 1.95455 29.5787 1.95455 29.4569 1.95455C29.4569 1.95455 29.4569 1.95455 29.5786 1.95455C29.5786 1.95455 29.5787 1.95455 29.4569 1.95455L29.7004 2.0767C29.7004 2.19886 29.4569 2.19886 29.3352 2.0767C29.3352 2.0767 29.4569 2.19886 29.4569 2.0767C29.4569 2.19886 29.4569 2.19886 29.2135 2.19886C29.2135 2.19886 29.4569 2.32102 29.3352 2.32102C29.2135 2.32102 28.97 2.19886 28.8483 2.19886H28.3614C28.4831 2.0767 28.7266 2.0767 28.8483 2.0767C28.7266 2.0767 29.0918 1.95455 28.97 1.83239C28.97 1.95455 28.7266 1.83239 28.7266 1.83239H28.8483H28.7266C28.7266 1.83239 28.7266 1.83239 28.8483 1.83239H28.6049H28.4831H28.6049C28.4831 1.95455 28.3614 1.95455 28.118 2.0767H27.9963H28.118H28.2397C28.118 2.0767 27.8745 2.19886 27.7528 2.19886H27.6311C27.6311 2.19886 27.7528 2.0767 27.8745 2.0767C27.7528 2.0767 27.6311 2.0767 27.6311 2.0767H27.7528C27.6311 2.19886 27.3876 2.19886 27.1442 2.19886C27.0225 2.32102 26.6573 2.44318 26.4139 2.56534C26.5356 2.56534 26.5356 2.56534 26.4139 2.6875C26.779 2.6875 26.779 2.93182 27.0225 2.80966C27.1442 2.93182 27.0225 2.93182 27.0225 3.05398H27.1442C27.1442 3.05398 27.1442 3.05398 27.2659 3.05398C27.3876 2.93182 27.2659 2.80966 27.5094 2.6875C27.8745 2.56534 27.6311 2.56534 27.6311 2.32102C27.9963 2.19886 27.8745 1.95455 28.3614 2.19886C28.4831 2.32102 28.97 2.44318 28.97 2.19886C28.8483 2.32102 28.97 2.32102 28.97 2.32102C29.0918 2.19886 29.3352 2.56534 29.0918 2.56534H29.2135C29.0918 2.6875 29.4569 2.6875 29.4569 2.6875C29.4569 2.6875 29.2135 2.80966 29.0918 2.80966C29.0918 2.80966 29.4569 2.80966 29.5786 2.6875C29.9438 3.66477 28.7266 3.66477 28.4831 3.78693C28.4831 3.78693 29.0918 3.66477 29.0918 3.78693C29.0918 3.90909 28.97 3.78693 28.8483 3.90909H28.97C28.7266 4.15341 29.2135 4.15341 29.2135 4.15341C29.2135 4.27557 28.7266 4.27557 28.6049 4.39773C28.4831 4.51989 28.6049 4.15341 28.8483 4.15341C28.8483 4.15341 28.7266 4.15341 28.8483 4.15341C28.7266 4.15341 28.4831 4.39773 28.2397 4.27557C28.118 4.27557 27.7528 4.64205 27.8745 4.51989C27.7528 4.51989 27.5094 4.51989 27.3876 4.64205H27.5094C27.3876 4.64205 27.0225 4.7642 27.0225 4.88636C26.9007 4.88636 26.9007 5.13068 26.779 5.13068V4.88636L26.6573 5.13068C26.6573 5.13068 26.6573 5.25284 26.5356 5.25284C26.5356 5.25284 26.4139 5.25284 26.4139 5.375C26.2921 5.49716 26.1704 5.49716 26.1704 5.49716C25.8052 5.61932 25.4401 5.86364 25.4401 6.23011C25.4401 6.35227 25.3184 6.84091 25.0749 6.84091C24.9532 6.84091 25.1966 6.10795 25.1966 5.9858C25.1966 5.9858 24.7097 5.86364 24.8315 5.86364C24.7097 5.86364 24.7097 5.86364 24.588 5.86364C24.588 5.9858 24.4663 5.9858 24.4663 5.9858C24.3446 5.9858 24.2228 5.74148 24.1011 5.86364C23.8577 5.9858 23.6142 6.10795 23.4925 6.35227C23.4925 6.47443 22.7622 7.69602 23.0056 7.69602C23.4925 7.81818 23.4925 7.08523 23.9794 7.20739C23.8577 7.32955 23.8577 7.4517 23.736 7.57386C23.736 7.69602 23.6142 7.69602 23.6142 7.69602C23.6142 7.81818 23.0056 8.18466 23.4925 8.18466C23.9794 8.18466 23.6142 8.6733 23.4925 9.03977C23.3708 9.28409 23.2491 10.1392 23.6142 9.89489C24.3446 10.2614 24.3446 10.6278 24.3446 10.75L24.2228 10.8722C24.2228 10.75 24.3446 10.5057 24.2228 10.5057C23.9794 10.3835 23.9794 10.8722 23.8577 10.8722C23.6142 10.75 23.736 10.017 23.6142 10.017C23.6142 10.017 23.6142 10.017 23.6142 10.1392C23.6142 10.017 23.736 9.77273 23.736 9.65057C23.736 9.52841 23.736 9.40625 23.736 9.28409C23.6142 9.28409 23.4925 9.16193 23.3708 9.03977C23.3708 8.91761 23.3708 8.6733 23.2491 8.6733C23.2491 8.42898 23.1273 8.6733 23.0056 8.6733C22.8839 8.6733 22.8839 8.42898 22.7622 8.30682C22.6404 8.91761 22.6404 9.40625 22.6404 10.017C22.6404 13.6818 24.588 16.7358 27.3876 18.5682C27.3876 18.446 27.3876 18.446 27.3876 18.3239C27.2659 18.2017 27.2659 18.2017 27.2659 17.9574C27.2659 17.5909 27.2659 17.3466 27.1442 16.9801C27.0225 16.7358 27.0225 16.3693 27.0225 16.0028C26.9007 15.7585 26.9007 15.5142 26.779 15.2699C26.6573 15.0256 26.2921 14.7812 26.0487 14.7812C25.5618 14.6591 25.5618 14.2926 25.3184 14.0483C25.0749 13.804 24.9532 13.5597 24.8315 13.4375C24.7097 13.3153 24.588 13.3153 24.588 13.1932C24.588 13.071 24.7097 12.9489 24.7097 12.8267C24.4663 12.7045 24.588 12.7045 24.588 12.4602C24.588 12.2159 24.8315 12.0937 24.8315 11.8494C24.8315 11.8494 24.7097 11.8494 24.8315 11.7273C24.8315 11.483 24.588 11.2386 24.8315 11.1165C24.8315 10.8722 25.0749 10.6278 25.3184 10.6278L25.4401 10.5057V10.6278C25.4401 10.75 25.4401 10.9943 25.5618 10.9943C25.6835 10.9943 25.4401 10.6278 25.6835 10.6278C25.6835 10.6278 25.5618 10.6278 25.5618 10.5057C25.6835 10.5057 25.8052 10.6278 25.927 10.6278C25.927 10.6278 26.1704 10.6278 26.2921 10.6278C26.4139 10.6278 26.5356 10.6278 26.6573 10.5057C26.6573 10.75 27.1442 10.75 27.3876 10.9943C27.5094 11.1165 27.9963 11.2386 28.118 11.2386C28.3614 11.2386 28.7266 11.7273 28.6049 11.8494C28.4831 12.0937 28.7266 12.3381 28.8483 12.2159C29.0918 12.2159 28.8483 11.8494 29.2135 11.9716C29.3352 11.9716 29.4569 11.9716 29.4569 12.2159C29.5787 12.2159 29.8221 12.0938 30.0655 12.2159C30.309 12.2159 30.4307 12.3381 30.5524 12.4602C31.0393 12.5824 30.5524 13.3153 30.4307 13.5597C30.309 13.6818 30.5524 14.1705 30.5524 14.4148C30.4307 14.7812 30.4307 14.9034 30.0655 15.1477C29.9438 15.1477 29.8221 15.392 29.8221 15.5142C29.8221 15.6364 29.9438 15.7585 29.9438 15.8807C29.8221 16.0028 29.8221 16.0028 29.8221 16.125C29.8221 16.3693 29.7004 16.6136 29.7004 16.858C29.7004 16.9801 29.2135 17.1023 29.0918 17.1023C29.2135 17.3466 29.5787 17.2244 29.3352 17.5909C29.3352 17.7131 29.0918 17.7131 28.97 17.8352C28.8483 17.8352 28.97 18.0795 28.97 18.0795C29.0918 18.2017 28.8483 18.2017 28.7266 18.2017C28.6049 18.2017 28.97 18.446 28.97 18.446C28.97 18.5682 28.8483 18.446 28.8483 18.446C28.8483 18.5682 28.97 18.8125 28.8483 18.8125C28.6049 18.9347 29.0918 19.0568 29.0918 19.179C30.1873 19.6676 31.5262 19.9119 32.7434 19.9119C36.5169 19.9119 39.6816 17.8352 41.3858 14.7812C41.3858 14.6591 41.3858 14.6591 41.5075 14.5369C42.2378 13.1932 42.603 11.6051 42.603 10.017C42.603 9.52841 42.603 9.03977 42.4813 8.55114C41.8727 8.55114 41.5075 9.03977 41.264 8.55114ZM37.6124 2.32102C37.6124 2.32102 37.4906 2.32102 37.6124 2.32102C37.4906 2.32102 37.4906 2.32102 37.6124 2.32102C37.4906 2.32102 37.4906 2.32102 37.6124 2.32102C37.4906 2.19886 37.4906 2.32102 37.6124 2.32102ZM37.1255 2.32102C37.1255 2.32102 37.1255 2.44318 37.1255 2.32102C37.0037 2.44318 37.1255 2.32102 37.1255 2.32102ZM36.5169 2.56534C36.3951 2.56534 36.3951 2.6875 36.3951 2.6875C36.3951 2.56534 36.5169 2.56534 36.5169 2.56534C36.2734 2.56534 36.5169 2.44318 36.5169 2.56534ZM35.5431 1.34375C35.5431 1.34375 35.6648 1.34375 35.5431 1.34375V1.34375ZM35.7865 1.34375C35.7865 1.34375 35.6648 1.34375 35.7865 1.34375H35.9082C35.7865 1.22159 36.03 1.34375 36.03 1.34375H36.1517H36.2734H36.1517H36.03C36.03 1.34375 36.03 1.34375 36.1517 1.34375C36.2734 1.34375 36.5169 1.34375 36.7603 1.34375C36.7603 1.34375 36.3951 1.34375 36.2734 1.34375C36.3951 1.34375 36.3951 1.34375 36.5169 1.34375C36.3951 1.34375 36.3951 1.34375 36.3951 1.34375H36.2734C36.1517 1.46591 35.7865 1.46591 35.7865 1.34375C35.9082 1.46591 35.9082 1.46591 36.03 1.46591C35.9082 1.34375 35.7865 1.34375 35.7865 1.34375C35.7865 1.46591 35.9082 1.46591 35.9082 1.46591C35.7865 1.34375 35.6648 1.34375 35.7865 1.34375C35.6648 1.34375 35.6648 1.34375 35.7865 1.34375C35.6648 1.34375 35.6648 1.34375 35.7865 1.34375C35.6648 1.34375 35.6648 1.34375 35.6648 1.34375C35.6648 1.34375 35.6648 1.34375 35.7865 1.34375ZM27.7528 2.6875C27.8745 2.6875 27.8745 2.56534 27.9963 2.56534C27.8745 2.56534 27.7528 2.6875 27.7528 2.6875ZM25.927 7.81818C25.927 7.94034 25.927 7.94034 25.927 7.81818C25.8052 7.94034 25.927 7.81818 25.927 7.81818ZM25.8052 6.71875C25.8052 6.71875 25.8052 6.84091 25.8052 6.71875C25.8052 6.84091 25.6835 6.84091 25.8052 6.71875C25.6835 6.71875 25.6835 6.71875 25.8052 6.71875ZM25.5618 7.08523C25.6835 7.08523 25.6835 7.20739 25.5618 7.08523C25.5618 7.32955 25.5618 7.08523 25.5618 7.08523ZM24.7097 7.81818C24.7097 7.69602 24.7097 7.69602 24.7097 7.81818C24.8315 7.69602 24.8315 7.69602 24.7097 7.81818C24.7097 7.81818 24.7097 7.69602 24.7097 7.81818ZM25.0749 8.55114C25.0749 8.55114 25.1966 8.6733 25.0749 8.55114C25.1966 8.6733 25.1966 8.6733 25.0749 8.55114C25.1966 8.6733 25.1966 8.6733 25.1966 8.6733C24.9532 8.79545 25.0749 8.55114 25.0749 8.55114ZM25.1966 8.18466C25.3184 7.94034 25.1966 7.69602 24.9532 7.57386C24.8315 7.32955 24.8315 7.69602 24.588 7.57386C24.8315 7.32955 24.9532 7.32955 25.3184 7.57386C25.3184 7.69602 25.5618 7.94034 25.5618 8.0625C25.6835 8.0625 25.5618 8.18466 25.6835 8.30682C25.5618 8.42898 25.3184 8.18466 25.1966 8.18466ZM26.0487 8.79545C26.0487 8.6733 25.927 8.91761 25.8052 8.91761C25.8052 8.91761 25.5618 8.55114 25.4401 8.79545C25.3184 8.6733 25.8052 8.55114 25.8052 8.55114C25.8052 8.55114 25.8052 8.0625 25.927 8.18466C25.927 8.30682 26.0487 8.18466 26.1704 8.18466C26.2921 8.18466 26.2921 8.30682 26.4139 8.42898C26.4139 8.55114 26.4139 8.6733 26.4139 8.6733C26.2921 8.79545 26.0487 8.79545 26.0487 8.79545ZM26.5356 8.91761C26.5356 8.79545 26.779 8.91761 26.779 9.03977C26.6573 9.03977 26.4139 9.03977 26.5356 8.91761ZM39.5599 5.25284C39.5599 5.25284 39.3165 5.375 39.3165 5.25284C39.4382 5.25284 39.5599 5.25284 39.5599 5.25284ZM38.5861 5.13068C38.4644 5.13068 38.3427 5.13068 38.3427 5.13068C38.4644 5.13068 38.4644 5.13068 38.5861 5.13068ZM37.1255 4.64205V4.7642C37.1255 4.7642 36.7603 4.64205 36.7603 4.51989C36.882 4.64205 37.1255 4.64205 37.1255 4.64205ZM36.3951 3.90909C36.3951 4.03125 36.3951 4.03125 36.3951 3.90909C36.3951 4.03125 36.3951 4.03125 36.3951 4.15341C36.3951 4.15341 36.2734 4.03125 36.3951 3.90909C36.2734 4.03125 36.3951 4.03125 36.3951 3.90909ZM36.3951 4.27557C36.3951 4.27557 36.2734 4.27557 36.3951 4.27557C36.6386 4.15341 36.3951 4.64205 36.3951 4.27557ZM35.6648 4.27557C35.6648 4.39773 35.6648 4.27557 35.6648 4.27557V4.27557ZM34.8127 2.0767C34.8127 2.19886 34.8127 2.19886 34.8127 2.0767C34.8127 2.19886 34.8127 2.19886 34.9345 2.19886C34.9345 2.32102 34.8127 2.32102 34.8127 2.32102C34.9345 2.32102 35.1779 2.56534 35.1779 2.6875C35.2996 2.6875 35.2996 2.6875 35.1779 2.80966C35.1779 2.80966 35.1779 2.80966 35.2996 2.80966L34.5693 2.93182C34.5693 2.80966 34.8127 2.80966 34.8127 2.80966H34.5693L34.691 2.6875C34.8127 2.6875 34.8127 2.6875 34.8127 2.56534C34.691 2.56534 34.691 2.56534 34.691 2.44318H34.4476C34.4476 2.32102 34.5693 2.44318 34.4476 2.32102C34.4476 2.19886 34.4476 2.19886 34.4476 2.19886H34.3258H34.4476C34.5693 2.19886 34.8127 1.95455 34.8127 2.0767ZM34.5693 2.0767C34.5693 2.19886 34.4476 2.19886 34.5693 2.0767C34.3258 2.19886 34.5693 2.0767 34.5693 2.0767ZM34.0824 2.56534H34.2041C34.2041 2.44318 34.4476 2.44318 34.4476 2.44318C34.691 2.44318 34.4476 2.56534 34.4476 2.56534C34.4476 2.80966 34.3258 2.80966 34.0824 2.80966C33.9607 2.80966 34.2041 2.6875 34.0824 2.56534C34.2041 2.56534 34.2041 2.56534 34.0824 2.56534ZM28.4831 1.58807C28.4831 1.58807 28.3614 1.58807 28.4831 1.58807C28.4831 1.58807 28.3614 1.58807 28.4831 1.58807C28.3614 1.58807 28.3614 1.58807 28.4831 1.58807ZM28.3614 1.58807C28.2397 1.58807 28.6049 1.46591 28.4831 1.58807C28.3614 1.58807 28.2397 1.71023 28.3614 1.58807ZM28.6049 1.58807C28.4831 1.71023 28.4831 1.71023 28.6049 1.58807C28.4831 1.58807 28.3614 1.58807 28.3614 1.58807C28.4831 1.58807 28.4831 1.71023 28.6049 1.58807ZM27.8745 1.58807C27.9963 1.58807 28.118 1.58807 28.2397 1.58807C28.2397 1.58807 28.2397 1.58807 28.118 1.58807C27.9963 1.71023 27.9963 1.71023 27.8745 1.58807C27.9963 1.58807 27.9963 1.58807 27.9963 1.58807C27.8745 1.71023 27.8745 1.71023 27.8745 1.58807ZM27.3876 1.71023C27.3876 1.71023 27.2659 1.71023 27.3876 1.71023H27.5094C27.5094 1.71023 27.5094 1.71023 27.3876 1.71023C27.5094 1.71023 27.5094 1.71023 27.3876 1.71023C27.3876 1.71023 27.2659 1.71023 27.3876 1.71023C27.2659 1.71023 27.2659 1.71023 27.3876 1.71023ZM27.1442 1.71023C27.1442 1.71023 27.1442 1.83239 27.1442 1.71023C27.0225 1.71023 27.0225 1.71023 27.1442 1.71023ZM27.0225 1.71023L26.9007 1.83239C26.9007 1.71023 27.0225 1.71023 27.0225 1.71023ZM27.0225 1.83239C26.9007 1.83239 26.9007 1.83239 27.0225 1.83239C26.9007 1.83239 26.9007 1.83239 26.779 1.83239C26.779 1.83239 26.779 1.83239 27.0225 1.83239C26.9007 1.83239 26.9007 1.83239 27.0225 1.83239C26.9007 1.83239 26.9007 1.83239 27.0225 1.83239C26.9007 1.83239 26.9007 1.83239 27.0225 1.83239C26.9007 1.83239 26.9007 1.83239 27.0225 1.83239C27.1442 1.71023 27.2659 1.83239 27.3876 1.83239C27.2659 1.83239 27.5094 1.83239 27.5094 1.83239C27.3876 1.83239 27.6311 1.83239 27.6311 1.83239C27.3876 1.83239 27.1442 1.83239 27.0225 1.83239ZM27.6311 1.83239C27.5094 1.83239 27.5094 1.83239 27.6311 1.83239C27.5094 1.83239 27.6311 1.83239 27.6311 1.83239ZM27.3876 2.19886C27.2659 2.19886 27.6311 2.0767 27.6311 2.19886C27.6311 2.19886 27.2659 2.19886 27.3876 2.19886ZM27.7528 1.95455C27.8745 1.95455 27.8745 1.95455 27.7528 1.95455C27.8745 1.95455 27.8745 1.95455 27.7528 1.95455C27.7528 2.0767 27.5094 2.0767 27.5094 1.95455C27.5094 1.95455 27.6311 1.95455 27.7528 1.95455C27.5094 1.95455 27.8745 1.95455 27.8745 1.95455C27.8745 1.95455 27.8745 1.95455 27.7528 1.95455ZM27.8745 1.83239H27.9963C27.9963 1.71023 27.8745 1.71023 27.8745 1.83239C27.8745 1.71023 27.8745 1.71023 27.8745 1.83239H27.7528C27.7528 1.83239 27.7528 1.83239 27.8745 1.83239C27.7528 1.83239 27.7528 1.83239 27.7528 1.83239C27.7528 1.71023 27.8745 1.71023 27.8745 1.83239C27.8745 1.71023 27.8745 1.71023 27.8745 1.83239C27.8745 1.71023 27.9963 1.83239 27.9963 1.71023C27.9963 1.71023 27.8745 1.71023 27.8745 1.83239C27.9963 1.71023 28.2397 1.71023 28.2397 1.71023C28.118 1.83239 27.8745 1.83239 27.8745 1.83239ZM28.118 1.83239C28.2397 1.83239 28.2397 1.83239 28.3614 1.83239H28.118ZM28.6049 1.83239C28.6049 1.83239 28.2397 1.83239 28.3614 1.83239C28.3614 1.83239 28.3614 1.83239 28.2397 1.83239H28.118C28.2397 1.71023 28.6049 1.71023 28.6049 1.83239C28.6049 1.71023 28.6049 1.71023 28.6049 1.83239C28.6049 1.71023 28.6049 1.71023 28.6049 1.83239C28.6049 1.83239 29.3352 1.71023 29.3352 1.83239C29.0918 1.83239 28.8483 1.71023 28.6049 1.83239ZM29.2135 1.83239C29.2135 1.83239 29.0918 1.83239 29.2135 1.83239C29.2135 1.71023 29.3352 1.83239 29.4569 1.83239C29.3352 1.83239 29.2135 1.83239 29.2135 1.83239ZM29.5786 1.58807C29.4569 1.71023 29.0918 1.58807 28.8483 1.58807H28.97C28.8483 1.58807 29.0918 1.58807 29.2135 1.58807C29.0918 1.58807 29.0918 1.58807 28.97 1.58807H28.7266C28.8483 1.58807 28.8483 1.58807 28.97 1.58807C28.97 1.58807 28.8483 1.58807 28.7266 1.58807C28.6049 1.58807 28.6049 1.58807 28.6049 1.58807H28.7266C28.7266 1.58807 28.7266 1.58807 28.6049 1.58807H28.7266H28.8483C28.97 1.58807 29.0918 1.71023 29.0918 1.58807C29.2135 1.58807 29.2135 1.58807 29.3352 1.58807C29.3352 1.58807 29.3352 1.58807 29.2135 1.58807C29.2135 1.58807 29.3352 1.58807 29.2135 1.58807C29.0918 1.58807 29.0918 1.58807 29.0918 1.58807C29.0918 1.58807 29.0918 1.58807 29.2135 1.58807H29.0918H29.2135H29.0918C29.0918 1.58807 29.0918 1.58807 29.2135 1.58807H29.0918C29.3352 1.34375 30.1873 1.22159 30.4307 1.34375C30.309 1.34375 30.6742 1.34375 30.6742 1.34375H30.4307H30.5524C30.309 1.34375 30.0655 1.34375 29.9438 1.46591C29.9438 1.46591 29.9438 1.46591 29.8221 1.46591C29.8221 1.58807 29.8221 1.58807 29.5786 1.58807C29.7004 1.58807 29.5786 1.58807 29.5786 1.58807ZM29.3352 3.78693C29.2135 3.78693 29.0918 3.78693 29.0918 3.66477C29.2135 3.66477 29.2135 3.66477 29.3352 3.78693ZM28.8483 4.03125C28.8483 4.03125 28.97 4.03125 28.8483 4.03125C28.97 4.03125 28.97 4.03125 29.0918 4.03125C29.0918 4.15341 28.8483 4.03125 28.8483 4.03125ZM29.2135 4.15341L29.3352 4.03125C29.3352 4.03125 29.2135 4.03125 29.3352 4.03125C29.3352 4.15341 29.2135 4.15341 29.2135 4.15341ZM29.7004 4.03125L29.4569 4.15341C29.5787 4.03125 29.5786 4.03125 29.7004 4.03125C29.5786 4.03125 29.0918 4.03125 29.0918 4.03125C29.0918 4.03125 29.2135 4.03125 29.2135 3.90909C29.3352 3.90909 29.5786 3.54261 29.7004 3.54261L29.5786 3.78693H29.7004C29.7004 3.78693 29.7004 3.78693 29.8221 3.78693H29.9438C29.8221 3.78693 29.8221 3.78693 29.7004 4.03125C29.8221 3.90909 29.8221 3.90909 29.8221 3.90909C29.8221 3.90909 29.8221 3.90909 29.7004 4.03125C29.8221 4.03125 29.8221 4.03125 29.8221 4.03125C29.8221 4.15341 29.8221 4.03125 29.7004 4.03125ZM32.2566 1.95455C32.2566 2.0767 32.0131 1.83239 32.0131 1.95455C32.0131 1.95455 32.2566 1.95455 32.2566 2.0767H32.0131H32.2566C32.0131 2.19886 31.7697 2.19886 31.6479 2.19886C31.5262 2.19886 31.4045 2.32102 31.2828 2.32102C31.161 2.32102 30.9176 2.6875 30.9176 2.6875C30.9176 2.6875 30.4307 2.56534 30.6742 2.44318C30.6742 2.44318 30.5524 2.44318 30.5524 2.32102C30.5524 2.19886 30.6742 2.19886 30.7959 2.19886H30.6742H30.7959C30.7959 2.19886 30.6742 2.0767 30.6742 2.19886C30.7959 2.0767 30.4307 2.0767 30.309 2.0767H30.1873C30.1873 2.0767 30.1873 2.0767 30.0655 2.0767C30.0655 2.0767 30.1873 2.0767 30.309 2.0767H30.0655C30.0655 1.95455 30.309 2.0767 30.4307 1.95455H30.309C30.309 1.83239 30.9176 1.83239 30.9176 1.83239H31.0393H31.2828C31.2828 1.83239 31.2828 1.83239 31.161 1.83239C31.161 1.83239 31.161 1.83239 31.2828 1.83239C31.7697 1.71023 32.3783 1.71023 32.8652 1.71023C32.8652 1.71023 32.7434 1.71023 32.7434 1.83239H32.8652L32.6217 1.95455L33.5955 1.83239C33.5955 1.83239 33.3521 1.83239 33.2303 1.95455C33.2303 1.95455 32.8652 2.0767 32.7434 2.0767H32.8652H32.9869C32.9869 2.19886 32.7434 2.0767 32.7434 2.0767H32.8652H32.7434H32.8652C32.5 1.83239 32.3783 1.83239 32.2566 1.95455C32.3783 1.83239 32.3783 1.83239 32.3783 1.83239C32.2566 1.95455 32.1348 1.83239 32.1348 1.83239C32.1348 1.83239 32.2566 1.83239 32.2566 1.95455ZM32.3783 2.0767H32.5H32.3783C32.5 1.95455 32.5 1.95455 32.5 1.95455C32.5 2.0767 32.5 1.95455 32.6217 1.95455H32.7434H33.1086C32.9869 1.95455 33.1086 2.0767 33.1086 2.0767C32.8652 2.32102 32.6217 2.19886 32.3783 2.0767C32.3783 2.19886 32.3783 2.19886 32.3783 2.0767C32.5 2.19886 32.5 2.19886 32.3783 2.0767C32.3783 2.0767 32.3783 2.19886 32.3783 2.0767ZM40.5337 11.9716C40.5337 12.0938 40.412 12.2159 40.412 12.3381C40.412 12.4602 40.412 12.7045 40.412 12.8267C40.412 12.9489 40.6554 13.1932 40.5337 13.3153C40.2903 13.804 40.7772 14.1705 40.1685 14.5369C40.0468 14.6591 39.8034 14.7812 39.6816 15.0256C39.3165 15.1477 39.6816 15.5142 39.6816 15.6364C39.6816 16.0028 39.5599 15.8807 39.3165 16.125C39.073 16.3693 39.3165 16.4915 39.073 16.7358C38.8296 16.9801 38.8296 17.2244 38.5861 17.4688C38.4644 17.5909 38.0992 17.7131 38.0992 17.8352C37.8558 17.8352 37.7341 17.8352 37.6124 17.9574C37.4906 18.0795 37.2472 17.9574 37.1255 17.9574C37.1255 17.3466 36.6386 16.858 36.5169 16.125C36.5169 15.7585 36.5169 15.7585 36.2734 15.392C36.1517 15.1477 36.03 14.7812 36.03 14.4148C36.03 14.1705 36.2734 14.0483 36.2734 13.804C36.2734 13.5597 36.2734 13.1932 36.1517 12.9489C36.03 12.7045 36.03 12.4602 35.9082 12.2159C35.7865 11.9716 35.4213 11.7273 35.5431 11.483C35.6648 10.9943 35.7865 10.6278 35.1779 10.6278C34.9345 10.6278 35.0562 10.2614 34.8127 10.2614C34.5693 10.2614 34.2041 10.6278 33.9607 10.6278C33.8389 10.6278 33.7172 10.5057 33.7172 10.5057C33.5955 10.5057 33.4738 10.6278 33.3521 10.6278C33.1086 10.75 32.8652 10.5057 32.7434 10.2614C32.8652 10.1392 32.8652 9.77273 32.6217 9.52841C32.5 9.40625 32.3783 9.28409 32.2566 9.16193C32.2566 9.03977 32.1348 8.79545 32.2566 8.6733C32.3783 8.55114 32.3783 8.30682 32.3783 8.18466C32.3783 7.94034 32.2566 7.57386 32.3783 7.32955C32.5 7.20739 32.5 6.96307 32.6217 6.84091C32.7434 6.59659 32.8652 6.35227 33.1086 6.23011C33.2303 6.23011 33.3521 6.10795 33.4738 5.86364C33.4738 5.74148 33.4738 5.49716 33.5955 5.375C33.7172 5.13068 33.8389 5.00852 34.0824 4.88636C34.2041 4.64205 34.4476 4.88636 34.8127 4.7642C35.0562 4.64205 35.2996 4.51989 35.5431 4.51989C35.6648 4.51989 35.9082 4.51989 36.03 4.51989C36.1517 4.51989 36.2734 4.39773 36.2734 4.51989H36.3951C36.3951 4.64205 36.2734 4.7642 36.2734 5.00852C36.2734 5.25284 36.5169 5.25284 36.7603 5.25284C36.882 5.25284 37.6124 5.9858 37.4906 5.49716C37.4906 5.00852 38.0992 5.375 38.3427 5.49716C38.5861 5.61932 38.7079 5.61932 38.9513 5.49716C39.073 5.375 39.3165 5.49716 39.4382 5.49716C39.5599 5.74148 39.5599 5.86364 39.4382 6.10795C39.3165 6.10795 39.1948 5.86364 39.1948 5.74148C39.1948 5.9858 39.4382 6.35227 39.5599 6.59659C39.6816 6.71875 39.6816 6.96307 39.8034 7.08523C39.9251 7.32955 39.9251 7.57386 40.0468 7.69602C40.1685 7.81818 40.2903 7.94034 40.2903 8.18466C40.412 8.42898 40.7771 8.6733 40.8989 8.91761C41.0206 9.28409 41.1423 9.28409 41.5075 9.16193C41.7509 9.16193 41.8727 9.03977 41.9944 8.91761C42.2378 9.40625 41.6292 10.2614 41.3858 10.6278C41.1423 11.2386 40.6554 11.483 40.5337 11.9716Z" fill="#00FFC3"/>
<path d="M38.7079 2.19885C38.8296 2.32101 39.073 2.56533 39.1948 2.68749C39.9251 3.29828 40.5337 4.03124 41.0206 4.88635C41.3858 5.37499 41.6292 5.86363 41.8727 6.47442C41.7509 6.35226 41.3858 6.10794 41.5075 6.47442C41.6292 6.71874 41.8727 6.71874 41.8727 6.96306C41.8727 6.96306 41.8727 6.8409 41.9944 6.8409C41.9944 6.96306 41.9944 7.08522 42.1161 7.08522C41.3858 5.13067 40.2903 3.42044 38.7079 2.19885Z" fill="#00FFC3"/>
<path d="M42.2378 8.3068C42.1161 7.94032 42.1161 7.45168 41.9944 7.08521C42.1161 7.57384 42.2378 7.94032 42.2378 8.3068Z" fill="#00FFC3"/>
<path d="M26.4139 2.19889C26.4139 2.19889 26.4139 2.19889 26.5356 2.19889C26.5356 2.07673 26.5356 2.19889 26.4139 2.19889Z" fill="#00FFC3"/>
<path opacity="0.3" d="M21.6667 25.4091H0V39.5796H21.6667V25.4091Z" fill="#00FFC3"/>
<path opacity="0.3" d="M7.54682 40.8011L5.47753 43H16.3109L14.1199 40.8011H7.54682Z" fill="#00FFC3"/>
<path opacity="0.3" d="M65 25.4091H43.3333V39.5796H65V25.4091Z" fill="#00FFC3"/>
<path opacity="0.3" d="M51.0019 40.8011L48.8109 43H59.6442L57.4532 40.8011H51.0019Z" fill="#00FFC3"/>
<path d="M18.9888 14.537C19.2322 14.537 19.4757 14.4148 19.7191 14.2926L19.9625 14.0483C20.3277 13.6818 20.3277 13.0711 19.9625 12.5824C19.5974 12.2159 18.9888 12.2159 18.5019 12.5824L18.2584 12.8267C17.8933 13.1932 17.8933 13.804 18.2584 14.2926C18.5019 14.4148 18.7453 14.537 18.9888 14.537Z" fill="#00FFC3"/>
<path d="M14.2416 19.3011C14.485 19.3011 14.7285 19.179 14.9719 19.0568L15.3371 18.6904C15.7022 18.3239 15.7022 17.7131 15.3371 17.2244C14.9719 16.858 14.3633 16.858 13.8764 17.2244L13.5112 17.5909C13.1461 17.9574 13.1461 18.5682 13.5112 19.0568C13.633 19.179 13.9981 19.3011 14.2416 19.3011Z" fill="#00FFC3"/>
<path d="M16.5543 16.858C16.7978 16.858 17.0412 16.7358 17.2846 16.6137L17.6498 16.2472C18.015 15.8807 18.015 15.2699 17.6498 14.7813C17.2846 14.4148 16.676 14.4148 16.1891 14.7813L15.824 15.1477C15.4588 15.5142 15.4588 16.125 15.824 16.6137C16.0674 16.858 16.3109 16.858 16.5543 16.858Z" fill="#00FFC3"/>
<path d="M11.8071 21.7443C12.0506 21.7443 12.294 21.6222 12.5375 21.5L12.9026 21.1335C13.2678 20.7671 13.2678 20.1563 12.9026 19.6676C12.5375 19.3011 11.9288 19.3011 11.4419 19.6676L11.0768 20.0341C10.7116 20.4006 10.7116 21.0114 11.0768 21.5C11.3202 21.6222 11.5637 21.7443 11.8071 21.7443Z" fill="#00FFC3"/>
<path d="M9.6161 23.9432C9.85955 23.9432 10.103 23.8211 10.3464 23.6989L10.5899 23.4546C10.9551 22.9659 10.9551 22.3551 10.5899 21.9887C10.2247 21.6222 9.6161 21.6222 9.12921 21.9887L8.88577 22.233C8.5206 22.5995 8.5206 23.2103 8.88577 23.5767C9.12921 23.8211 9.37266 23.9432 9.6161 23.9432Z" fill="#00FFC3"/>
<path d="M45.2809 14.1705C45.5243 14.4148 45.7678 14.4148 46.0112 14.4148C46.2547 14.4148 46.4981 14.2926 46.7416 14.1705C47.1067 13.804 47.1067 13.1932 46.7416 12.7045L46.4981 12.4602C46.133 12.0937 45.5243 12.0937 45.0375 12.4602C44.6723 12.8267 44.6723 13.4375 45.0375 13.9261L45.2809 14.1705Z" fill="#00FFC3"/>
<path d="M49.6629 18.5682L50.0281 18.9347C50.2715 19.179 50.515 19.179 50.7584 19.179C51.0019 19.179 51.2453 19.0568 51.4888 18.9347C51.8539 18.5682 51.8539 17.9574 51.4888 17.4688L51.1236 17.2244C50.7584 16.858 50.1498 16.858 49.6629 17.2244C49.2977 17.5909 49.2977 18.2017 49.6629 18.5682Z" fill="#00FFC3"/>
<path d="M52.0974 21.0113L52.4625 21.3778C52.706 21.6221 52.9494 21.6221 53.1929 21.6221C53.4363 21.6221 53.6798 21.5 53.9232 21.3778C54.2884 21.0113 54.2884 20.4005 53.9232 19.9119L53.5581 19.5454C53.1929 19.1789 52.5843 19.1789 52.0974 19.5454C51.7322 19.9119 51.7322 20.6449 52.0974 21.0113Z" fill="#00FFC3"/>
<path d="M47.3502 16.2472L47.7154 16.6137C47.9588 16.858 48.2022 16.858 48.4457 16.858C48.6891 16.858 48.9326 16.7358 49.176 16.6137C49.5412 16.2472 49.5412 15.6364 49.176 15.1477L48.6891 14.7813C48.324 14.4148 47.7154 14.4148 47.2285 14.7813C46.985 15.1477 46.985 15.7585 47.3502 16.2472Z" fill="#00FFC3"/>
<path d="M54.5318 23.4546L54.7753 23.6989C55.0187 23.9432 55.2622 23.9432 55.5056 23.9432C55.7491 23.9432 55.9925 23.8211 56.236 23.6989C56.6011 23.3324 56.6011 22.7216 56.236 22.233L55.8708 21.9887C55.5056 21.6222 54.897 21.6222 54.4101 21.9887C54.0449 22.3551 54.0449 22.9659 54.5318 23.4546Z" fill="#010002"/>
</g>
<defs>
<clipPath id="clip0_40_324">
<rect width="65" height="43" fill="white"/>
</clipPath>
</defs>
</svg>
