<svg width="33" height="40" viewBox="0 0 33 40" fill="none" xmlns="http://www.w3.org/2000/svg">
<path d="M15.0845 20.0975C15.0845 20.0975 14.7365 22.4344 15.2779 25.5893C15.2779 25.5893 12.8417 24.0313 11.9909 23.3302C11.9909 23.3302 10.8695 24.304 10.4054 24.6155C10.4054 24.6155 10.1347 23.8366 9.94138 23.6418L10.3668 23.0576H7.77584C7.77584 23.0576 5.3396 23.0576 4.06348 21.266C4.06348 21.266 4.72088 21.3439 4.91423 21.266L3.48343 19.8638L3.32875 19.2406L1.66592 17.41C1.66592 17.41 0.157775 15.3068 0.157775 12.6194H0.544479C0.544479 12.6194 -0.306269 11.0614 0.119105 8.25711L0.467138 8.33501C0.467138 8.33501 0.467138 5.25807 0.815171 4.20645L1.47257 4.47909C1.47257 4.47909 1.31789 3.23274 1.97528 2.53166C2.63268 1.83059 4.2955 0 6.69307 0C9.09063 0 10.0961 1.09056 10.0961 1.09056C10.0961 1.09056 8.04653 0 6.26769 0.895819C4.48886 1.79164 3.36742 2.37587 3.36742 3.62222C3.36742 4.86858 3.36742 5.8423 3.36742 5.8423L2.59401 5.56966C2.59401 5.56966 2.67135 7.78973 3.17406 8.37396L2.67135 8.4908C2.67135 8.4908 2.59401 11.8404 5.3396 13.2425C8.0852 14.6447 9.43866 16.0858 10.7535 17.6827C12.0682 19.2796 14.1564 19.747 15.0845 20.0975Z" fill="#161616"/>
<path d="M17.8301 20.0975C17.8301 20.0975 18.1782 22.4344 17.6368 25.5893C17.6368 25.5893 20.073 24.0313 20.9238 23.3302C20.9238 23.3302 22.0452 24.304 22.5092 24.6155C22.5092 24.6155 22.7799 23.8366 22.9733 23.6418L22.5479 23.0576H25.1388C25.1388 23.0576 27.5751 23.0576 28.8512 21.266C28.8512 21.266 28.1938 21.3439 28.0004 21.266L29.4312 19.8249L29.5859 19.2017L31.2487 17.3711C31.2487 17.3711 32.7569 15.2679 32.7569 12.5804H32.3702C32.3702 12.5804 33.2209 11.0225 32.7956 8.21816L32.4862 8.37396C32.4862 8.37396 32.4862 5.29702 32.1382 4.2454L31.4808 4.51804C31.4808 4.51804 31.6355 3.27169 30.9781 2.57061C30.3207 1.86953 28.6578 0 26.2603 0C23.8627 0 22.8573 1.09056 22.8573 1.09056C22.8573 1.09056 24.8681 0 26.647 0.895819C28.4258 1.79164 29.5473 2.37587 29.5473 3.62222C29.5473 4.86858 29.5473 5.8423 29.5473 5.8423L30.3207 5.56966C30.3207 5.56966 30.2433 7.78973 29.7406 8.37396L30.2433 8.4908C30.2433 8.4908 30.3207 11.8404 27.5751 13.2425C24.8681 14.6447 23.476 16.0858 22.1612 17.6827C20.8464 19.2796 18.7582 19.747 17.8301 20.0975Z" fill="#161616"/>
<path d="M1.70459 21.8889L2.43933 26.3291L5.22359 29.4839L4.48886 24.2258L1.70459 21.8889Z" fill="#161616"/>
<path d="M3.25143 28.4321L5.14628 30.1069L6.92512 33.067V32.0154L5.80368 28.4321L8.16257 31.9765L8.27858 34.3913L10.5988 38.1693L5.3783 32.8333L3.25143 28.4321Z" fill="#161616"/>
<path d="M5.53293 27.1081L7.42777 29.445V24.7322L5.3009 23.408L5.53293 27.1081Z" fill="#161616"/>
<path d="M8.16257 24.9661L9.168 26.3293H10.9855L11.6042 27.264V29.8346L10.5215 28.5104L10.7535 29.3283H10.1734L11.1402 31.081L8.74262 29.0946L8.16257 24.9661Z" fill="#161616"/>
<path d="M9.01328 30.4575L11.1788 33.7292L11.2948 32.2881L11.6429 31.6649L13.6537 39.3768C13.615 39.4157 9.43865 37.0398 9.01328 30.4575Z" fill="#161616"/>
<path d="M12.9576 32.9895L13.8084 35.7549V37.7802L14.7365 40.0003V35.0927L12.9576 32.9895Z" fill="#161616"/>
<path d="M12.803 31.8207L14.4271 33.846V31.0807L15.1232 30.3407V32.6386L16.8634 34.0408L16.4766 28.4711L15.5872 27.3806H13.6924L12.6483 26.4458L12.803 31.8207Z" fill="#161616"/>
<path d="M15.3165 33.6902V36.3387L16.7087 39.7662V34.9755L15.3165 33.6902Z" fill="#161616"/>
<path d="M17.6368 27.7701L17.7528 34.0798L18.8742 31.7039L18.9129 30.4965L20.073 29.9512L19.5316 30.9639V32.8724L21.3105 30.847V26.2122L17.6368 27.7701Z" fill="#161616"/>
<path d="M22.6639 25.9786L22.3546 29.484L21.3878 32.9504L23.36 31.0419V29.9513L24.9455 28.2766L24.0174 30.7693L23.9787 31.5482L27.7298 27.147L26.299 31.0809L29.7406 27.4197L30.166 25.5502L30.7847 25.0438L31.2101 22.1616L27.227 25.3554L27.2657 24.3038L24.3654 27.2639L24.6748 25.4333L22.6639 25.9786Z" fill="#161616"/>
<path d="M18.2555 35.2096L17.8688 37.3907L18.0235 40.0003L20.537 34.2748V32.9895L19.2609 34.7032L18.6422 36.417L18.2555 35.2096Z" fill="#161616"/>
<path d="M21.1171 34.0798L22.7413 32.5608L22.0839 34.7419V35.7935L20.9624 37.9747L21.1171 34.0798Z" fill="#161616"/>
<path d="M23.0506 33.963V36.2609L25.1388 32.8724V31.3145L23.0506 33.963Z" fill="#161616"/>
<path d="M25.4869 32.2883L25.2935 35.3263L27.0724 32.3272L26.763 32.1714L27.5364 30.8472L25.4869 32.2883Z" fill="#161616"/>
</svg>
