<svg width="166" height="202" viewBox="0 0 166 202" fill="none" xmlns="http://www.w3.org/2000/svg">
<path d="M51.5 27.4C51.5 27.5 51.6 27.5 51.5 27.4V27.4Z" fill="#603813"/>
<g filter="url(#filter0_d_19_43)">
<path d="M85.3 192.5L123.1 158.5L128.7 160.3L143.2 136.6L140.7 135.5L147.5 128.3L149 121.7L152 119.3L157.1 84.8L157.4 82.9L156.1 83.1C156.8 81.7 157.4 80.1 158.1 78.4C159.6 74.2 160.8 69 160.8 63.3V59.9C161.5 55.8 161.9 50.5 160.9 44.1L158.9 30.7L158.7 30.8C158.4 29 158 27.3 157.6 25.9L153.6 14.2L150.7 15.3C150.6 15.1 150.4 15 150.2 14.8L149.8 14.4C146.3 10.7 136.9 0.7 122.5 0.7C108.2 0.7 101.2 7.6 100 8.9H99.8C99.8 8.9 88.9 20.9 91.7 33.9C91.7 33.9 98.9 26.4 114.3 27.6H114.4C115 27.3 116.5 26.8 117.8 26.8C118.2 26.8 118.5 26.8 118.7 26.9H118.8C120.5 27.8 122.5 28.8 123.8 29.5V42.4L114.4 52.9L122.4 54.9C109.2 61.7 102.5 68.8 96.9 75.6C94.7 78.3 90.3 79.8 87.1 80.8C86.1 81.2 85.1 81.5 84.1 81.9L83 82.3L81.9 81.9C80.9 81.5 79.9 81.2 78.9 80.8C75.7 79.7 71.3 78.2 69.1 75.6C63.4 68.8 56.8 61.6 43.6 54.9L51.6 52.9L42.2 42.4V29.5C43.5 28.7 45.5 27.7 47.2 26.9L47.3 26.8C47.5 26.7 47.8 26.7 48.2 26.7C49.5 26.7 51 27.2 51.6 27.5C67 26.3 74.2 33.8 74.2 33.8C77 20.8 66.1 8.8 66.1 8.8C64.8 7.4 57.9 0.5 43.6 0.5C29.2 0.5 19.8 10.4 16.3 14.2L15.9 14.6C15.7 14.8 15.6 15 15.4 15.1L12.4 14L8.4 25.7C7.9 27.1 7.6 28.8 7.3 30.6L7.1 30.5L5.1 43.9C4.2 50.3 4.5 55.6 5.2 59.7V63.1C5.2 68.2 6.2 72.9 7.4 76.8C8.1 79.1 9 81.1 9.8 82.8L8.4 82.6L8.7 84.4L15.1 123.4L21 130.1L18.8 131.8L28.3 151L50.7 173.8L54.3 170.9C59.8 177.5 65 180.5 65.4 180.8L82.5 186.7L85.3 192.5ZM58.5 147.7V147.3L58.7 147.6L58.5 147.7Z" stroke="#00FFC3" stroke-opacity="0.29" stroke-miterlimit="10" shape-rendering="crispEdges"/>
</g>
<path d="M77.4 93.1C77.4 93.1 76 102.5 78.3 115.1C78.3 115.1 68.4 108.8 65 106.1C65 106.1 60.4 110 58.5 111.2C58.5 111.2 57.4 108.1 56.6 107.3L58.4 105H48C48 105 38.2 105 33 97.8C33 97.8 35.6 98.1 36.4 97.9L30.7 92.2L30 89.7L23.2 82.4C23.2 82.4 17.1 74 17.1 63.2H18.6C18.6 63.2 15.2 57 16.8 45.8L18.2 46.2C18.2 46.2 18.2 33.8 19.6 29.7L22.3 30.7C22.3 30.7 21.7 25.7 24.3 22.9C26.9 20.1 33.6 12.6 43.3 12.6C53 12.6 57 16.9 57 16.9C57 16.9 48.8 12.6 41.7 16.1C34.6 19.6 30 22 30 27.1C30 32.2 30 36 30 36L27 34.8C27 34.8 27.3 43.7 29.3 46L27.3 46.5C27.3 46.5 27 59.9 38 65.5C49 71.1 54.5 77 59.8 83.3C65.1 89.6 73.7 91.6 77.4 93.1Z" fill="#00FFC3"/>
<path d="M88.5 93.1C88.5 93.1 89.9 102.5 87.6 115.1C87.6 115.1 97.5 108.8 100.9 106.1C100.9 106.1 105.5 110 107.4 111.2C107.4 111.2 108.5 108.1 109.3 107.3L107.5 105H117.9C117.9 105 127.7 105 132.9 97.8C132.9 97.8 130.3 98.1 129.5 97.9L135.2 92.2L135.8 89.8L142.6 82.5C142.6 82.5 148.7 74.0999 148.7 63.2999H147.2C147.2 63.2999 150.6 57.1 149 45.9L147.6 46.2999C147.6 46.2999 147.6 33.9 146.2 29.7999L143.5 30.7999C143.5 30.7999 144.1 25.8 141.5 23C138.9 20.2 132.2 12.7 122.5 12.7C112.8 12.7 108.8 17 108.8 17C108.8 17 117 12.7 124.1 16.2C131.2 19.7 135.8 22.1 135.8 27.2C135.8 32.3 135.8 36.0999 135.8 36.0999L138.9 35C138.9 35 138.6 43.9 136.6 46.2L138.6 46.7C138.6 46.7 138.9 60.0999 127.9 65.6999C116.9 71.2999 111.4 77 106.1 83.3C100.8 89.6 92.2 91.6 88.5 93.1Z" fill="#00FFC3"/>
<path d="M23.4 100.2L26.4 118.1L37.6 130.7L34.7 109.5L23.4 100.2Z" fill="#00FFC3"/>
<path d="M58.8 147.5L58.5 147.7V147.3L58.8 147.5Z" fill="#00FFC3"/>
<path d="M29.6 126.5L37.2 133.1L44.5 145V140.8L39.9 126.5L49.5 140.7L49.9 150.4L59.3 165.4L38.2 144L29.6 126.5Z" fill="#00FFC3"/>
<path d="M38.9 121.1L46.5 130.5V111.6L37.9 106.3L38.9 121.1Z" fill="#00FFC3"/>
<path d="M49.5 112.6L53.4 117.9H60.8L63.4 121.8V132L58.9 126.8L59.9 129.9H57.5L61.5 137.1L51.8 129.1L49.5 112.6Z" fill="#00FFC3"/>
<path d="M58.8 147.5L58.5 147.7V147.3L58.8 147.5Z" fill="#00FFC3"/>
<path d="M66.3 153.9V154L66 153.5L66.3 153.9Z" fill="#00FFC3"/>
<path d="M80.8 174.2H80.7V174.1L80.8 174.2Z" fill="#00FFC3"/>
<path d="M52.8 134.5L61.5 147.6L62 141.9L63.4 139.5L71.4 170.4C71.4 170.4 54.6 160.8 52.8 134.5Z" fill="#00FFC3"/>
<path d="M80.8 174.2H80.7V174.1L80.8 174.2Z" fill="#00FFC3"/>
<path d="M66.3 153.9V154L66 153.5L66.3 153.9Z" fill="#00FFC3"/>
<path d="M68.7 144.8L72.2 155.7V163.9L75.9 172.7V153.2L68.7 144.8Z" fill="#00FFC3"/>
<path d="M80.8 174.2H80.7V174.1L80.8 174.2Z" fill="#00FFC3"/>
<path d="M66.3 153.9V154L66 153.5L66.3 153.9Z" fill="#00FFC3"/>
<path d="M68.1 140L74.7 148.1V137.1L77.6 134V143.2L84.6 148.8L82.9 126.6L79.3 122.3H71.7L67.6 118.5L68.1 140Z" fill="#00FFC3"/>
<path d="M80.8 174.2H80.7V174.1L80.8 174.2Z" fill="#00FFC3"/>
<path d="M78.3 147.6V158L83.9 171.8V152.7L78.3 147.6Z" fill="#00FFC3"/>
<path d="M87.7 123.7L88.2 149.1L92.6 139.6L92.8 134.6L97.6 132.6L95.3 136.5V144.2L102.5 136.2V117.6L87.7 123.7Z" fill="#00FFC3"/>
<path d="M107.9 116.6L106.7 130.7L102.8 144.5L110.8 136.8V132.6L117.1 125.8L113.4 135.8L113.2 138.9L128.4 121.3L122.6 137L136.5 122.4L138.2 114.9L140.8 112.8L142.5 101.3L126.3 114L126.5 109.9L114.7 121.7L116.1 114.4L107.9 116.6Z" fill="#00FFC3"/>
<path d="M90.2 153.5L88.6 162.4L89.2 172.8L99.4 149.8V144.7L94.2 151.5L91.8 158.5L90.2 153.5Z" fill="#00FFC3"/>
<path d="M101.6 149.1L108.3 143L105.6 151.6V156L101 164.7L101.6 149.1Z" fill="#00FFC3"/>
<path d="M109.5 148.6V157.8L117.9 144.2L118 138L109.5 148.6Z" fill="#00FFC3"/>
<path d="M119.3 141.9L118.5 154L125.8 142L124.5 141.4L127.6 136.1L119.3 141.9Z" fill="#00FFC3"/>
<defs>
<filter id="filter0_d_19_43" x="0.0408096" y="0" width="165.96" height="201.317" filterUnits="userSpaceOnUse" color-interpolation-filters="sRGB">
<feFlood flood-opacity="0" result="BackgroundImageFix"/>
<feColorMatrix in="SourceAlpha" type="matrix" values="0 0 0 0 0 0 0 0 0 0 0 0 0 0 0 0 0 0 127 0" result="hardAlpha"/>
<feOffset dy="4"/>
<feGaussianBlur stdDeviation="2"/>
<feComposite in2="hardAlpha" operator="out"/>
<feColorMatrix type="matrix" values="0 0 0 0 0 0 0 0 0 0 0 0 0 0 0 0 0 0 0.25 0"/>
<feBlend mode="normal" in2="BackgroundImageFix" result="effect1_dropShadow_19_43"/>
<feBlend mode="normal" in="SourceGraphic" in2="effect1_dropShadow_19_43" result="shape"/>
</filter>
</defs>
</svg>
