<svg width="187" height="61" viewBox="0 0 187 61" fill="none" xmlns="http://www.w3.org/2000/svg">
<g clip-path="url(#clip0_3_978)">
<path d="M22.9991 30.6485C22.9991 30.6485 22.4683 34.2123 23.2939 39.0234C23.2939 39.0234 19.5787 36.6475 18.2813 35.5784C18.2813 35.5784 16.5711 37.0633 15.8635 37.5385C15.8635 37.5385 15.4507 36.3505 15.1558 36.0536L15.8045 35.1626H11.8534C11.8534 35.1626 8.13815 35.1626 6.19207 32.4304C6.19207 32.4304 7.19459 32.5492 7.48945 32.4304L5.30749 30.2921L5.0716 29.3418L2.53581 26.5501C2.53581 26.5501 0.235906 23.3427 0.235906 19.2444H0.825625C0.825625 19.2444 -0.471757 16.8686 0.176934 12.592L0.707681 12.7108C0.707681 12.7108 0.707681 8.0185 1.23843 6.4148L2.24095 6.83057C2.24095 6.83057 2.00506 4.92989 3.00759 3.86076C4.01011 2.79163 6.5459 0 10.2022 0C13.8584 0 15.3917 1.6631 15.3917 1.6631C15.3917 1.6631 12.2662 0 9.55347 1.36611C6.84076 2.73223 5.13058 3.62317 5.13058 5.52386C5.13058 7.42454 5.13058 8.90945 5.13058 8.90945L3.95114 8.49367C3.95114 8.49367 4.06908 11.8793 4.83572 12.7702L4.06908 12.9484C4.06908 12.9484 3.95114 18.0565 8.13815 20.1947C12.3252 22.333 14.3892 24.5307 16.3942 26.9659C18.3993 29.4012 21.5837 30.1139 22.9991 30.6485Z" fill="#00FFC3"/>
<path d="M27.1861 30.6485C27.1861 30.6485 27.7168 34.2123 26.8912 39.0234C26.8912 39.0234 30.6065 36.6475 31.9039 35.5784C31.9039 35.5784 33.614 37.0633 34.3217 37.5385C34.3217 37.5385 34.7345 36.3505 35.0294 36.0536L34.3807 35.1626H38.3318C38.3318 35.1626 42.047 35.1626 43.9931 32.4304C43.9931 32.4304 42.9906 32.5492 42.6957 32.4304L44.8777 30.2327L45.1136 29.2824L47.6494 26.4907C47.6494 26.4907 49.9493 23.2833 49.9493 19.185H49.3595C49.3595 19.185 50.6569 16.8092 50.0082 12.5326L49.5365 12.7702C49.5365 12.7702 49.5365 8.0779 49.0057 6.4742L48.0032 6.88997C48.0032 6.88997 48.2391 4.98929 47.2366 3.92016C46.234 2.85102 43.6982 0 40.042 0C36.3857 0 34.8524 1.6631 34.8524 1.6631C34.8524 1.6631 37.919 0 40.6317 1.36611C43.3444 2.73223 45.0546 3.62317 45.0546 5.52386C45.0546 7.42454 45.0546 8.90945 45.0546 8.90945L46.234 8.49367C46.234 8.49367 46.1161 11.8793 45.3495 12.7702L46.1161 12.9484C46.1161 12.9484 46.234 18.0565 42.047 20.1947C37.919 22.333 35.796 24.5307 33.791 26.9659C31.7859 29.4012 28.6014 30.1139 27.1861 30.6485Z" fill="#00FFC3"/>
<path d="M2.59479 33.3806L3.71525 40.1518L7.96123 44.9629L6.84077 36.9444L2.59479 33.3806Z" fill="#00FFC3"/>
<path d="M4.95367 43.3591L7.8433 45.9132L10.556 50.4273V48.8236L8.84582 43.3591L12.4431 48.7642L12.62 52.4468L16.1583 58.2082L8.19713 50.0709L4.95367 43.3591Z" fill="#00FFC3"/>
<path d="M8.43299 41.3397L11.3226 44.9035V37.7165L8.07916 35.697L8.43299 41.3397Z" fill="#00FFC3"/>
<path d="M12.4431 38.073L13.9764 40.1519H16.7481L17.6916 41.5774V45.4975L16.0404 43.4781L16.3942 44.7254H15.5097L16.984 47.3982L13.3277 44.369L12.4431 38.073Z" fill="#00FFC3"/>
<path d="M13.7405 46.4478L17.0429 51.437L17.2198 49.2394L17.7506 48.289L20.8171 60.0495C20.7581 60.1089 14.3892 56.4857 13.7405 46.4478Z" fill="#00FFC3"/>
<path d="M19.7556 50.3086L21.053 54.5257V57.6143L22.4683 60.9999V53.516L19.7556 50.3086Z" fill="#00FFC3"/>
<path d="M19.5198 48.5268L21.9966 51.6154V47.3982L23.0581 46.2697V49.7741L25.7118 51.9124L25.1221 43.4187L23.7657 41.7556H20.8761L19.2839 40.3301L19.5198 48.5268Z" fill="#00FFC3"/>
<path d="M23.3529 51.3777V55.4166L25.4759 60.6435V53.3378L23.3529 51.3777Z" fill="#00FFC3"/>
<path d="M26.8912 42.3495L27.0682 51.9717L28.7783 48.3485L28.8373 46.5072L30.6065 45.6757L29.7809 47.22V50.1304L32.4936 47.0418V39.9736L26.8912 42.3495Z" fill="#00FFC3"/>
<path d="M34.5576 39.6172L34.0858 44.9629L32.6115 50.2492L35.6191 47.3387V45.6756L38.0369 43.1216L36.6216 46.923L36.5626 48.1109L42.2829 41.3991L40.1009 47.3981L45.3494 41.8149L45.9981 38.9639L46.9417 38.1917L47.5904 33.7964L41.5163 38.6669L41.5752 37.0632L37.1523 41.5773L37.6241 38.7857L34.5576 39.6172Z" fill="#00FFC3"/>
<path d="M27.8348 53.6942L27.2451 57.0204L27.4809 60.9999L31.3141 52.2687V50.3086L29.368 52.922L28.4245 55.5355L27.8348 53.6942Z" fill="#00FFC3"/>
<path d="M32.1987 51.9717L34.6755 49.6553L33.673 52.9815V54.5852L31.9628 57.9114L32.1987 51.9717Z" fill="#00FFC3"/>
<path d="M35.1473 51.7936V55.298L38.3318 50.1305V47.7546L35.1473 51.7936Z" fill="#00FFC3"/>
<path d="M38.8625 49.2394L38.5677 53.8723L41.2804 49.2988L40.8086 49.0612L41.9881 47.0417L38.8625 49.2394Z" fill="#00FFC3"/>
<path d="M137.051 19.7196L136.992 19.6602L136.874 19.7196H136.815V19.6602C136.933 19.6602 136.933 19.6008 136.933 19.5414V19.482C136.402 19.5414 135.4 19.2444 133.866 18.5316C132.687 17.9377 131.979 17.6407 131.802 17.7001V17.7595L133.571 19.6602L132.451 19.3038L132.333 19.3632V19.4226L132.392 19.482C132.923 19.8977 133.218 20.1353 133.218 20.3135C132.982 20.3729 132.805 20.5511 132.628 20.9075C132.274 21.6202 131.507 23.1051 130.21 25.3028C129.031 27.5005 128.087 28.9854 127.438 29.8763L126.318 32.1334L126.554 31.3018C127.556 27.1441 127.969 24.4713 127.792 23.1645H127.733C127.733 23.5803 127.674 23.8773 127.615 24.1149C127.261 25.2434 127.143 25.8968 127.143 26.1938H127.084L126.613 24.0555V23.8773C126.554 23.2239 126.554 22.036 126.672 20.4323L126.967 18.888L126.849 18.7098L123.782 18.888H123.723H123.664C121.954 19.8384 120.716 20.5511 119.89 20.9669C119.772 20.7887 119.654 20.6105 119.477 20.4917C119.123 20.2541 118.946 20.0165 118.887 19.7196L118.652 19.779H118.593C118.239 19.779 117.767 19.6602 117.059 19.4226C115.585 19.0662 114.7 18.8286 114.523 18.6504C113.993 18.4128 113.226 18.1753 112.165 17.9377H112.106C112.695 18.4128 113.108 18.7098 113.344 18.9474L108.98 18.7098L108.921 18.7692V19.0068C108.921 19.0662 109.098 19.185 109.393 19.3038V19.3632L108.096 19.6602V19.779C108.096 20.2541 107.683 21.2639 106.798 22.6894C106.208 24.1743 105.678 25.4216 105.265 26.4313V26.3719C105.442 25.1246 105.501 24.3525 105.501 23.9961L105.442 20.6105H105.383C104.852 22.1548 104.498 23.1645 104.262 23.6397C103.083 25.3622 102.198 26.8471 101.491 28.0944V28.1538L102.316 27.4411H102.375V27.5005C100.724 30.7673 99.7805 32.9055 99.6625 33.9153H99.6036V33.8559C99.6036 31.3612 100.016 28.5696 100.901 25.5404C101.727 23.7585 102.139 22.6894 102.139 22.2736V22.2142H102.08V22.2736C101.55 22.8676 101.314 23.2833 101.314 23.4021H101.255V22.2736L100.488 21.5608L98.8369 19.5414C98.0703 19.1256 97.7165 18.8286 97.7165 18.7098H97.6575C97.6575 18.9474 97.8934 19.3632 98.3652 19.8978C97.8344 19.6602 97.5396 19.482 97.3626 19.3632C94.9448 18.4722 93.2936 17.9971 92.2911 17.9971H92.2321V18.0565V18.1159C92.2911 18.1159 92.2911 18.1753 92.35 18.1753C92.2911 18.1753 92.2321 18.1753 92.2321 18.1753V18.1159V18.0565L89.7553 18.1159C89.2835 18.294 88.8117 18.3534 88.3989 18.3534L85.8041 18.2347L81.853 18.4128H80.9095L78.0199 18.5316L76.9584 18.4722C76.8404 18.4722 76.7814 18.4128 76.7814 18.3534H76.6045L76.5456 18.4128C76.5456 18.4722 76.6045 18.4722 76.6635 18.4722H76.7225L75.8379 21.9172C75.1302 21.5608 74.2457 21.0263 73.42 20.0759V20.0165L74.9533 20.7887L75.0123 20.7293C75.0123 20.5511 74.7764 20.3135 74.3046 19.9571C72.5944 18.6504 70.1176 17.9971 66.8742 17.9971H66.8152V18.0565C69.233 19.0662 70.5894 19.8384 71.0612 20.3135C71.9457 20.9075 72.4175 21.3827 72.4175 21.6202L70.6484 21.5015H70.5894L70.5304 21.5608C70.5894 21.6796 70.8843 21.8578 71.356 22.0954C71.2381 22.333 71.1201 22.927 71.0022 23.9367C70.9432 24.2337 70.2356 25.9562 68.8792 29.1042C68.5843 30.1139 68.2305 30.8267 67.9357 31.2424V31.3018H68.2305C67.6408 32.371 66.9921 33.4401 66.2255 34.628C65.5768 36.2317 65.164 37.0633 64.9871 37.0633C65.3999 33.0243 65.7537 30.5297 65.9306 29.52C66.1075 27.4411 66.2844 26.1344 66.4024 25.7186L66.2255 24.887V24.8276C66.4614 25.0652 66.6383 25.184 66.7562 25.184H66.8152C66.8742 25.184 66.9331 25.1246 66.9921 25.0058L66.9331 24.8276C66.6383 24.2931 66.5203 23.9961 66.5203 23.9367V23.8773H67.1101C67.228 23.8773 67.3459 23.9367 67.4639 23.9961H67.5229V22.6894C67.5229 22.3924 67.4639 22.2142 67.4049 22.2142C67.0511 21.9766 66.4614 21.2639 65.6358 20.1353L65.5178 20.1947L66.6972 22.0954C66.5793 22.0954 66.4024 22.036 66.1075 21.8578C64.8691 20.9669 64.1025 20.5511 63.6897 20.5511H63.6307V20.6105L64.7512 21.0857V21.1451H64.6922L64.2794 21.0857H64.1025C62.6872 21.2045 61.9795 21.3233 61.9795 21.4421V21.5015C62.0385 21.5015 62.3923 21.8578 63.1 22.5112H62.923C62.7461 22.5112 62.6282 22.5112 62.5102 22.5706L62.5692 22.7488C63.041 23.0458 63.2769 23.3427 63.2769 23.6397C62.982 26.3126 62.7461 27.7381 62.6872 27.9163C63.2769 28.4508 63.5717 28.8666 63.5717 29.0448C63.4538 29.0448 63.2769 29.1636 63.041 29.4012C63.041 29.5793 63.1589 29.9951 63.3948 30.6485L63.2769 32.7867C63.3948 33.4401 63.4538 33.7371 63.5128 33.7965C63.6897 35.9348 63.8666 38.0136 64.1025 39.9143L64.0435 41.1022H64.1025L69.1151 35.0438C70.6484 32.9055 72.2406 30.3515 73.8328 27.3817C74.1867 26.8471 74.6585 26.2532 75.0713 25.6592C74.9533 26.4907 74.7174 27.4411 74.4226 28.4508H74.4815V28.3914H74.5405V28.5696C74.4226 29.52 74.2457 29.9357 74.1277 29.9357L73.8918 31.777L72.5355 36.8257C72.2996 38.667 72.0637 39.9143 71.8278 40.5677V40.6271H71.8868C72.4175 40.2707 73.7149 39.6767 75.7199 38.964C77.0173 38.3106 79.9659 37.3009 84.6247 35.816C85.6862 35.4596 86.3939 35.1032 86.7477 34.7468C86.6887 34.628 86.6298 34.5686 86.5118 34.5686L86.04 34.628L84.1529 35.4596V35.4002L84.3888 35.1032L86.158 34.2123C87.5733 33.4995 88.6348 32.8461 89.3425 32.1928V32.1334C89.2245 32.1928 89.1066 32.1928 89.1066 32.2522C87.3374 32.7867 83.0914 33.7371 76.3686 35.0438H76.3097C77.3712 32.9649 77.9019 31.8958 77.9019 31.777H77.8429C77.3122 32.2522 77.0763 32.5492 77.0763 32.668H77.0173V32.6086L77.6071 31.1237L87.1015 26.1938V26.1344L86.04 26.1938C82.9145 26.5501 80.7915 26.8471 79.73 27.0847H79.6121V27.0253L82.3838 25.8968L79.907 26.6689H79.848L82.2658 22.2142L85.1555 21.6202L85.2734 21.6796H85.3324C86.099 21.4421 86.5118 21.2639 86.5118 21.0857C86.8656 20.9075 87.1015 20.7887 87.2784 20.6699C87.6912 20.6699 87.8682 20.5511 87.8682 20.3135H87.9271L88.0451 20.6699H88.104L93.5295 19.482L91.9962 25.9562C91.4655 27.0847 91.2296 27.7975 91.2296 27.9756V28.035H91.2885L92.6449 25.9562H92.7039L92.7628 26.075C91.7603 29.8169 91.1116 32.2522 90.9937 33.2619C90.9937 33.9153 90.4629 36.4099 89.4604 40.6865H89.5194C90.5219 38.1918 91.2885 36.4099 91.8193 35.3408C93.2936 32.2522 94.532 29.52 95.4755 27.2035V27.1441L95.0038 27.6193C95.7704 25.481 96.3601 24.1743 96.655 23.7585V25.184L96.596 28.1538V29.1042C96.655 33.7371 96.7729 36.3505 96.8909 36.8851V36.9445H96.9498L97.0088 35.9348H97.0678L97.5396 37.1821L100.665 41.1616H100.724L101.137 39.1422C101.137 38.7858 101.845 36.3505 103.319 31.9552L103.673 31.5394C103.791 32.7867 103.967 33.7371 104.203 34.2717C104.793 35.8754 105.914 37.5979 107.565 39.3797C107.683 39.4985 107.86 39.7361 108.037 40.1519C108.685 40.6271 109.039 40.9834 109.039 41.1616C109.157 41.1616 110.16 40.5677 112.047 39.3797C114.582 37.4197 116.234 36.2317 116.941 35.7566C117.767 35.222 118.357 34.6874 118.71 34.0935V34.0341L118.652 33.9747C118.18 34.0935 117.649 34.3311 117.177 34.5686H117.118V34.5092C118.062 33.8559 118.769 33.1431 119.241 32.4304C118.887 35.4596 118.475 38.7264 117.944 42.112H118.003L119.359 37.1821H119.418V37.2415L118.946 42.2308H119.005L119.064 42.1714C119.064 42.112 119.064 42.0526 119.123 42.0526C119.713 39.6173 120.303 38.0136 120.774 37.1821C121.305 35.7566 121.659 34.3311 121.777 32.8461C121.836 33.4401 121.954 33.7371 122.072 33.7371H122.131L122.249 31.7176C122.78 30.0545 123.192 28.5102 123.487 27.2035H123.546V27.2629L123.723 33.0837C123.782 33.5589 123.9 34.0341 124.077 34.3904L124.49 39.0234L124.549 39.6173H124.608V39.5579C124.844 39.3797 125.02 39.2015 125.138 38.964C126.79 36.4693 127.969 34.4498 128.677 32.9649C129.797 31.183 130.328 30.1139 130.269 29.6981C130.564 29.1042 130.682 28.7478 130.682 28.6884H130.741V28.7478C130.151 30.8861 129.62 32.9055 129.149 34.6874C128.854 36.2317 128.618 38.2512 128.559 40.7459H128.618C129.09 39.9737 129.62 39.0828 130.092 38.073C131.154 35.9941 132.038 33.9153 132.687 31.8958H132.746V31.9552L132.451 34.2123H132.51L132.982 32.4898C134.102 27.9756 135.105 24.5307 136.048 22.2736C136.815 21.0263 137.11 20.1947 137.051 19.7196ZM118.121 26.2532C117.767 28.2132 117.413 29.4012 117.059 29.9357C115.703 31.1237 115.054 31.7176 114.995 31.8364V31.8958L116.116 31.4206L116.234 31.48L116.057 31.8958C115.349 32.4304 113.521 33.4995 110.513 35.0438C109.924 35.519 109.57 35.7566 109.511 35.7566L108.98 35.519H108.921L108.98 35.7566V35.816H108.921L108.862 35.6972C107.86 34.0341 107.329 33.1431 107.329 33.0837C107.093 32.4304 106.975 32.074 106.916 32.074V31.8958H106.975L107.624 30.3515H107.683V30.4109L107.624 31.3612H107.683L108.155 29.8169L109.393 27.3223C109.924 25.8374 110.572 24.7089 111.339 23.8773V23.7585L110.631 23.5803V23.5209L110.808 23.4615C113.757 23.2833 115.231 23.2239 115.231 23.1645C115.231 22.9864 114.7 22.3924 113.639 21.4421V21.3827C114.111 21.3827 114.818 21.6796 115.703 22.333C116.411 22.927 117.118 23.7585 117.708 24.887C117.767 24.887 117.826 24.4119 117.944 23.5209H118.003L118.062 25.3622L118.121 26.2532ZM120.244 21.3233L120.185 21.2639H120.244C120.244 21.2639 120.244 21.2639 120.244 21.3233Z" fill="#00FFC3"/>
<path d="M71.415 19.1255V19.1849H71.4743L71.5928 18.9473V18.8879L71.415 19.1255Z" fill="#00FFC3"/>
<path d="M184.582 18.4722C184.523 18.4722 184.405 19.1255 184.287 20.4323L183.167 18.591H183.108V19.2443H183.049C183.049 19.1255 182.931 19.0067 182.636 18.9473H182.518C181.044 18.9473 178.567 19.3037 174.97 20.0165H174.911V19.9571C175.206 19.8383 175.324 19.7789 175.324 19.7195L172.611 20.4916V20.551L174.498 20.1353H174.557V20.1947C172.965 20.9074 171.313 21.8578 169.544 23.0457C169.426 23.1051 169.308 23.2239 169.131 23.2833L168.837 21.6796C168.66 20.9668 168.424 20.551 168.247 20.3729C167.952 19.5413 167.716 19.0661 167.598 19.0067C166.124 18.5316 165.121 18.294 164.709 18.294H164.65L164.591 18.3534L165.77 19.6007V19.6601C165.18 19.4819 164.532 19.3631 163.765 19.3631H162.645C162.055 19.3631 161.583 19.3631 161.288 19.3037V19.3631L161.465 19.4225C162.468 19.9571 163.116 20.2541 163.47 20.2541H164.237C164.237 20.4916 164.119 20.7292 163.824 21.0856C163.706 21.2638 163.588 21.442 163.47 21.7984L160.345 21.3232V21.2638L160.581 21.2044C160.581 21.0856 160.227 20.9668 159.578 20.9074C157.986 20.6104 157.042 20.3135 156.747 20.0165C156.394 19.8383 154.801 19.4819 152.03 18.9473C149.553 18.6504 147.548 18.3534 146.014 18.0564V18.1158C146.958 18.3534 147.371 18.5316 147.371 18.7098L144.422 18.6504V18.7098L146.014 19.2443V19.3037L143.833 20.0165V20.0759L144.481 20.1353H145.012V20.1947L144.245 20.4323V20.4916C144.481 20.7292 144.776 20.9668 145.13 21.2044C145.13 21.6202 144.835 22.3923 144.245 23.6396C143.656 26.3125 143.125 28.4508 142.535 29.9951C142.181 30.9454 141.827 32.9649 141.474 36.2317H141.533C141.71 36.1129 141.945 35.5189 142.24 34.5092H142.299V34.5686C142.063 35.6971 141.592 38.6075 140.766 43.3592H140.825C141.002 43.3592 142.358 40.6864 144.835 35.3407C145.602 33.3806 146.191 32.1927 146.604 31.7769H146.663C147.489 32.9055 148.845 34.3904 150.614 36.1723L149.081 36.2911V36.3505L150.909 37.479C157.278 41.1616 160.581 43.0028 160.699 43.0028V42.9435C159.755 41.5773 158.87 40.3894 158.163 39.3797C158.929 38.3699 159.637 37.3602 160.227 36.3505C160.404 36.0535 160.993 35.6377 161.878 35.1031C162.763 34.331 163.765 33.5588 165.003 32.7867H165.062L164.355 33.6776V33.737L167.48 31.5394H167.539L167.48 33.8558V34.6874C167.48 34.925 167.598 35.6377 167.775 36.7662C167.539 36.7662 167.126 36.5287 166.655 35.9941L166.95 36.5287C168.247 38.4293 168.955 39.7954 168.955 40.6864H169.014C169.367 40.033 169.544 39.3203 169.544 38.6075H169.603L169.662 38.6669C169.898 39.4391 170.075 39.8548 170.193 39.9142H170.252L169.957 39.1421C169.662 37.0632 169.426 34.5686 169.19 31.5988L169.249 30.5296V30.4702L169.073 28.4508L169.131 26.4313L169.014 25.0058V24.9464H169.073L169.603 25.8373H169.662L169.308 23.9366C170.547 23.7584 171.903 23.699 173.318 23.699L174.498 23.7584H175.677L175.324 25.0058C173.849 27.8568 173.142 29.6387 173.142 30.292H173.201L174.675 28.5101C174.675 30.1138 174.203 32.2521 173.201 35.1031C172.198 38.073 171.431 40.0924 170.901 41.221V41.2804L173.731 37.4196C173.967 36.885 174.734 35.9941 175.972 34.7468C177.152 33.5588 177.859 32.6679 178.154 32.0739C180.1 29.4011 181.103 27.9162 181.103 27.5598L181.044 27.3816L179.216 28.2726H179.157L179.216 27.9756C179.216 27.7974 179.157 27.6786 178.98 27.6786C179.039 27.441 179.216 27.0252 179.57 26.4907C180.454 24.59 181.103 23.1645 181.575 22.2735L182.518 22.3329C184.818 22.5111 186.351 22.6893 187.059 22.9269H187.118L187.177 22.8675C186.764 22.3329 185.938 20.9074 184.582 18.4722ZM145.425 32.3709C145.838 31.7769 146.132 31.4206 146.25 31.3018L146.486 31.5394L145.425 32.3709ZM150.496 27.9162C149.848 28.2726 148.668 28.5695 147.076 28.9259C147.843 27.3816 148.786 25.5403 149.907 23.4615C152.089 23.699 153.386 23.9366 153.799 24.1742L153.858 24.1148L153.74 23.2239V23.1645L155.214 24.7682C155.096 25.184 154.212 26.0155 152.56 27.2628C152.56 27.0846 152.678 26.8471 152.855 26.6095V26.5501C152.56 26.7283 151.794 27.144 150.496 27.9162ZM158.34 36.2911C158.045 37.2414 157.809 38.0136 157.573 38.6669C156.335 36.885 155.45 35.5189 154.978 34.6874V34.628C155.155 34.628 155.568 34.9249 156.158 35.4595H156.217C156.217 35.3407 156.099 35.1625 155.922 34.9249C153.032 32.1927 151.263 30.8266 150.555 30.8266V30.6484C152.678 30.292 155.745 28.4508 159.696 25.184L162.763 22.9863C162.586 23.4021 162.409 23.8178 162.173 24.293L162.232 24.3524C162.409 24.3524 162.821 24.0554 163.352 23.4021V23.699L158.34 36.2911ZM167.303 29.9357C166.596 30.4108 166.183 30.7078 166.006 30.7078H165.947L166.301 29.9357V29.8763H166.242L165.416 30.4108C164.237 30.9454 163.352 31.3612 162.821 31.6582H162.763L163.47 30.6484C165.062 27.738 165.947 26.1343 166.183 25.8967L166.301 26.1343C166.95 27.738 167.303 29.0447 167.303 29.9357Z" fill="#00FFC3"/>
</g>
<defs>
<clipPath id="clip0_3_978">
<rect width="187" height="61" fill="white"/>
</clipPath>
</defs>
</svg>
