<svg width="42" height="38" viewBox="0 0 42 38" fill="none" xmlns="http://www.w3.org/2000/svg">
<g clip-path="url(#clip0_43_2063)">
<path d="M41.4832 12.6326C41.4832 12.6326 41.4504 12.6155 41.4422 12.607L21.566 0.161834C21.2215 -0.0596412 20.7785 -0.0596412 20.4258 0.161834L0.541406 12.6155C0.221484 12.8115 0 13.1778 0 13.5951V36.8671C0 37.4974 0.492188 38 1.09102 38H40.909C41.5078 38 42 37.4889 42 36.8671V13.5951C42 13.1863 41.7949 12.837 41.4832 12.6326ZM39.818 35.0186L28.8422 28.0507L25.1836 25.7337H21L27.341 29.7628L36.7582 35.7341H5.2418L16.3078 28.7066L21 25.7252H16.8164L13.6336 27.744L2.18203 35.0186V15.4777L10.5 20.9975L14.4539 23.6212V20.9294L11.1809 18.7572L3.32227 13.544L21 2.46177L38.6777 13.5526L29.7035 19.5068L27.5461 20.9379V23.6297L30.0398 21.9771L39.818 15.4862V35.0186Z" fill="#015843"/>
<path d="M26.4553 15.5374V14.0637C26.4553 10.9375 24.0107 8.39905 21.0002 8.39905C17.9896 8.39905 15.5451 10.9375 15.5451 14.0637V15.5374C14.9381 15.5374 14.4541 16.0485 14.4541 16.6703V24.6008C14.4541 25.2226 14.9381 25.7337 15.5451 25.7337H26.4553C27.0623 25.7337 27.5463 25.2226 27.5463 24.6008V16.6703C27.5463 16.0399 27.0541 15.5374 26.4553 15.5374ZM17.7271 14.0637C17.7271 12.1897 19.1955 10.6649 21.0002 10.6649C22.8049 10.6649 24.2732 12.1897 24.2732 14.0637V15.5374H17.7271V14.0637ZM25.3643 23.4679H16.6361V17.8032H25.3643V23.4679Z" fill="#00FFC3"/>
</g>
<defs>
<clipPath id="clip0_43_2063">
<rect width="42" height="38" fill="white"/>
</clipPath>
</defs>
</svg>
