<svg width="11" height="17" viewBox="0 0 11 17" fill="none" xmlns="http://www.w3.org/2000/svg">
<path d="M11 7.24903C11 7.22052 11 7.19201 11 7.1635C10.9964 6.8962 10.7732 6.68593 10.5069 6.68949C10.2369 6.69306 10.0245 6.91402 10.0281 7.17775C10.0281 7.2027 10.0281 7.22408 10.0281 7.24903C10.0281 9.71884 7.99804 11.7325 5.5 11.7325C3.00196 11.7325 0.971859 9.72241 0.971859 7.24903C0.971859 7.21339 0.971859 7.18132 0.971859 7.14568C0.979058 6.87838 0.766688 6.66098 0.496728 6.65385C0.230366 6.65029 0.00719895 6.857 0 7.12429C0 7.16706 0 7.20626 0 7.24903C0 10.0895 2.20648 12.4274 5.01407 12.6734V16.0377H3.01636C2.7464 16.0377 2.53043 16.2515 2.53043 16.5188C2.53043 16.7861 2.7464 17 3.01636 17H7.98364C8.2536 17 8.46957 16.7861 8.46957 16.5188C8.46957 16.2515 8.2536 16.0377 7.98364 16.0377H5.98593V12.6698C8.78992 12.4274 11 10.0895 11 7.24903Z" fill="#00FFC3"/>
<path d="M5.44601 10.5136C7.24215 10.5136 8.70353 9.06667 8.70353 7.28826V3.22537C8.70353 1.44696 7.24215 0 5.44601 0C3.64987 0 2.18848 1.44696 2.18848 3.22537V7.28826C2.18848 9.06667 3.64987 10.5136 5.44601 10.5136ZM3.16034 3.22537C3.16034 1.97799 4.18619 0.962264 5.44601 0.962264C6.70582 0.962264 7.73167 1.97799 7.73167 3.22537V7.28826C7.73167 8.53564 6.70582 9.55136 5.44601 9.55136C4.18619 9.55136 3.16034 8.53564 3.16034 7.28826V3.22537Z" fill="#00FFC3"/>
</svg>
