<svg width="34" height="33" viewBox="0 0 34 33" fill="none" xmlns="http://www.w3.org/2000/svg">
<path d="M20.5405 4.58531H5.6689C5.14685 4.58531 4.7252 4.99448 4.7252 5.50108C4.7252 6.00767 5.14685 6.41684 5.6689 6.41684H20.5405C21.0626 6.41684 21.4842 6.00767 21.4842 5.50108C21.4842 4.99448 21.0626 4.58531 20.5405 4.58531Z" fill="black"/>
<path d="M20.5405 10.0799H5.6689C5.14685 10.0799 4.7252 10.4891 4.7252 10.9957C4.7252 11.5023 5.14685 11.9114 5.6689 11.9114H20.5405C21.0626 11.9114 21.4842 11.5023 21.4842 10.9957C21.4842 10.4891 21.0626 10.0799 20.5405 10.0799Z" fill="black"/>
<path d="M16.0228 15.581H5.6689C5.14685 15.581 4.7252 15.9902 4.7252 16.4968C4.7252 17.0034 5.14685 17.4125 5.6689 17.4125H16.0228C16.5449 17.4125 16.9665 17.0034 16.9665 16.4968C16.9665 15.9902 16.5449 15.581 16.0228 15.581Z" fill="black"/>
<path d="M13.1047 21.0821H5.6689C5.14685 21.0821 4.7252 21.4912 4.7252 21.9978C4.7252 22.5044 5.14685 22.9136 5.6689 22.9136H13.1047C13.6268 22.9136 14.0484 22.4979 14.0484 21.9978C14.0484 21.4912 13.6268 21.0821 13.1047 21.0821Z" fill="black"/>
<path d="M14.0886 26.5767H11.5051C10.9831 26.5767 10.5614 26.9858 10.5614 27.4924C10.5614 27.999 10.9831 28.4082 11.5051 28.4082H14.0886C14.6106 28.4082 15.0323 27.999 15.0323 27.4924C15.0323 26.9858 14.6106 26.5767 14.0886 26.5767Z" fill="black"/>
<path d="M26.2028 15.4966V2.64987C26.2028 1.18855 24.978 0 23.4787 0H2.73071C1.2248 0 0 1.18855 0 2.64987V24.6607C0 25.3686 0.281102 26.0311 0.80315 26.5312L6.66614 32.2206C7.1815 32.7207 7.86417 33 8.5937 33C8.5937 33 24.5697 33 24.9378 33C29.9374 33 34 29.0512 34 24.2061C34 19.7636 30.6 16.0941 26.2028 15.4966ZM6.90709 29.863L3.22598 26.2909H6.90709V29.863ZM8.79449 31.162V25.3751C8.79449 24.8685 8.37283 24.4594 7.85079 24.4594H1.8874V2.64987C1.8874 2.20173 2.2622 1.83153 2.73071 1.83153H23.4787C23.9405 1.83153 24.3154 2.19524 24.3154 2.64987V15.4316C19.6035 15.7434 15.8689 19.5493 15.8689 24.1996C15.8689 27.0378 17.2677 29.5578 19.4161 31.162H8.79449ZM24.9378 31.162C20.9823 31.162 17.763 28.038 17.763 24.1996C17.763 20.3611 20.9823 17.2372 24.9378 17.2372C28.8933 17.2372 32.1126 20.3611 32.1126 24.1996C32.1126 28.038 28.8933 31.162 24.9378 31.162Z" fill="black"/>
<path d="M26.2764 24.1931L28.224 22.3031C28.5921 21.9459 28.5921 21.3613 28.224 21.0041C27.8559 20.6469 27.2602 20.6469 26.8854 21.0041L24.9378 22.8941L22.9902 21.0041C22.622 20.6469 22.0264 20.6469 21.6516 21.0041C21.2835 21.3613 21.2835 21.9394 21.6516 22.3031L23.5992 24.1931L21.6516 26.0831C21.2835 26.4403 21.2835 27.0183 21.6516 27.382C22.0331 27.7522 22.6154 27.7392 22.9902 27.382L24.9378 25.492L26.8854 27.382C27.2602 27.7457 27.8693 27.7262 28.224 27.382C28.5921 27.0248 28.5921 26.4468 28.224 26.0831L26.2764 24.1931Z" fill="black"/>
</svg>
