<svg width="40" height="40" viewBox="0 0 40 40" fill="none" xmlns="http://www.w3.org/2000/svg">
<path d="M20 0C8.9725 0 0 8.9725 0 20C0 31.0275 8.9725 40 20 40C31.0275 40 40 31.0275 40 20C40 8.9725 31.0275 0 20 0ZM20 38.3334C9.89086 38.3334 1.66664 30.1091 1.66664 20C1.66664 9.89086 9.89086 1.66664 20 1.66664C30.1091 1.66664 38.3334 9.89086 38.3334 20C38.3334 30.1091 30.1091 38.3334 20 38.3334Z" fill="#015944"/>
<path d="M28.9167 5.94254C28.5203 5.71652 28.0158 5.85137 27.7851 6.24504L22.6142 15.0684C22.3808 15.465 22.513 15.9758 22.9096 16.2093C22.9119 16.2107 22.9143 16.212 22.9167 16.2134C23.8651 16.75 24.6667 18.4875 24.6667 20C24.6667 20.4603 25.0398 20.8334 25.5001 20.8334H35.8334C36.2936 20.8334 36.6668 20.4603 36.6668 20C36.6667 14.4167 33.4076 8.50004 28.9167 5.94254ZM26.2717 19.1667C26.0858 17.7767 25.4558 16.2258 24.4276 15.2708L28.7901 7.82746C32.1667 10.1375 34.6842 14.7583 34.9726 19.1666H26.2717V19.1667Z" fill="#00FFC3"/>
<path d="M28.25 33.5066L23.8334 24.6291C23.6285 24.217 23.1284 24.0489 22.7162 24.2538C22.7042 24.2597 22.6924 24.2659 22.6809 24.2725C22.1559 24.5658 20.6525 25 20 25C19.3475 25 17.8442 24.5658 17.3175 24.2725C16.9152 24.0488 16.4079 24.1935 16.1842 24.5958C16.1781 24.6067 16.1723 24.6179 16.1666 24.6291L11.75 33.5066C11.5522 33.9048 11.7018 34.3882 12.09 34.605C17.0028 37.3536 22.9906 37.3536 27.9034 34.605C28.294 34.3904 28.4467 33.9065 28.25 33.5066ZM13.6092 33.5183L17.3058 26.0792C18.1592 26.3925 19.2883 26.6667 19.9999 26.6667C20.7116 26.6667 21.8408 26.3925 22.6941 26.0792L26.3907 33.5183C22.4166 35.4625 17.5834 35.4616 13.6092 33.5183Z" fill="#00FFC3"/>
<path d="M17.3906 15.0764C17.389 15.0737 17.3874 15.071 17.3859 15.0683L12.2134 6.24494C11.9827 5.85229 11.4794 5.71752 11.0834 5.94244C6.59166 8.49995 3.33337 14.4166 3.33337 20C3.33337 20.4602 3.7065 20.8333 4.16673 20.8333H14.5042C14.9645 20.8333 15.3376 20.4602 15.3376 20C15.3376 18.4875 16.136 16.75 17.0801 16.2133C17.4797 15.9851 17.6188 15.4761 17.3906 15.0764ZM13.7292 19.1666H5.02751C5.31501 14.7591 7.83338 10.1382 11.2092 7.82823L15.5725 15.2716C14.545 16.2266 13.9167 17.7766 13.7292 19.1666Z" fill="#00FFC3"/>
<path d="M20 22.5C21.3807 22.5 22.5 21.3807 22.5 20C22.5 18.6193 21.3807 17.5 20 17.5C18.6193 17.5 17.5 18.6193 17.5 20C17.5 21.3807 18.6193 22.5 20 22.5Z" fill="#015944"/>
</svg>
