<svg width="20" height="20" viewBox="0 0 20 20" fill="none" xmlns="http://www.w3.org/2000/svg">
<path d="M8.215 8.31034L6.31658 10.2088M10.4931 10.5884L8.59468 12.4869M7.45563 16.6634C5.55722 18.5618 3.6588 18.1821 2.14007 16.6634C0.621335 15.1446 0.241652 13.2462 2.14007 11.3478C4.03848 9.44939 4.41817 9.0697 4.41817 9.0697L9.73373 14.3853C9.73373 14.3853 9.35405 14.765 7.45563 16.6634ZM10.4931 2.99477C12.3915 1.09636 14.2899 1.47604 15.8087 2.99477C17.3274 4.51351 17.7071 6.41192 15.8087 8.31034C13.9102 10.2088 13.5306 10.5884 13.5306 10.5884L8.215 5.27287C8.215 5.27287 8.59468 4.89319 10.4931 2.99477Z" stroke="#00FFC3"/>
</svg>
