<svg width="15" height="16" viewBox="0 0 15 16" fill="none" xmlns="http://www.w3.org/2000/svg">
<path d="M7.5 16C3.36383 16 0 12.6628 0 8.56162C0 5.69468 1.61489 3.13142 4.21596 1.87101C4.54149 1.71428 4.93085 1.85468 5.08404 2.18775C5.23723 2.52081 5.1 2.91917 4.77447 3.07591C2.63298 4.11427 1.30532 6.21387 1.30532 8.56162C1.30532 11.9281 4.08511 14.6677 7.5 14.6677C10.9149 14.6677 13.6947 11.9281 13.6947 8.56162C13.6947 6.19754 12.2904 4.02611 10.1138 3.02693C9.78511 2.87672 9.6383 2.48162 9.78511 2.1453C9.93192 1.80897 10.3181 1.65877 10.6468 1.81224C13.2926 3.02366 15 5.67509 15 8.56162C15 12.6628 11.6362 16 7.5 16Z" fill="#00FFC3"/>
<path d="M7.5 9.04163C7.13936 9.04163 6.84894 8.74449 6.84894 8.37551V0.666122C6.84894 0.297143 7.14255 0 7.5 0C7.86064 0 8.15107 0.297143 8.15107 0.666122V8.37551C8.15107 8.74449 7.86064 9.04163 7.5 9.04163Z" fill="#00FFC3"/>
</svg>
