<svg width="44" height="44" viewBox="0 0 44 44" fill="none" xmlns="http://www.w3.org/2000/svg">
<path opacity="0.3" d="M3.45844 38.9651V31.5871L5.07238 30.5496H7.60857V29.1662H4.61125L2.07506 30.8954V39.0804C1.26809 39.311 0.691681 40.1179 0.691681 41.0402C0.691681 42.193 1.61393 43.1153 2.76675 43.1153C3.91956 43.1153 4.84181 42.193 4.84181 41.0402C4.84181 40.0027 4.26541 39.311 3.45844 38.9651ZM2.76675 41.6166C2.4209 41.6166 2.07506 41.2708 2.07506 40.9249C2.07506 40.5791 2.4209 40.2332 2.76675 40.2332C3.11259 40.2332 3.45844 40.5791 3.45844 40.9249C3.45844 41.2708 3.11259 41.6166 2.76675 41.6166Z" fill="#00FFC3"/>
<path d="M4.03485 27.7829H7.60858V26.3995H4.03485C3.80429 25.5925 2.99732 25.0161 2.07507 25.0161C0.922252 25.0161 0 25.9384 0 27.0912C0 28.244 0.922252 29.1662 2.07507 29.1662C2.99732 29.1662 3.80429 28.5898 4.03485 27.7829ZM1.38338 27.0912C1.38338 26.7453 1.72922 26.3995 2.07507 26.3995C2.42091 26.3995 2.76676 26.7453 2.76676 27.0912C2.76676 27.437 2.42091 27.7829 2.07507 27.7829C1.72922 27.7829 1.38338 27.437 1.38338 27.0912Z" fill="#00FFC3"/>
<path opacity="0.3" d="M2.07507 23.6327C2.99732 23.6327 3.68901 23.0563 4.03485 22.2493H7.60858V20.8659H4.03485C3.80429 20.059 2.99732 19.4825 2.07507 19.4825C0.922252 19.4825 0 20.4048 0 21.5576C0 22.7104 0.922252 23.6327 2.07507 23.6327ZM2.07507 20.8659C2.42091 20.8659 2.76676 21.2118 2.76676 21.5576C2.76676 21.9035 2.42091 22.2493 2.07507 22.2493C1.72922 22.2493 1.38338 21.9035 1.38338 21.5576C1.38338 21.0965 1.72922 20.8659 2.07507 20.8659Z" fill="#00FFC3"/>
<path opacity="0.3" d="M7.60858 23.6327H4.84183V25.0161H7.60858V23.6327Z" fill="#00FFC3"/>
<path opacity="0.3" d="M7.60858 17.9839H4.84183V19.3673H7.60858V17.9839Z" fill="#00FFC3"/>
<path opacity="0.3" d="M7.60858 15.2172H0V16.6005H7.60858V15.2172Z" fill="#00FFC3"/>
<path d="M5.30296 13.8338H7.72387V12.4504H5.87937L4.15015 10.8365V9.56836C4.95712 9.3378 5.53353 8.53083 5.53353 7.60858C5.53353 6.45576 4.61127 5.53351 3.45846 5.53351C2.30564 5.53351 1.38339 6.45576 1.38339 7.60858C1.38339 8.53083 1.9598 9.22252 2.76677 9.56836V11.4129L5.30296 13.8338ZM3.45846 6.91689C3.8043 6.91689 4.15015 7.26273 4.15015 7.60858C4.15015 7.95442 3.8043 8.30026 3.45846 8.30026C3.11261 8.30026 2.76677 8.0697 2.76677 7.60858C2.76677 7.14745 3.11261 6.91689 3.45846 6.91689Z" fill="#00FFC3"/>
<path opacity="0.3" d="M12.4504 5.87938V7.60861H13.8338V5.30298L11.4129 2.76678H0V4.15016H10.8365L12.4504 5.87938Z" fill="#00FFC3"/>
<path opacity="0.3" d="M15.2172 3.1126V7.60858H16.6005V2.53619L14.1796 0H0V1.38338H13.6032L15.2172 3.1126Z" fill="#00FFC3"/>
<path opacity="0.3" d="M19.3673 4.8418H17.9839V7.60855H19.3673V4.8418Z" fill="#00FFC3"/>
<path opacity="0.3" d="M27.7829 0H26.3995V7.60858H27.7829V0Z" fill="#00FFC3"/>
<path d="M20.866 4.03487V7.60859H22.2493V5.18768L23.6327 6.57106V7.72387H25.0161V5.99465L22.8257 3.8043C23.2869 3.45846 23.6327 2.88205 23.6327 2.19036C23.6327 1.03755 22.7105 0.115295 21.5576 0.115295C20.4048 0.115295 19.4826 1.03755 19.4826 2.19036C19.4826 2.99733 20.059 3.8043 20.866 4.03487ZM21.5576 1.38339C21.9035 1.38339 22.2493 1.72924 22.2493 2.07508C22.2493 2.42093 21.9035 2.76677 21.5576 2.76677C21.2118 2.76677 20.866 2.42093 20.866 2.07508C20.866 1.72924 21.0965 1.38339 21.5576 1.38339Z" fill="#00FFC3"/>
<path opacity="0.3" d="M30.5496 4.49598L32.2788 2.76676H39.0804C39.311 3.34316 39.7721 3.80429 40.3485 4.03485V13.6032L38.6193 15.3324H35.3914V16.7158H39.1957L41.7319 14.1796V4.03485C42.5389 3.80429 43.1153 2.99732 43.1153 2.07507C43.1153 0.922252 42.193 0 41.0402 0C40.118 0 39.4263 0.576408 39.0804 1.38338H31.7024L29.1662 3.91957V7.72386H30.5496V4.49598ZM40.9249 1.38338C41.2708 1.38338 41.6166 1.72922 41.6166 2.07507C41.6166 2.42091 41.2708 2.76676 40.9249 2.76676C40.5791 2.76676 40.2333 2.42091 40.2333 2.07507C40.2333 1.72922 40.5791 1.38338 40.9249 1.38338Z" fill="#00FFC3"/>
<path d="M35.8525 8.41555L37.3512 9.91421V10.7212L35.7373 12.4504H35.2761V13.8338H36.3137L38.8499 11.2976V9.45308L36.3137 6.91689H35.8525C35.622 6.10992 34.815 5.53351 33.8928 5.53351C32.7399 5.53351 31.8177 6.45576 31.8177 7.60858C31.8177 8.76139 32.7399 9.68364 33.8928 9.68364C34.815 9.68364 35.622 9.22252 35.8525 8.41555ZM34.008 8.30026C33.6622 8.30026 33.3163 7.95442 33.3163 7.60858C33.3163 7.26273 33.6622 6.91689 34.008 6.91689C34.3539 6.91689 34.6997 7.26273 34.6997 7.60858C34.6997 7.95442 34.3539 8.30026 34.008 8.30026Z" fill="#00FFC3"/>
<path opacity="0.3" d="M43 17.9839H35.3914V19.3673H43V17.9839Z" fill="#00FFC3"/>
<path opacity="0.3" d="M41.6166 38.9651V23.2869L39.0804 20.7507H35.2762V22.1341H38.504L40.2333 23.8633V27.437L39.0804 26.2842H35.2762V27.6676H38.504L40.2333 29.3968V38.9651C39.4263 39.1957 38.8499 40.0027 38.8499 40.9249C38.8499 42.0777 39.7721 43 40.9249 43C42.0778 43 43 42.0777 43 40.9249C43 40.0027 42.4236 39.311 41.6166 38.9651ZM40.9249 41.6166C40.5791 41.6166 40.2333 41.2708 40.2333 40.9249C40.2333 40.5791 40.5791 40.2332 40.9249 40.2332C41.2708 40.2332 41.6166 40.5791 41.6166 40.9249C41.6166 41.2708 41.2708 41.6166 40.9249 41.6166Z" fill="#00FFC3"/>
<path d="M38.1582 23.6327H35.3914V25.0161H38.1582V23.6327Z" fill="#00FFC3"/>
<path d="M38.8499 31.5872L36.3137 29.051H35.2761V30.4343H35.7373L37.4665 32.1636V36.0831H30.5496V35.3914H29.1662V37.4665H37.4665V38.6193L35.7373 40.2333H34.5845C34.3539 39.4263 33.5469 38.8499 32.6247 38.8499C31.4719 38.8499 30.5496 39.7721 30.5496 40.925C30.5496 42.0778 31.4719 43 32.6247 43C33.5469 43 34.2386 42.4236 34.5845 41.6166H36.429L38.9652 39.0805V31.5872H38.8499ZM32.6247 41.6166C32.2788 41.6166 31.933 41.2708 31.933 40.925C31.933 40.5791 32.2788 40.2333 32.6247 40.2333C32.9705 40.2333 33.3164 40.5791 33.3164 40.925C33.3164 41.2708 32.9705 41.6166 32.6247 41.6166Z" fill="#00FFC3"/>
<path d="M13.8338 35.3914H12.4504V36.0831H8.87668C8.64612 35.2761 7.83915 34.6997 6.91689 34.6997C5.76408 34.6997 4.84183 35.622 4.84183 36.7748C4.84183 37.9276 5.76408 38.8498 6.91689 38.8498C7.83915 38.8498 8.53084 38.2734 8.87668 37.4665H13.8338V35.3914ZM6.91689 37.4665C6.57105 37.4665 6.22521 37.1206 6.22521 36.7748C6.22521 36.4289 6.57105 36.0831 6.91689 36.0831C7.26274 36.0831 7.60858 36.4289 7.60858 36.7748C7.60858 37.1206 7.37802 37.4665 6.91689 37.4665Z" fill="#00FFC3"/>
<path opacity="0.3" d="M27.7829 35.3914H26.3995V43H27.7829V35.3914Z" fill="#00FFC3"/>
<path opacity="0.3" d="M25.0161 35.3914H23.6327V43H25.0161V35.3914Z" fill="#00FFC3"/>
<path d="M20.866 36.4289L19.4826 37.8123V35.2761H18.0992V38.8498C17.2922 39.0804 16.7158 39.8874 16.7158 40.8096C16.7158 41.9625 17.6381 42.8847 18.7909 42.8847C19.9437 42.8847 20.866 41.9625 20.866 40.8096C20.866 40.1179 20.5201 39.5415 20.059 39.1957L22.2493 37.0053V35.2761H20.866V36.4289ZM18.6756 41.6166C18.3298 41.6166 17.9839 41.2708 17.9839 40.9249C17.9839 40.5791 18.3298 40.2332 18.6756 40.2332C19.0215 40.2332 19.3673 40.5791 19.3673 40.9249C19.4826 41.2708 19.1367 41.6166 18.6756 41.6166Z" fill="#00FFC3"/>
<path opacity="0.3" d="M16.6005 35.3914H15.2172V37.1206L13.1421 39.311V43H14.5255V39.8874L16.6005 37.697V35.3914Z" fill="#00FFC3"/>
<path opacity="0.3" d="M29.1662 34.008H30.5496V32.6247H32.6247V30.5496H34.008V29.1662H32.6247V27.7828H34.008V26.3994H32.6247V25.0161H34.008V23.6327H32.6247V22.2493H34.008V20.8659H32.6247V19.4826H34.008V18.0992H32.6247V16.7158H34.008V15.3324H32.6247V13.8338H34.008V12.4504H32.6247V10.3753H30.5496V8.99194H29.1662V10.3753H27.7828V8.99194H26.3994V10.3753H25.0161V8.99194H23.6327V10.3753H22.2493V8.99194H20.8659V10.3753H19.4826V8.99194H18.0992V10.3753H16.7158V8.99194H15.3324V10.3753H13.8338V8.99194H12.4504V10.3753H12.2198L10.3753 12.2198V12.4504H8.99194V13.8338H10.3753V15.2171H8.99194V16.6005H10.3753V17.9839H8.99194V19.3673H10.3753V20.7507H8.99194V22.134H10.3753V23.5174H8.99194V24.9008H10.3753V26.2842H8.99194V27.6675H10.3753V29.0509H8.99194V30.4343H10.3753V32.5094H12.4504V33.8927H13.8338V32.5094H15.2171V33.8927H16.6005V32.5094H17.9839V33.8927H19.3673V32.5094H20.7507V33.8927H22.134V32.5094H23.5174V33.8927H24.9008V32.5094H26.2842V33.8927H27.6675V32.5094H29.0509V34.008H29.1662ZM11.7587 31.2413V12.7962L12.7962 11.7587H31.2413V31.2413H11.7587Z" fill="#00FFC3"/>
<path d="M27.6675 18.3298L28.9356 17.0617L25.9383 14.0643L24.6702 15.3324C24.3244 15.1019 23.9785 14.9866 23.5174 14.8713V13.1421H19.3673V14.8713C19.0214 14.9866 18.5603 15.1019 18.2145 15.3324L16.9464 14.0643L13.949 17.0617L15.2171 18.3298C14.9866 18.6756 14.8713 19.0214 14.756 19.4826H13.0268V23.6327H14.756C14.8713 23.9786 14.9866 24.4397 15.2171 24.7855L13.949 26.0536L16.9464 29.0509L18.2145 27.7828C18.5603 28.0134 18.9061 28.1287 19.3673 28.244V29.9732H23.5174V28.244C23.8633 28.1287 24.3244 28.0134 24.6702 27.7828L25.9383 29.0509L28.9356 26.0536L27.6675 24.6702C27.8981 24.3244 28.0134 23.9786 28.1287 23.5174H29.8579V19.3673H28.1287C28.0134 19.0214 27.8981 18.6756 27.6675 18.3298ZM28.4745 22.2493H27.0911L26.9759 22.8257C26.8606 23.4021 26.63 23.9786 26.2842 24.555L25.9383 25.0161L26.9759 26.0536L25.9383 27.0912L24.9008 26.0536L24.4397 26.3995C23.8633 26.7453 23.2868 26.9759 22.7104 27.0912L22.134 27.2064V28.5898H20.7507V27.2064L20.1742 27.0912C19.5978 26.9759 19.0214 26.7453 18.445 26.3995L17.9839 26.0536L16.9464 27.0912L16.1394 25.9383L17.1769 24.9008L16.8311 24.4397C16.4852 23.8633 16.2547 23.2869 16.1394 22.7105L16.0241 22.134H14.6407V20.7507H16.0241L16.1394 20.1743C16.2547 19.5979 16.4852 19.0214 16.8311 18.445L17.1769 17.9839L16.1394 17.0617L17.1769 16.0241L18.2145 17.0617L18.6756 16.7158C19.252 16.37 19.8284 16.1394 20.4048 16.0241L20.9812 15.9088V14.5255H22.3646V15.9088L22.941 16.0241C23.5174 16.1394 24.0938 16.37 24.6702 16.7158L25.1314 17.0617L26.1689 16.0241L27.2064 17.0617L26.1689 18.0992L26.5147 18.5603C26.8606 19.1367 27.0911 19.7131 27.2064 20.2895L27.3217 20.866H28.7051V22.2493H28.4745Z" fill="#00FFC3"/>
<path d="M21.5576 17.9839C19.5978 17.9839 18.0992 19.4825 18.0992 21.4423C18.0992 23.4021 19.5978 24.9008 21.5576 24.9008C23.5174 24.9008 25.0161 23.4021 25.0161 21.4423C25.0161 19.5978 23.4021 17.9839 21.5576 17.9839ZM21.5576 23.6327C20.4048 23.6327 19.4826 22.7104 19.4826 21.5576C19.4826 20.4048 20.4048 19.4825 21.5576 19.4825C22.7104 19.4825 23.6327 20.4048 23.6327 21.5576C23.6327 22.7104 22.7104 23.6327 21.5576 23.6327Z" fill="#00FFC3"/>
</svg>
