<svg width="57" height="40" viewBox="0 0 57 40" fill="none" xmlns="http://www.w3.org/2000/svg">
<path d="M38.9269 24.4983L39.0659 24.2214L38.9269 23.8062C37.8147 22.0069 36.4244 20.4844 34.6171 19.3772C32.8098 18.2699 30.5854 17.7163 28.5001 17.7163C26.9708 17.7163 25.4415 17.9931 23.9123 18.5467L19.0464 13.8408L18.0732 14.8097L22.661 19.3772C22.522 19.3772 22.383 19.5156 22.383 19.5156C20.5757 20.6228 19.0464 22.1453 18.0732 23.9446L17.9342 24.2214L18.0732 24.4983C19.1854 26.2976 20.5757 27.8201 22.383 28.9273C24.1903 30.0346 26.4147 30.5882 28.5001 30.5882C30.0293 30.5882 31.5586 30.3114 33.0879 29.7578L37.9537 34.6021L38.9269 33.6332L34.3391 29.0657C34.4781 29.0657 34.6171 28.9273 34.6171 28.9273C36.4244 27.8201 37.9537 26.2976 38.9269 24.4983ZM37.6757 24.2214C36.7025 25.7439 35.3123 27.128 33.644 27.9585C34.4781 26.8512 34.8952 25.6055 34.8952 24.2214C34.8952 22.8374 34.4781 21.5917 33.644 20.4844C35.3123 21.3149 36.7025 22.5605 37.6757 24.2214ZM28.5001 29.2041C25.7196 29.2041 23.4952 26.9896 23.4952 24.2214C23.4952 23.1142 23.9123 22.0069 24.6074 21.1765L26.6927 23.2526C26.5537 23.5294 26.4147 23.9446 26.4147 24.2214C26.4147 25.4671 27.3879 26.436 28.6391 26.436C29.0562 26.436 29.3342 26.2976 29.6123 26.1592L31.6976 28.2353C30.7244 28.7889 29.6123 29.2041 28.5001 29.2041ZM28.5001 19.1003C31.2805 19.1003 33.5049 21.3149 33.5049 24.083C33.5049 25.1903 33.0879 26.2976 32.3927 27.128L30.3074 25.0519C30.4464 24.7751 30.5854 24.3599 30.5854 24.083C30.5854 22.8374 29.6123 21.8685 28.361 21.8685C27.944 21.8685 27.6659 22.0069 27.3879 22.1453L25.3025 20.0692C26.2757 19.5156 27.3879 19.1003 28.5001 19.1003ZM19.3244 24.2214C20.2976 22.699 21.6879 21.3149 23.3562 20.4844C22.522 21.5917 22.1049 22.8374 22.1049 24.2214C22.1049 25.6055 22.522 26.8512 23.3562 27.9585C21.6879 26.9896 20.2976 25.7439 19.3244 24.2214Z" fill="#00FFC3"/>
<path d="M0 0V40H57V0H0ZM55.0537 38.0623H1.94634V10.3806H55.1927V38.0623H55.0537ZM1.94634 8.58131V1.93772H55.1927V8.58131H1.94634Z" fill="#015944"/>
<path d="M6.53415 3.73703H3.75366V6.5052H6.53415V3.73703Z" fill="#015944"/>
<path d="M12.9293 3.73703H10.1488V6.5052H12.9293V3.73703Z" fill="#015944"/>
<path d="M19.1854 3.73703H16.4049V6.5052H19.1854V3.73703Z" fill="#015944"/>
</svg>
