<svg width="17" height="17" viewBox="0 0 17 17" fill="none" xmlns="http://www.w3.org/2000/svg">
<g clip-path="url(#clip0_95_515)">
<path d="M1.14865 8.50002H0C0 3.80586 3.80586 0 8.5 0C11.0959 0 13.5502 1.18694 15.1622 3.22005V1.95271H16.3108V5.97298H12.2905V4.82433H14.8673C13.5502 2.55 11.1266 1.14865 8.5 1.14865C4.44527 1.14865 1.14865 4.44528 1.14865 8.50002ZM15.8514 8.50002C15.8514 12.5548 12.5547 15.8514 8.5 15.8514C5.87342 15.8514 3.44977 14.45 2.13266 12.1757H4.70946V11.027H0.689189V15.0473H1.83784V13.78C4.75158 17.4595 10.1005 18.0798 13.78 15.1622C15.8131 13.5503 17 11.096 17 8.50002H15.8514Z" fill="#00FFC3"/>
</g>
<defs>
<clipPath id="clip0_95_515">
<rect width="17" height="17" fill="white"/>
</clipPath>
</defs>
</svg>
