<svg width="169" height="43" viewBox="0 0 169 43" fill="none" xmlns="http://www.w3.org/2000/svg">
<path d="M107 31.2477V0H64V31.2477H84.1563V40.3125H77.2761V43H93.724V40.3125H86.8438V31.2477H107ZM66.6875 2.6875H104.312V28.5602H66.6875V2.6875Z" fill="url(#paint0_linear_38_220)"/>
<path d="M65 19H47V36H30" stroke="#02DCA8"/>
<path d="M140 10H122V27H105" stroke="#02DCA8"/>
<path d="M38 24H0V43H38V24Z" fill="url(#paint1_linear_38_220)"/>
<path d="M169 0H131V19H169V0Z" fill="url(#paint2_linear_38_220)"/>
<circle cx="30.5" cy="36" r="2.5" fill="#02DCA8"/>
<circle cx="140.5" cy="9.5" r="2.5" fill="#02DCA8"/>
<defs>
<linearGradient id="paint0_linear_38_220" x1="85.5" y1="0" x2="85.5" y2="43" gradientUnits="userSpaceOnUse">
<stop stop-color="#00FFC3"/>
<stop offset="1" stop-color="#05BA8F"/>
</linearGradient>
<linearGradient id="paint1_linear_38_220" x1="19.0005" y1="41.7776" x2="19.0005" y2="24.4042" gradientUnits="userSpaceOnUse">
<stop stop-color="#00FFC3" stop-opacity="0.54"/>
<stop offset="0.9765" stop-color="#0D1513" stop-opacity="0"/>
</linearGradient>
<linearGradient id="paint2_linear_38_220" x1="150" y1="17.7776" x2="150" y2="0.404246" gradientUnits="userSpaceOnUse">
<stop stop-color="#00FFC3" stop-opacity="0.54"/>
<stop offset="0.9765" stop-color="#0D1513" stop-opacity="0"/>
</linearGradient>
</defs>
</svg>
