<svg width="17" height="17" viewBox="0 0 17 17" fill="none" xmlns="http://www.w3.org/2000/svg">
<g clip-path="url(#clip0_95_539)">
<path d="M15.6923 3.4H2.50423L4.845 0.9588L3.92308 0L0 4.08L3.92308 8.16L4.845 7.2012L2.50423 4.76H15.6923V15.64H2.61538V10.88H1.30769V15.64C1.30769 16.0007 1.44547 16.3466 1.69071 16.6017C1.93595 16.8567 2.26856 17 2.61538 17H15.6923C16.0391 17 16.3717 16.8567 16.617 16.6017C16.8622 16.3466 17 16.0007 17 15.64V4.76C17 4.39931 16.8622 4.05338 16.617 3.79834C16.3717 3.54329 16.0391 3.4 15.6923 3.4Z" fill="#05DEAB"/>
</g>
<defs>
<clipPath id="clip0_95_539">
<rect width="17" height="17" fill="white"/>
</clipPath>
</defs>
</svg>
