<svg width="17" height="17" viewBox="0 0 17 17" fill="none" xmlns="http://www.w3.org/2000/svg">
<g clip-path="url(#clip0_95_526)">
<path d="M6.07143 15.3809H3.64286C1.61905 15.3809 0 13.7619 0 11.7381V4.45237C0 2.42856 1.61905 0.809509 3.64286 0.809509H12.5476C14.5714 0.809509 16.1905 2.42856 16.1905 4.45237V6.88094C16.1905 7.1238 16.0286 7.2857 15.7857 7.2857C15.5429 7.2857 15.381 7.1238 15.381 6.88094V4.45237C15.381 2.91427 14.0857 1.61903 12.5476 1.61903H3.64286C2.10476 1.61903 0.809524 2.91427 0.809524 4.45237V11.7381C0.809524 13.2762 2.10476 14.5714 3.64286 14.5714H6.07143C6.31429 14.5714 6.47619 14.7333 6.47619 14.9762C6.47619 15.219 6.31429 15.3809 6.07143 15.3809Z" fill="#00FFC3"/>
<path d="M5.26191 2.42857C5.01905 2.42857 4.85715 2.26667 4.85715 2.02381V0.404762C4.85715 0.161905 5.01905 0 5.26191 0C5.50477 0 5.66667 0.161905 5.66667 0.404762V2.02381C5.66667 2.26667 5.50477 2.42857 5.26191 2.42857Z" fill="#00FFC3"/>
<path d="M10.9286 2.42857C10.6857 2.42857 10.5238 2.26667 10.5238 2.02381V0.404762C10.5238 0.161905 10.6857 0 10.9286 0C11.1714 0 11.3333 0.161905 11.3333 0.404762V2.02381C11.3333 2.26667 11.1714 2.42857 10.9286 2.42857Z" fill="#00FFC3"/>
<path d="M15.7857 5.66664H0.404762C0.161905 5.66664 0 5.50474 0 5.26188C0 5.01902 0.161905 4.85712 0.404762 4.85712H15.7857C16.0286 4.85712 16.1905 5.01902 16.1905 5.26188C16.1905 5.50474 16.0286 5.66664 15.7857 5.66664Z" fill="#00FFC3"/>
<path d="M12.5476 13.0333C12.4667 13.0333 12.3048 13.0333 12.2238 12.9524C12.0619 12.7905 12.0619 12.5476 12.2238 12.3857L13.4381 11.1714C13.6 11.0095 13.8429 11.0095 14.0048 11.1714C14.1667 11.3333 14.1667 11.5762 14.0048 11.7381L12.8714 12.9524C12.7905 13.0333 12.6286 13.0333 12.5476 13.0333Z" fill="#00FFC3"/>
<path d="M12.5476 17C10.1191 17 8.09525 14.9762 8.09525 12.5476C8.09525 10.119 10.1191 8.09521 12.5476 8.09521C14.9762 8.09521 17 10.119 17 12.5476C17 14.9762 14.9762 17 12.5476 17ZM12.5476 8.90474C10.5238 8.90474 8.90477 10.5238 8.90477 12.5476C8.90477 14.5714 10.5238 16.1905 12.5476 16.1905C14.5714 16.1905 16.1905 14.5714 16.1905 12.5476C16.1905 10.5238 14.5714 8.90474 12.5476 8.90474Z" fill="#00FFC3"/>
</g>
<defs>
<clipPath id="clip0_95_526">
<rect width="17" height="17" fill="white"/>
</clipPath>
</defs>
</svg>
