<svg width="40" height="40" viewBox="0 0 40 40" fill="none" xmlns="http://www.w3.org/2000/svg">
<path d="M12.258 20C11.1909 20 10.3225 20.8684 10.3225 21.9355C10.3225 23.0026 11.1909 23.871 12.258 23.871C13.3251 23.871 14.1935 23.0026 14.1935 21.9355C14.1935 20.8684 13.3251 20 12.258 20ZM12.258 22.5806C11.9019 22.5806 11.6128 22.291 11.6128 21.9355C11.6128 21.58 11.9019 21.2903 12.258 21.2903C12.6141 21.2903 12.9032 21.58 12.9032 21.9355C12.9032 22.291 12.6141 22.5806 12.258 22.5806Z" fill="#00FFC3"/>
<path d="M12.258 14.8387C13.3251 14.8387 14.1935 13.9704 14.1935 12.9033C14.1935 11.8362 13.3251 10.9678 12.258 10.9678C11.1909 10.9678 10.3225 11.8362 10.3225 12.9033C10.3225 13.9704 11.1909 14.8387 12.258 14.8387ZM12.258 12.2581C12.6141 12.2581 12.9032 12.5478 12.9032 12.9033C12.9032 13.2587 12.6141 13.5484 12.258 13.5484C11.9019 13.5484 11.6128 13.2587 11.6128 12.9033C11.6128 12.5478 11.9019 12.2581 12.258 12.2581Z" fill="#00FFC3"/>
<path d="M12.258 5.80651C13.3251 5.80651 14.1935 4.93813 14.1935 3.87103C14.1935 2.80393 13.3251 1.93555 12.258 1.93555C11.1909 1.93555 10.3225 2.80393 10.3225 3.87103C10.3225 4.93813 11.1909 5.80651 12.258 5.80651ZM12.258 3.22587C12.6141 3.22587 12.9032 3.51555 12.9032 3.87103C12.9032 4.22651 12.6141 4.51619 12.258 4.51619C11.9019 4.51619 11.6128 4.22651 11.6128 3.87103C11.6128 3.51555 11.9019 3.22587 12.258 3.22587Z" fill="#00FFC3"/>
<path d="M24.5161 20.6452V18.0645H23.2258V16.7742H24.5161V9.03226H23.2258V7.74194H24.5161V0H0V7.74194H1.29032V9.03226H0V16.7742H1.29032V18.0645H0V25.8064H20.6452V40H40V20.6452H24.5161ZM24.5161 21.9355H33.5484V27.0968H34.8387V21.9355H36.129V28.3871H24.5161V21.9355ZM1.29032 1.29032H23.2258V6.45161H21.9355V2.58065H20.6452V6.45161H19.3548V2.58065H18.0645V6.45161H16.7742V2.58065H15.4839V6.45161H9.03226V2.58065H7.74194V6.45161H6.45161V2.58065H5.16129V6.45161H3.87097V2.58065H2.58065V6.45161H1.29032V1.29032ZM21.9355 7.74194V9.03226H2.58065V7.74194H21.9355ZM1.29032 10.3226H23.2258V15.4839H21.9355V11.6129H20.6452V15.4839H19.3548V11.6129H18.0645V15.4839H16.7742V11.6129H15.4839V15.4839H9.03226V11.6129H7.74194V15.4839H6.45161V11.6129H5.16129V15.4839H3.87097V11.6129H2.58065V15.4839H1.29032V10.3226ZM21.9355 16.7742V18.0645H2.58065V16.7742H21.9355ZM20.6452 24.5161H19.3548V20.6452H18.0645V24.5161H16.7742V20.6452H15.4839V24.5161H9.03226V20.6452H7.74194V24.5161H6.45161V20.6452H5.16129V24.5161H3.87097V20.6452H2.58065V24.5161H1.29032V19.3548H23.2258V20.6452H22.3135L20.6452 22.3135V24.5161ZM36.129 38.7097H24.5161V34.1935C24.5161 33.8381 24.8052 33.5484 25.1613 33.5484H35.4839C35.84 33.5484 36.129 33.8381 36.129 34.1935V38.7097ZM38.7097 38.7097H37.4194V34.1935C37.4194 33.1264 36.551 32.2581 35.4839 32.2581H25.1613C24.0942 32.2581 23.2258 33.1264 23.2258 34.1935V38.7097H21.9355V22.8477L22.8477 21.9355H23.2258V29.6774H37.4194V21.9355H38.7097V38.7097Z" fill="#015944"/>
<path d="M11.9479 30.0762C12.142 29.7742 12.2582 29.4174 12.2582 29.0323C12.2582 27.9652 11.3898 27.0968 10.3227 27.0968C9.25559 27.0968 8.38721 27.9652 8.38721 29.0323C8.38721 30.0994 9.25559 30.9678 10.3227 30.9678C10.5343 30.9678 10.7349 30.9252 10.9259 30.862C13.0291 33.4607 15.9375 35.2291 19.233 35.8652L19.4775 34.5981C16.4937 34.022 13.8582 32.4245 11.9479 30.0762ZM10.3227 29.6774C9.96656 29.6774 9.67753 29.3878 9.67753 29.0323C9.67753 28.6768 9.96656 28.3871 10.3227 28.3871C10.6788 28.3871 10.9679 28.6768 10.9679 29.0323C10.9679 29.3878 10.6788 29.6774 10.3227 29.6774Z" fill="#00FFC3"/>
<path d="M33.4206 16.1124C33.1026 16.4575 32.9032 16.9143 32.9032 17.4195C32.9032 18.4866 33.7716 19.3549 34.8387 19.3549C35.9058 19.3549 36.7742 18.4866 36.7742 17.4195C36.7742 16.3524 35.9058 15.484 34.8387 15.484C34.7471 15.484 34.66 15.4988 34.5722 15.5111C32.809 12.0491 29.7039 9.44333 25.9903 8.33752L25.6226 9.5743C29.0006 10.5801 31.8187 12.9588 33.4206 16.1124ZM34.8387 16.7743C35.1948 16.7743 35.4839 17.064 35.4839 17.4195C35.4839 17.7749 35.1948 18.0646 34.8387 18.0646C34.4826 18.0646 34.1935 17.7749 34.1935 17.4195C34.1935 17.064 34.4826 16.7743 34.8387 16.7743Z" fill="#00FFC3"/>
</svg>
