<svg width="15" height="15" viewBox="0 0 15 15" fill="none" xmlns="http://www.w3.org/2000/svg">
<g clip-path="url(#clip0_21_318)">
<path d="M7.49999 13.6867C7.31938 13.6255 1.73265 11.8224 1.30408 3.49283C1.51837 3.50813 5.04795 3.83569 7.49999 1.54283C9.9153 3.80201 13.4816 3.50507 13.6959 3.49283C13.1694 12.0704 7.6806 13.6255 7.49999 13.6867ZM14.3479 2.15201C13.0408 2.35099 10.0714 2.48875 7.91632 0.180584C7.69285 -0.0612526 7.3102 -0.0612526 7.08673 0.180584C4.92857 2.48875 1.95918 2.35099 0.652039 2.15201C0.30306 2.09691 -0.0091844 2.37242 -7.33446e-07 2.72446C0.30306 13.4541 7.49999 15 7.49999 15C7.49999 15 14.6969 13.4571 15 2.72446C15.0092 2.37242 14.6969 2.09691 14.3479 2.15201Z" fill="#00FFC3"/>
</g>
<defs>
<clipPath id="clip0_21_318">
<rect width="15" height="15" fill="white"/>
</clipPath>
</defs>
</svg>
