<svg width="34" height="34" viewBox="0 0 34 34" fill="none" xmlns="http://www.w3.org/2000/svg">
<path fill-rule="evenodd" clip-rule="evenodd" d="M17 32.5834C8.5 28.7968 4.25 25.019 4.25 21.2501V7.08342C4.25 5.66675 4.95833 5.66675 7.08333 4.25008C7.31254 4.09728 12.1312 1.41675 17 1.41675C21.2433 1.41675 24.7917 2.83341 26.9167 4.25008C29.0417 5.66675 29.75 5.66675 29.75 7.08342C29.7874 7.49611 29.75 19.1251 29.75 21.2501C29.75 25.0279 25.5 28.8056 17 32.5834ZM26.9167 21.2501C26.9167 20.9238 26.9175 20.3771 26.9193 19.4859C26.9201 19.0557 26.9219 18.2221 26.925 16.7188C26.9268 15.8236 26.9282 15.0554 26.9295 14.3223C26.9347 11.1601 26.9333 8.44599 26.9302 7.60657C26.4617 7.3155 25.7305 6.86456 25.345 6.60756C23.2536 5.2133 20.2019 4.25008 17 4.25008C13.9373 4.25008 9.95723 5.73939 8.65498 6.60756C8.27318 6.86209 7.55231 7.30686 7.08333 7.59814V21.2501C7.08333 23.3871 10.2412 26.3058 17.0013 29.4696C23.7606 26.3129 26.9167 23.3953 26.9167 21.2501Z" fill="black"/>
</svg>
