<svg width="40" height="40" viewBox="0 0 40 40" fill="none" xmlns="http://www.w3.org/2000/svg">
<g clip-path="url(#clip0_63_439)">
<path d="M24.5663 16.4368L17.8221 23.181L15.4301 20.7807C14.9899 20.3405 14.2839 20.3405 13.8437 20.7807C13.4035 21.2209 13.4035 21.9269 13.8437 22.3671L17.0331 25.5564C17.249 25.7724 17.5397 25.8887 17.8221 25.8887C18.1045 25.8887 18.3952 25.7807 18.6111 25.5564L26.1444 18.0232C26.5846 17.583 26.5846 16.877 26.1444 16.4368C25.7125 15.9966 25.0065 15.9966 24.5663 16.4368Z" fill="#00FFC3"/>
<path d="M37.3237 13.3056C37.3237 11.5282 37.3237 9.75914 37.3237 7.98173C37.3237 7.17608 37.0081 6.1711 35.5214 5.98007C35.2058 5.93854 34.8902 5.90532 34.5829 5.86379C33.6194 5.75581 32.7141 5.64784 31.8337 5.4485C28.3952 4.69269 25.0978 3.15615 21.4433 0.614618C20.9533 0.274086 20.5629 0 20.0065 0C19.45 0 19.043 0.282392 18.5779 0.606312C13.6942 3.97841 9.27557 5.68937 4.68255 5.97176C3.27889 6.06312 2.67258 6.71096 2.67258 8.13953C2.67258 9.29402 2.67258 10.4485 2.67258 11.603C2.66428 14.8007 2.66428 18.1146 2.6975 21.3704C2.70581 22.5166 2.85531 23.7043 3.12939 24.9086C3.76893 27.7076 5.23903 30.2409 7.62275 32.6412C10.6543 35.6977 14.4583 38.0648 19.259 39.8754C19.4749 39.9585 19.7241 40 19.9815 40C20.2972 40 20.6294 39.9336 20.9035 39.809C21.1859 39.6844 21.4683 39.5681 21.7506 39.4435C22.93 38.9369 24.1427 38.4136 25.3138 37.799C29.1925 35.7475 32.1161 33.3389 34.259 30.4319C36.1443 27.8738 37.1161 25.3073 37.2407 22.5914C37.2656 22.0515 37.2822 21.4784 37.2905 20.8389C37.2905 20.8306 37.2905 20.814 37.2905 20.8056L37.332 15.3987C37.332 15.3738 37.332 15.3488 37.332 15.3322V15.2243L37.3237 13.3056ZM35.0812 15.1163V15.1246V15.2741C35.0812 15.2907 35.0812 15.3073 35.0812 15.3239L35.0397 20.598V20.7641C35.0397 20.7724 35.0397 20.7807 35.0397 20.789C35.0314 21.4203 35.0148 21.9767 34.9982 22.5C34.8985 24.7508 34.0679 26.9103 32.4566 29.103C30.5131 31.7359 27.8387 33.9369 24.2673 35.8223C23.1792 36.3953 21.9998 36.902 20.8703 37.392C20.5879 37.5166 20.3055 37.6329 20.0231 37.7575C20.0148 37.7575 20.0065 37.7575 19.9982 37.7575C15.5297 36.0631 11.9998 33.8787 9.21743 31.0631C7.14102 28.9618 5.86195 26.7857 5.32208 24.402C5.08122 23.3555 4.95664 22.3256 4.94833 21.3455C4.91511 18.098 4.92341 14.8007 4.92341 11.603C4.92341 10.4651 4.92341 9.33555 4.92341 8.19767C9.9068 7.86545 14.6493 6.03821 19.8487 2.45017C19.8902 2.41694 19.9483 2.38372 20.0065 2.34219C20.0563 2.37542 20.1144 2.41694 20.1643 2.45017C24.0098 5.13289 27.6726 6.82724 31.352 7.6412C32.3487 7.85714 33.3536 7.97342 34.3254 8.0897C34.5829 8.12292 34.832 8.14784 35.0812 8.18106C35.0812 9.8588 35.0812 11.5449 35.0812 13.2226V15.1163Z" fill="#015944"/>
</g>
<defs>
<clipPath id="clip0_63_439">
<rect width="40" height="40" fill="white"/>
</clipPath>
</defs>
</svg>
