<svg width="22" height="22" viewBox="0 0 22 22" fill="none" xmlns="http://www.w3.org/2000/svg">
<path d="M6.28375 0C2.82047 0 0 2.78266 0 6.20125C0 7.24969 0.273281 8.27234 0.78375 9.185C0.663438 9.8175 0.605 10.4689 0.605 11.11C0.605 16.83 5.31266 21.4775 11.11 21.4775C11.7047 21.4775 12.2994 21.438 12.8837 21.34C13.7534 21.7748 14.7314 22 15.7162 22C19.1795 22 22 19.2173 22 15.7987C22 14.8809 21.7972 14.0044 21.4088 13.1862C21.5497 12.5108 21.6287 11.813 21.6287 11.11C21.6287 5.39172 16.9073 0.7425 11.11 0.7425C10.5652 0.7425 10.0152 0.78375 9.47375 0.86625C8.50781 0.300781 7.41297 0 6.28375 0ZM11.0413 4.125C11.9419 4.125 12.7308 4.22297 13.3925 4.4275C14.0559 4.63031 14.618 4.90016 15.0562 5.23875C15.4997 5.58078 15.8383 5.94516 16.0462 6.325C16.2559 6.70828 16.3625 7.09844 16.3625 7.46625C16.3625 7.82203 16.2113 8.13313 15.9362 8.415C15.6613 8.69687 15.3158 8.84125 14.905 8.84125C14.532 8.84125 14.2416 8.75531 14.0387 8.58C13.8497 8.415 13.6503 8.16406 13.4338 7.79625C13.1828 7.32531 12.8889 6.94203 12.54 6.6825C12.2014 6.42984 11.6256 6.31125 10.8488 6.31125C10.1269 6.31125 9.53734 6.44187 9.1025 6.72375C8.68141 6.99531 8.48375 7.31672 8.48375 7.68625C8.48375 7.91313 8.55422 8.10047 8.69 8.26375C8.83438 8.43563 9.02516 8.57828 9.28125 8.70375C9.54594 8.83438 9.81922 8.94609 10.0925 9.02C10.3727 9.09562 10.8505 9.21594 11.495 9.36375C12.3097 9.53734 13.0591 9.71953 13.7225 9.9275C14.3928 10.1406 14.9686 10.407 15.4412 10.7113C15.9225 11.0206 16.3109 11.4177 16.5825 11.8938C16.8541 12.3698 16.9813 12.9542 16.9813 13.64C16.9795 14.4581 16.7492 15.2006 16.28 15.8538C15.8125 16.5052 15.1233 17.0294 14.2312 17.3937C13.3478 17.7547 12.2873 17.93 11.0825 17.93C9.63531 17.93 8.42531 17.6842 7.48 17.1875C6.80281 16.8283 6.23734 16.3316 5.81625 15.73C5.38656 15.1216 5.17 14.5252 5.17 13.9425C5.17 13.5798 5.31781 13.267 5.59625 13.0075C5.87297 12.7531 6.22016 12.6225 6.64125 12.6225C6.98672 12.6225 7.29266 12.7222 7.535 12.925C7.76875 13.1192 7.96641 13.408 8.12625 13.7775C8.305 14.1814 8.49578 14.5114 8.70375 14.7812C8.89969 15.0373 9.17984 15.2591 9.5425 15.4275C9.90687 15.5994 10.407 15.6888 11.0138 15.6888C11.8473 15.6888 12.5228 15.5117 13.035 15.1663C13.5369 14.8294 13.7913 14.4255 13.7913 13.9288C13.7913 13.5369 13.6537 13.2206 13.3925 12.98C13.1175 12.7273 12.7566 12.5366 12.32 12.4025C11.8611 12.2633 11.2458 12.1086 10.4775 11.9487C9.4325 11.727 8.54391 11.4606 7.8375 11.165C7.11391 10.8608 6.53125 10.438 6.105 9.91375C5.67188 9.37922 5.445 8.72094 5.445 7.93375C5.445 7.18266 5.67703 6.49516 6.1325 5.9125C6.58109 5.335 7.23766 4.88641 8.085 4.57875C8.92031 4.27281 9.91719 4.125 11.0413 4.125Z" fill="#00FFC3"/>
</svg>
