<svg width="20" height="14" viewBox="0 0 20 14" fill="none" xmlns="http://www.w3.org/2000/svg">
<g clip-path="url(#clip0_21_527)">
<path d="M13.0714 0H6.92857C3.10714 0 0 3.14079 0 7.0036C0 10.8664 3.10714 14.0072 6.92857 14.0072H13.0714C16.8929 14.0072 20 10.8664 20 7.0036C20 3.14079 16.8929 0 13.0714 0ZM13.0714 12.7003H6.92857C3.82143 12.7003 1.28571 10.1444 1.28571 6.99638C1.28571 3.84837 3.81429 1.29242 6.92857 1.29242H13.0714C16.1786 1.29242 18.7143 3.84837 18.7143 6.99638C18.7143 10.1444 16.1857 12.7003 13.0714 12.7003Z" fill="#00FFC3"/>
<path d="M12.6429 6.23104L9.62857 3.6823C8.97857 3.13357 8 3.60288 8 4.45487V9.55234C8 10.4043 8.98572 10.8664 9.62857 10.3249L12.6429 7.77617C13.1214 7.37183 13.1214 6.63537 12.6429 6.23104Z" fill="#00FFC3"/>
</g>
<defs>
<clipPath id="clip0_21_527">
<rect width="20" height="14" fill="white"/>
</clipPath>
</defs>
</svg>
