<svg width="46" height="40" viewBox="0 0 46 40" fill="none" xmlns="http://www.w3.org/2000/svg">
<path d="M45.2333 32.3077H44.4667V3.84615C44.4667 2.84615 44.0833 1.84615 43.3167 1.15385C42.6267 0.384615 41.63 0 40.6333 0H5.36667C4.37 0 3.37333 0.384615 2.68333 1.15385C1.91667 1.84615 1.53333 2.84615 1.53333 3.84615V32.3077H0.766667C0.536667 32.3077 0.383333 32.3846 0.23 32.5385C0.0766667 32.6923 0 32.8462 0 33.0769V36.1538C0 37.1538 0.383333 38.1538 1.15 38.8462C1.84 39.6154 2.83667 40 3.83333 40H42.1667C43.1633 40 44.16 39.6154 44.85 38.8462C45.54 38.1538 46 37.1538 46 36.1538V33.0769C46 32.8462 45.9233 32.6923 45.77 32.5385C45.6167 32.3846 45.4633 32.3077 45.2333 32.3077ZM3.06667 3.84615C3.06667 3.23077 3.29667 2.61538 3.75667 2.23077C4.14 1.76923 4.75333 1.53846 5.36667 1.53846H40.6333C41.2467 1.53846 41.86 1.76923 42.2433 2.23077C42.7033 2.61538 42.9333 3.23077 42.9333 3.84615V32.3077H3.06667V3.84615ZM26.0667 33.8462V34.6154C26.0667 34.8462 25.99 35 25.8367 35.1538C25.6833 35.3077 25.53 35.3846 25.3 35.3846H20.7C20.47 35.3846 20.3167 35.3077 20.1633 35.1538C20.01 35 19.9333 34.8462 19.9333 34.6154V33.8462H26.0667ZM44.4667 36.1538C44.4667 36.7692 44.2367 37.3846 43.7767 37.7692C43.3933 38.2308 42.78 38.4615 42.1667 38.4615H3.83333C3.22 38.4615 2.60667 38.2308 2.22333 37.7692C1.76333 37.3846 1.53333 36.7692 1.53333 36.1538V33.8462H18.4V34.6154C18.4 35.2308 18.63 35.8462 19.09 36.2308C19.55 36.6923 20.0867 36.9231 20.7 36.9231H25.3C25.9133 36.9231 26.5267 36.6923 26.91 36.2308C27.37 35.7692 27.6 35.2308 27.6 34.6154V33.8462H44.4667V36.1538Z" fill="#015944"/>
<path d="M40.6333 3.07693H5.36664C5.13664 3.07693 4.98331 3.15386 4.82998 3.3077C4.67664 3.46155 4.59998 3.6154 4.59998 3.84617V30C4.59998 30.2308 4.67664 30.3846 4.82998 30.5385C4.98331 30.6923 5.13664 30.7692 5.36664 30.7692H40.6333C40.8633 30.7692 41.0166 30.6923 41.17 30.5385C41.3233 30.3846 41.4 30.2308 41.4 30V3.84617C41.4 3.6154 41.3233 3.46155 41.17 3.3077C41.0166 3.15386 40.8633 3.07693 40.6333 3.07693ZM39.8666 29.2308H6.13331V4.6154H39.8666V29.2308Z" fill="black"/>
<path d="M23.7666 13.0769V12.3077C23.7666 12.0769 23.6899 11.9231 23.5366 11.7692C23.3833 11.6154 23.2299 11.5385 22.9999 11.5385C22.7699 11.5385 22.6166 11.6154 22.4633 11.7692C22.3099 11.9231 22.2333 12.0769 22.2333 12.3077V13.0769C22.2333 13.3077 22.3099 13.4615 22.4633 13.6154C22.6166 13.7692 22.7699 13.8461 22.9999 13.8461C23.2299 13.8461 23.3833 13.7692 23.5366 13.6154C23.6899 13.4615 23.7666 13.3077 23.7666 13.0769Z" fill="#00FFC3"/>
<path d="M24.5333 20C24.5333 20.2308 24.4567 20.3846 24.3033 20.5385C24.15 20.6923 23.9967 20.7692 23.7667 20.7692H22.2333C22.0033 20.7692 21.85 20.6923 21.6967 20.5385C21.5433 20.3846 21.4667 20.2308 21.4667 20C21.4667 19.7692 21.5433 19.6154 21.6967 19.4615C21.85 19.3077 22.0033 19.2308 22.2333 19.2308V16.1538C22.0033 16.1538 21.85 16.0769 21.6967 15.9231C21.5433 15.7692 21.4667 15.6154 21.4667 15.3846C21.4667 15.1538 21.5433 15 21.6967 14.8462C21.85 14.6923 22.0033 14.6154 22.2333 14.6154H23C23.23 14.6154 23.3833 14.6923 23.5367 14.8462C23.69 15 23.7667 15.1538 23.7667 15.3846V19.2308C23.9967 19.2308 24.15 19.3077 24.3033 19.4615C24.4567 19.6154 24.5333 19.7692 24.5333 20Z" fill="#00FFC3"/>
<path d="M32.9667 16.9231V16.1538C32.9667 13.5385 31.8933 10.9231 30.0533 9.07692C28.2133 7.23076 25.6067 6.15384 23 6.15384C20.3933 6.15384 17.7867 7.23076 15.9467 9.07692C14.1067 10.9231 13.0333 13.5385 13.0333 16.1538V16.9231C12.19 17 11.3467 17.4615 10.81 18.1538C10.2733 18.8461 9.96667 19.6923 9.96667 20.6154C10.0433 21.4615 10.4267 22.3077 11.04 22.9231C11.6533 23.5385 12.4967 23.8461 13.4167 23.8461H15.3333C15.5633 23.8461 15.7167 23.7692 15.87 23.6154C16.0233 23.4615 16.1 23.3077 16.1 23.0769V17.6923C16.1 17.4615 16.0233 17.3077 15.87 17.1538C15.7167 17 15.5633 16.9231 15.3333 16.9231H14.5667V16.1538C14.5667 13.9231 15.4867 11.7692 17.02 10.1538C18.5533 8.53845 20.7767 7.6923 23 7.6923C25.2233 7.6923 27.37 8.61538 28.98 10.1538C30.59 11.7692 31.4333 13.9231 31.4333 16.1538V16.9231H30.6667C30.4367 16.9231 30.2833 17 30.13 17.1538C29.9767 17.3077 29.9 17.4615 29.9 17.6923V23.0769C29.9 23.3077 29.9767 23.4615 30.13 23.6154C30.2833 23.7692 30.4367 23.8461 30.6667 23.8461H31.4333V24.6154C31.4333 24.8461 31.3567 25 31.2033 25.1538C31.05 25.3077 30.8967 25.3846 30.6667 25.3846H25.9133C25.76 24.9231 25.4533 24.5385 25.07 24.3077C24.6867 24 24.2267 23.8461 23.7667 23.8461H22.2333C21.62 23.8461 21.0067 24.0769 20.6233 24.5385C20.1633 24.9231 19.9333 25.5385 19.9333 26.1538C19.9333 26.7692 20.1633 27.3846 20.6233 27.7692C21.0833 28.2308 21.62 28.4615 22.2333 28.4615H23.7667C24.2267 28.4615 24.6867 28.3077 25.07 28C25.4533 27.6923 25.76 27.3077 25.9133 26.9231H30.6667C31.28 26.9231 31.8933 26.6923 32.2767 26.2308C32.7367 25.7692 32.9667 25.2308 32.9667 24.6154V23.8461C33.81 23.7692 34.5767 23.3846 35.19 22.6923C35.7267 22.0769 36.0333 21.2308 36.0333 20.3846C36.0333 19.5385 35.7267 18.6923 35.19 18.0769C34.5767 17.4615 33.81 17.0769 32.9667 16.9231ZM14.5667 22.3077H13.4167C12.88 22.3077 12.42 22.0769 12.0367 21.7692C11.6533 21.3846 11.5 20.9231 11.5 20.3846C11.5 19.8461 11.73 19.3846 12.0367 19C12.42 18.6154 12.88 18.4615 13.4167 18.4615H14.5667V22.3077ZM23.7667 26.9231H22.2333C22.0033 26.9231 21.85 26.8461 21.6967 26.6923C21.5433 26.5385 21.4667 26.3846 21.4667 26.1538C21.4667 25.9231 21.5433 25.7692 21.6967 25.6154C21.85 25.4615 22.0033 25.3846 22.2333 25.3846H23.7667C23.9967 25.3846 24.15 25.4615 24.3033 25.6154C24.4567 25.7692 24.5333 25.9231 24.5333 26.1538C24.5333 26.3846 24.4567 26.5385 24.3033 26.6923C24.15 26.8461 23.9967 26.9231 23.7667 26.9231ZM32.5833 22.3077H31.4333V18.4615H32.5833C33.12 18.4615 33.58 18.6923 33.9633 19C34.3467 19.3846 34.5 19.8461 34.5 20.3846C34.5 20.9231 34.27 21.3846 33.9633 21.7692C33.58 22.0769 33.12 22.3077 32.5833 22.3077Z" fill="#00FFC3"/>
</svg>
