<svg width="20" height="20" viewBox="0 0 20 20" fill="none" xmlns="http://www.w3.org/2000/svg">
<g clip-path="url(#clip0_21_378)">
<path d="M6.53965 16.0753C6.33141 15.8673 5.99468 15.8673 5.78644 16.0753C5.5782 16.2832 5.5782 16.6195 5.78644 16.8275L6.38901 17.4292H3.94329C2.35268 17.4292 1.06336 16.1372 1.06336 14.5531V12.77C1.06336 12.4779 0.824103 12.239 0.531679 12.239C0.239256 12.239 0 12.4779 0 12.77V14.5531C0 16.7257 1.76783 18.4912 3.94329 18.4912H6.38901L5.78644 19.0929C5.5782 19.3009 5.5782 19.6372 5.78644 19.8451C5.88835 19.9469 6.0257 20 6.16305 20C6.3004 20 6.43332 19.9469 6.53965 19.8451L8.05051 18.3363C8.25875 18.1283 8.25875 17.7921 8.05051 17.5841L6.53965 16.0753Z" fill="#00FFC3"/>
<path d="M9.3044 0H0.571566C0.279142 0 0.0398865 0.238938 0.0398865 0.530973V9.25221C0.0398865 9.54425 0.279142 9.78319 0.571566 9.78319H9.3044C9.59683 9.78319 9.83608 9.54425 9.83608 9.25221V0.530973C9.83608 0.238938 9.60126 0 9.3044 0ZM8.77272 8.72124H1.10325V1.06195H8.77272V8.72124Z" fill="#00FFC3"/>
<path d="M16.0523 1.50886H13.6066L14.2091 0.907088C14.4174 0.699123 14.4174 0.36284 14.2091 0.154875C14.0009 -0.0530898 13.6642 -0.0530898 13.4559 0.154875L11.9495 1.66373C11.7412 1.87169 11.7412 2.20797 11.9495 2.41594L13.4603 3.92479C13.5622 4.02656 13.6996 4.07966 13.8369 4.07966C13.9743 4.07966 14.1072 4.02656 14.2136 3.92479C14.4218 3.71683 14.4218 3.38054 14.2136 3.17258L13.611 2.57081H16.0567C17.6473 2.57081 18.9366 3.86284 18.9366 5.44692V7.2301C18.9366 7.52214 19.1759 7.76108 19.4683 7.76108C19.7607 7.76108 20 7.52214 20 7.2301V5.44692C20 3.27435 18.2277 1.50886 16.0523 1.50886Z" fill="#00FFC3"/>
<path d="M19.4284 18.938C19.2867 18.938 19.1493 18.9956 19.0518 19.0929C18.9544 19.1903 18.8968 19.3274 18.8968 19.469C18.8968 19.6062 18.9544 19.7478 19.0518 19.8451C19.1493 19.9425 19.2867 20 19.4284 20C19.5702 20 19.7076 19.9425 19.805 19.8451C19.9025 19.7478 19.9601 19.6106 19.9601 19.469C19.9601 19.3274 19.9025 19.1903 19.805 19.0929C19.7031 18.9956 19.5658 18.938 19.4284 18.938Z" fill="#00FFC3"/>
<path d="M17.2441 18.938C16.9517 18.938 16.7125 19.177 16.7125 19.469C16.7125 19.7611 16.9517 20 17.2441 20C17.5366 20 17.7758 19.7611 17.7758 19.469C17.7758 19.177 17.5366 18.938 17.2441 18.938Z" fill="#00FFC3"/>
<path d="M12.8755 18.938C12.5831 18.938 12.3438 19.177 12.3438 19.469C12.3438 19.7611 12.5831 20 12.8755 20C13.1679 20 13.4072 19.7611 13.4072 19.469C13.4072 19.177 13.1723 18.938 12.8755 18.938Z" fill="#00FFC3"/>
<path d="M15.0598 18.938C14.7674 18.938 14.5281 19.177 14.5281 19.469C14.5281 19.7611 14.7674 20 15.0598 20C15.3522 20 15.5915 19.7611 15.5915 19.469C15.5915 19.177 15.3522 18.938 15.0598 18.938Z" fill="#00FFC3"/>
<path d="M10.6956 18.938C10.5538 18.938 10.4165 18.9956 10.319 19.0929C10.2215 19.1903 10.1639 19.3274 10.1639 19.469C10.1639 19.6062 10.2215 19.7478 10.319 19.8451C10.4165 19.9425 10.5538 20 10.6956 20C10.833 20 10.9748 19.9425 11.0722 19.8451C11.1697 19.7478 11.2273 19.6106 11.2273 19.469C11.2273 19.3274 11.1697 19.1903 11.0722 19.0929C10.9748 18.9956 10.833 18.938 10.6956 18.938Z" fill="#00FFC3"/>
<path d="M10.6956 16.7567C10.4032 16.7567 10.1639 16.9956 10.1639 17.2876C10.1639 17.5797 10.4032 17.8186 10.6956 17.8186C10.988 17.8186 11.2273 17.5797 11.2273 17.2876C11.2273 16.9956 10.988 16.7567 10.6956 16.7567Z" fill="#00FFC3"/>
<path d="M10.6956 14.5752C10.4032 14.5752 10.1639 14.8142 10.1639 15.1062C10.1639 15.3982 10.4032 15.6372 10.6956 15.6372C10.988 15.6372 11.2273 15.3982 11.2273 15.1062C11.2273 14.8142 10.988 14.5752 10.6956 14.5752Z" fill="#00FFC3"/>
<path d="M10.6956 12.3938C10.4032 12.3938 10.1639 12.6328 10.1639 12.9248C10.1639 13.2168 10.4032 13.4557 10.6956 13.4557C10.988 13.4557 11.2273 13.2168 11.2273 12.9248C11.2273 12.6328 10.988 12.3938 10.6956 12.3938Z" fill="#00FFC3"/>
<path d="M10.6956 10.2168C10.5538 10.2168 10.4165 10.2743 10.319 10.3717C10.2215 10.469 10.1639 10.6062 10.1639 10.7478C10.1639 10.8894 10.2215 11.0266 10.319 11.1239C10.4165 11.2213 10.5538 11.2788 10.6956 11.2788C10.833 11.2788 10.9748 11.2213 11.0722 11.1239C11.1697 11.0266 11.2273 10.8894 11.2273 10.7478C11.2273 10.6106 11.1697 10.469 11.0722 10.3717C10.9703 10.2699 10.833 10.2168 10.6956 10.2168Z" fill="#00FFC3"/>
<path d="M17.2441 10.2168C16.9517 10.2168 16.7125 10.4558 16.7125 10.7478C16.7125 11.0398 16.9517 11.2788 17.2441 11.2788C17.5366 11.2788 17.7758 11.0398 17.7758 10.7478C17.7758 10.4558 17.5366 10.2168 17.2441 10.2168Z" fill="#00FFC3"/>
<path d="M15.0598 10.2168C14.7674 10.2168 14.5281 10.4558 14.5281 10.7478C14.5281 11.0398 14.7674 11.2788 15.0598 11.2788C15.3522 11.2788 15.5915 11.0398 15.5915 10.7478C15.5915 10.4558 15.3522 10.2168 15.0598 10.2168Z" fill="#00FFC3"/>
<path d="M12.8755 10.2168C12.5831 10.2168 12.3438 10.4558 12.3438 10.7478C12.3438 11.0398 12.5831 11.2788 12.8755 11.2788C13.1679 11.2788 13.4072 11.0398 13.4072 10.7478C13.4072 10.4558 13.1723 10.2168 12.8755 10.2168Z" fill="#00FFC3"/>
<path d="M19.4284 10.2168C19.2867 10.2168 19.1493 10.2743 19.0518 10.3717C18.9544 10.469 18.8968 10.6062 18.8968 10.7478C18.8968 10.8894 18.9544 11.0266 19.0518 11.1239C19.1493 11.2213 19.2867 11.2788 19.4284 11.2788C19.5702 11.2788 19.7076 11.2213 19.805 11.1239C19.9025 11.0266 19.9601 10.8894 19.9601 10.7478C19.9601 10.6106 19.9025 10.469 19.805 10.3717C19.7031 10.2743 19.5658 10.2168 19.4284 10.2168Z" fill="#00FFC3"/>
<path d="M19.4284 12.3938C19.136 12.3938 18.8968 12.6328 18.8968 12.9248C18.8968 13.2168 19.136 13.4557 19.4284 13.4557C19.7209 13.4557 19.9601 13.2168 19.9601 12.9248C19.9601 12.6328 19.7209 12.3938 19.4284 12.3938Z" fill="#00FFC3"/>
<path d="M19.4284 16.7567C19.136 16.7567 18.8968 16.9956 18.8968 17.2876C18.8968 17.5797 19.136 17.8186 19.4284 17.8186C19.7209 17.8186 19.9601 17.5797 19.9601 17.2876C19.9601 16.9956 19.7209 16.7567 19.4284 16.7567Z" fill="#00FFC3"/>
<path d="M19.4284 14.5752C19.136 14.5752 18.8968 14.8142 18.8968 15.1062C18.8968 15.3982 19.136 15.6372 19.4284 15.6372C19.7209 15.6372 19.9601 15.3982 19.9601 15.1062C19.9601 14.8142 19.7209 14.5752 19.4284 14.5752Z" fill="#00FFC3"/>
</g>
<defs>
<clipPath id="clip0_21_378">
<rect width="20" height="20" fill="white"/>
</clipPath>
</defs>
</svg>
