<svg width="30" height="30" viewBox="0 0 30 30" fill="none" xmlns="http://www.w3.org/2000/svg">
<path d="M24.4409 3.74642C24.126 3.76107 23.8293 3.85262 23.5657 3.95516H23.562C23.2947 4.06136 22.0239 4.59603 20.094 5.40536C18.1641 6.21835 15.6592 7.27304 13.1726 8.3204C8.20679 10.4115 3.3252 12.4696 3.3252 12.4696L3.38379 12.4476C3.38379 12.4476 3.04688 12.5575 2.69531 12.7992C2.51587 12.9163 2.31811 13.0775 2.146 13.3302C1.97388 13.5828 1.83472 13.971 1.88599 14.3702C1.97022 15.0477 2.40967 15.4542 2.72461 15.6776C3.04321 15.9046 3.34717 16.0108 3.34717 16.0108H3.35449L7.93213 17.5526C8.13721 18.2118 9.32739 22.1229 9.61304 23.0238C9.78149 23.5621 9.94629 23.899 10.1514 24.1554C10.2502 24.2872 10.3674 24.3971 10.5066 24.4849C10.5615 24.5179 10.6201 24.5435 10.6787 24.5655C10.697 24.5765 10.7153 24.5802 10.7373 24.5838L10.6897 24.5728C10.7043 24.5765 10.7153 24.5875 10.7263 24.5912C10.7629 24.6021 10.7886 24.6058 10.8362 24.6131C11.5613 24.8328 12.1436 24.3824 12.1436 24.3824L12.1765 24.3568L14.8792 21.8958L19.4092 25.3712L19.5117 25.4151C20.4565 25.8289 21.4124 25.5982 21.9177 25.1917C22.4268 24.7816 22.6245 24.2579 22.6245 24.2579L22.6575 24.1737L26.1584 6.24032C26.2573 5.7972 26.283 5.38339 26.1731 4.98055C26.0632 4.57772 25.7812 4.20053 25.4407 3.99911C25.0964 3.79403 24.7559 3.73178 24.4409 3.74642ZM24.3457 5.66903C24.342 5.72762 24.353 5.7203 24.3274 5.83383V5.84481L20.8594 23.5914C20.8447 23.617 20.8191 23.672 20.7495 23.7269C20.6763 23.7855 20.6177 23.8221 20.3137 23.7013L14.773 19.4532L11.4258 22.5037L12.1289 18.014C12.1289 18.014 20.8081 9.9244 21.1816 9.5765C21.5552 9.2286 21.4307 9.15536 21.4307 9.15536C21.4563 8.73055 20.8667 9.03085 20.8667 9.03085L9.4519 16.1024L9.44824 16.0841L3.97705 14.242V14.2384C3.97339 14.2384 3.96606 14.2347 3.9624 14.2347C3.96606 14.2347 3.9917 14.2237 3.9917 14.2237L4.021 14.2091L4.05029 14.1981C4.05029 14.1981 8.93555 12.14 13.9014 10.0489C16.3879 9.00155 18.8928 7.94686 20.8191 7.13387C22.7454 6.32455 24.1699 5.73129 24.2505 5.69833C24.3274 5.66903 24.2908 5.66903 24.3457 5.66903Z" fill="#00FFC3"/>
</svg>
