<svg width="14" height="14" viewBox="0 0 14 14" fill="none" xmlns="http://www.w3.org/2000/svg">
<g clip-path="url(#clip0_22_58)">
<path d="M13.2437 0.952383C13.0566 0.961083 12.8805 1.01546 12.7239 1.07636H12.7217C12.5629 1.13944 11.8081 1.457 10.6619 1.93769C9.51562 2.42056 8.02787 3.04698 6.551 3.66905C3.6016 4.91101 0.702235 6.1334 0.702235 6.1334L0.737036 6.12035C0.737036 6.12035 0.53693 6.1856 0.328123 6.32916C0.221545 6.39876 0.10409 6.49446 0.00186257 6.64454C-0.100366 6.79462 -0.183019 7.02518 -0.152568 7.26226C-0.102541 7.66465 0.158468 7.90609 0.345524 8.03876C0.534755 8.17362 0.715286 8.2367 0.715286 8.2367H0.719636L3.43847 9.1524C3.56028 9.54391 4.26718 11.8669 4.43683 12.402C4.53689 12.7217 4.63476 12.9218 4.75657 13.0741C4.81529 13.1524 4.8849 13.2176 4.96755 13.2698C5.00017 13.2894 5.03498 13.3046 5.06978 13.3177C5.08065 13.3242 5.09153 13.3264 5.10458 13.3285L5.0763 13.322C5.085 13.3242 5.09153 13.3307 5.09805 13.3329C5.1198 13.3394 5.13503 13.3416 5.16331 13.3459C5.59397 13.4764 5.93981 13.2089 5.93981 13.2089L5.95938 13.1937L7.56458 11.732L10.2551 13.7962L10.316 13.8223C10.8772 14.0681 11.4449 13.931 11.7451 13.6896C12.0474 13.446 12.1649 13.135 12.1649 13.135L12.1844 13.0849L14.2638 2.43361C14.3225 2.17042 14.3378 1.92464 14.2725 1.68538C14.2072 1.44612 14.0398 1.22209 13.8375 1.10246C13.633 0.980659 13.4307 0.943683 13.2437 0.952383ZM13.1871 2.0943C13.185 2.1291 13.1915 2.12475 13.1763 2.19217V2.1987L11.1165 12.7391C11.1078 12.7543 11.0925 12.7869 11.0512 12.8196C11.0077 12.8544 10.9729 12.8761 10.7924 12.8043L7.50151 10.2813L5.51349 12.0931L5.93111 9.42646C5.93111 9.42646 11.086 4.62173 11.3079 4.4151C11.5297 4.20846 11.4558 4.16496 11.4558 4.16496C11.471 3.91265 11.1208 4.09101 11.1208 4.09101L4.34113 8.29107L4.33895 8.2802L1.0894 7.18614V7.18396C1.08722 7.18396 1.08287 7.18179 1.0807 7.18179C1.08287 7.18179 1.0981 7.17526 1.0981 7.17526L1.1155 7.16656L1.1329 7.16004C1.1329 7.16004 4.03444 5.93765 6.98384 4.69568C8.46071 4.07361 9.94846 3.44719 11.0925 2.96432C12.2366 2.48363 13.0827 2.13127 13.1306 2.1117C13.1763 2.0943 13.1545 2.0943 13.1871 2.0943Z" fill="#107860"/>
</g>
<defs>
<clipPath id="clip0_22_58">
<rect width="14" height="14" fill="white"/>
</clipPath>
</defs>
</svg>
