<svg width="18" height="17" viewBox="0 0 18 17" fill="none" xmlns="http://www.w3.org/2000/svg">
<path d="M15.7841 0H1.21587C0.543261 0 0 0.543261 0 1.21587V15.7878C0 16.4567 0.543261 17 1.21587 17H15.7878C16.4604 17 17.0037 16.4567 17.0037 15.7841V1.21587C17 0.543261 16.4567 0 15.7841 0ZM15.8913 15.7841C15.8913 15.8433 15.8433 15.8913 15.7841 15.8913H1.21587C1.15674 15.8913 1.1087 15.8433 1.1087 15.7841V1.21587C1.1087 1.15674 1.15674 1.1087 1.21587 1.1087H15.7878C15.8469 1.1087 15.895 1.15674 15.895 1.21587L15.8913 15.7841Z" fill="#00FFC3"/>
<path d="M10.8024 7.44677C10.6989 7.28786 10.5252 7.19177 10.3368 7.19177C10.1483 7.19177 9.97089 7.28786 9.8711 7.44677L7.19915 11.6413L5.83176 9.49416C5.72828 9.33525 5.55458 9.23916 5.3661 9.23916C5.17762 9.23916 5.00023 9.33525 4.90045 9.49416L2.0511 13.9659C1.94393 14.1359 1.93654 14.3539 2.03262 14.5313C2.12871 14.7087 2.31719 14.8196 2.52045 14.8196H14.5018C14.705 14.8196 14.8898 14.7087 14.9896 14.5313C15.0894 14.3539 15.0783 14.1359 14.9711 13.9659L10.8024 7.44677ZM3.52197 13.7109L5.35871 10.8246L6.7261 12.9718C6.82958 13.1307 7.00328 13.2268 7.19176 13.2268C7.38023 13.2268 7.55763 13.1307 7.65741 12.9718L10.3294 8.77721L13.4781 13.7109H3.52197Z" fill="#00FFC3"/>
<path d="M5.13698 7.31741C6.58198 7.31741 7.76089 6.13849 7.76089 4.69349C7.76089 3.24849 6.58198 2.06958 5.13698 2.06958C3.69197 2.06958 2.51306 3.24849 2.51306 4.69349C2.51306 6.13849 3.69197 7.31741 5.13698 7.31741ZM5.13698 3.17828C5.97219 3.17828 6.65219 3.85828 6.65219 4.69349C6.65219 5.52871 5.97219 6.20871 5.13698 6.20871C4.30176 6.20871 3.62176 5.52871 3.62176 4.69349C3.62176 3.85828 4.30176 3.17828 5.13698 3.17828Z" fill="#00FFC3"/>
</svg>
