<svg width="33" height="31" viewBox="0 0 33 31" fill="none" xmlns="http://www.w3.org/2000/svg">
<path d="M4.93112 0C2.21026 0 0 2.21629 0 4.94457C0 7.38529 1.76961 9.41222 4.09178 9.81199V30.1584C4.09178 30.6213 4.46948 31 4.93112 31C5.39275 31 5.77045 30.6213 5.77045 30.1584V9.81199C8.09262 9.41222 9.86223 7.37828 9.86223 4.94457C9.86223 2.21629 7.64498 0 4.93112 0ZM4.93112 8.20588C3.14053 8.20588 1.67868 6.74706 1.67868 4.94457C1.67868 3.14208 3.13353 1.68326 4.93112 1.68326C6.7287 1.68326 8.18355 3.14208 8.18355 4.94457C8.18355 6.74706 6.7217 8.20588 4.93112 8.20588Z" fill="black"/>
<path d="M16.458 16.7624C16.9197 16.7624 17.2974 16.3837 17.2974 15.9208C17.2974 15.4579 16.9197 15.0792 16.458 15.0792C15.9964 15.0792 15.6187 15.4579 15.6187 15.9208C15.6187 16.3907 15.9964 16.7624 16.458 16.7624Z" fill="black"/>
<path d="M16.458 7.71493C16.9197 7.71493 17.2974 7.3362 17.2974 6.87331C17.2974 6.41041 16.9197 6.03168 16.458 6.03168C15.9964 6.03168 15.6187 6.41041 15.6187 6.87331C15.6187 7.3362 15.9964 7.71493 16.458 7.71493Z" fill="black"/>
<path d="M16.458 13.7466C16.9197 13.7466 17.2974 13.3679 17.2974 12.905C17.2974 12.4421 16.9197 12.0634 16.458 12.0634C15.9964 12.0634 15.6187 12.4421 15.6187 12.905C15.6187 13.3679 15.9964 13.7466 16.458 13.7466Z" fill="black"/>
<path d="M16.458 4.69907C16.9197 4.69907 17.2974 4.32033 17.2974 3.85744C17.2974 3.39454 16.9197 3.01581 16.458 3.01581C15.9964 3.01581 15.6187 3.39454 15.6187 3.85744C15.6187 4.32033 15.9964 4.69907 16.458 4.69907Z" fill="black"/>
<path d="M16.458 19.7783C16.9197 19.7783 17.2974 19.3996 17.2974 18.9367C17.2974 18.4738 16.9197 18.095 16.458 18.095C15.9964 18.095 15.6187 18.4738 15.6187 18.9367C15.6187 19.4066 15.9964 19.7783 16.458 19.7783Z" fill="black"/>
<path d="M16.458 10.7307C16.9197 10.7307 17.2974 10.352 17.2974 9.88911C17.2974 9.42622 16.9197 9.04749 16.458 9.04749C15.9964 9.04749 15.6187 9.42622 15.6187 9.88911C15.6187 10.352 15.9964 10.7307 16.458 10.7307Z" fill="black"/>
<path d="M16.458 21.1108C13.7372 21.1108 11.5269 23.3271 11.5269 26.0554C11.5269 28.7837 13.7372 31 16.458 31C19.1789 31 21.3891 28.7837 21.3891 26.0554C21.3891 23.3271 19.1789 21.1108 16.458 21.1108ZM16.458 29.3167C14.6674 29.3167 13.2056 27.8579 13.2056 26.0554C13.2056 24.2529 14.6604 22.7941 16.458 22.7941C18.2486 22.7941 19.7105 24.2529 19.7105 26.0554C19.7105 27.8579 18.2486 29.3167 16.458 29.3167Z" fill="black"/>
<path d="M28.0689 0C25.348 0 23.1378 2.21629 23.1378 4.94457C23.1378 7.38529 24.9074 9.41222 27.2295 9.81199V30.1584C27.2295 30.6213 27.6072 31 28.0689 31C28.5305 31 28.9082 30.6213 28.9082 30.1584V9.81199C31.2304 9.41222 33 7.37828 33 4.94457C33 2.21629 30.7897 0 28.0689 0ZM28.0689 8.20588C26.2783 8.20588 24.8164 6.74706 24.8164 4.94457C24.8164 3.14208 26.2783 1.68326 28.0689 1.68326C29.8595 1.68326 31.3213 3.14208 31.3213 4.94457C31.3213 6.74706 29.8665 8.20588 28.0689 8.20588Z" fill="black"/>
</svg>
