<svg width="17" height="10" viewBox="0 0 17 10" fill="none" xmlns="http://www.w3.org/2000/svg">
<path d="M12.3636 0H4.63636C2.08121 0 0 2.24444 0 5C0 7.75556 2.08121 10 4.63636 10H12.3636C14.9188 10 17 7.75556 17 5C17 2.24444 14.9188 0 12.3636 0ZM1.54545 5C1.54545 3.16111 2.93121 1.66667 4.63636 1.66667C6.34152 1.66667 7.72727 3.16111 7.72727 5C7.72727 6.83889 6.34152 8.33333 4.63636 8.33333C2.93121 8.33333 1.54545 6.83889 1.54545 5ZM12.3636 8.33333H8.08788C8.82454 7.45 9.27273 6.27778 9.27273 5C9.27273 3.72222 8.82454 2.55 8.08788 1.66667H12.3636C14.0688 1.66667 15.4545 3.16111 15.4545 5C15.4545 6.83889 14.0688 8.33333 12.3636 8.33333Z" fill="#00FFC3"/>
</svg>
