<svg width="23" height="23" viewBox="0 0 23 23" fill="none" xmlns="http://www.w3.org/2000/svg">
<path d="M19.7417 5.11111H16.9305C16.5472 5.11111 16.2917 5.36667 16.2917 5.75C16.2917 6.13334 16.5472 6.38889 16.9305 6.38889H19.8055V19.1667H3.19443V6.38889H6.00555C6.38888 6.38889 6.64443 6.13334 6.64443 5.75C6.64443 5.36667 6.38888 5.11111 6.00555 5.11111H3.25832C2.55555 5.11111 1.91666 5.62223 1.91666 6.325V6.38889V19.1667C1.91666 19.8694 2.49166 20.4444 3.19443 20.4444H3.25832H19.7417C20.4444 20.4444 21.0194 19.9333 21.0833 19.2306V19.1667V6.38889C21.0833 5.68611 20.5083 5.11111 19.7417 5.11111C19.8055 5.11111 19.7417 5.11111 19.7417 5.11111Z" fill="#00FFC3"/>
<path d="M6.58055 12.075L11.0528 16.4833C11.3083 16.7389 11.6917 16.7389 11.9472 16.4833L16.4194 12.075C16.675 11.8194 16.675 11.4361 16.4194 11.1805C16.1639 10.925 15.7806 10.925 15.525 11.1805L12.1389 14.4389V2.55555C12.1389 2.17221 11.8833 1.91666 11.5 1.91666C11.1167 1.91666 10.8611 2.17221 10.8611 2.55555V14.4389L7.475 11.1167C7.21944 10.8611 6.83611 10.8611 6.58055 11.1167C6.325 11.3722 6.325 11.8194 6.58055 12.075Z" fill="#00FFC3"/>
</svg>
