<svg width="13" height="19" viewBox="0 0 13 19" fill="none" xmlns="http://www.w3.org/2000/svg">
<path d="M13 3.0132H10.0645V5.75603H10.9032V8.44401L7.12903 9.03176V2.62137L8.61355 2.6292L6.49581 0L4.39484 2.60961L5.87097 2.61745V10.603L2.09677 10.0153V7.19406C2.59161 6.97463 2.93548 6.50052 2.93548 5.95587C2.93548 5.19963 2.2771 4.58445 1.46774 4.58445C0.658387 4.58445 0 5.19963 0 5.95587C0 6.50052 0.343871 6.97463 0.83871 7.19406V11.0105L5.87097 11.7942V13.9767C4.67161 14.2431 3.77419 15.2541 3.77419 16.4531C3.77419 17.8558 4.99871 19 6.5 19C8.00129 19 9.22581 17.8558 9.22581 16.4531C9.22581 15.2502 8.32839 14.2431 7.12903 13.9767V10.2269L12.1613 9.44318V5.75995H13V3.0132ZM7.96774 16.4531C7.96774 17.2093 7.30935 17.8245 6.5 17.8245C5.69065 17.8245 5.03226 17.2093 5.03226 16.4531C5.03226 15.6968 5.69065 15.0817 6.5 15.0817C7.30935 15.0817 7.96774 15.6968 7.96774 16.4531Z" fill="#00FFC3"/>
</svg>
