<svg width="34" height="33" viewBox="0 0 34 33" fill="none" xmlns="http://www.w3.org/2000/svg">
<path d="M2.62818 6.65179C2.75926 6.65179 2.88834 6.60013 2.98082 6.50972C3.07397 6.41996 3.1272 6.29467 3.1272 6.16745C3.1272 6.04023 3.07397 5.91494 2.98082 5.82518C2.88834 5.73477 2.75992 5.68311 2.62818 5.68311C2.49644 5.68311 2.36802 5.73477 2.27554 5.82518C2.18239 5.91494 2.12916 6.04023 2.12916 6.16745C2.12916 6.29467 2.18239 6.41996 2.27554 6.50972C2.36802 6.60013 2.4971 6.65179 2.62818 6.65179Z" fill="#00FFC3"/>
<path d="M4.22505 6.65179C4.35679 6.65179 4.48521 6.60013 4.57769 6.50972C4.67084 6.41996 4.72407 6.29467 4.72407 6.16745C4.72407 6.04023 4.67084 5.91494 4.57769 5.82518C4.48521 5.73477 4.35613 5.68311 4.22505 5.68311C4.09397 5.68311 3.96489 5.73477 3.87241 5.82518C3.77926 5.91494 3.72603 6.04023 3.72603 6.16745C3.72603 6.29467 3.77926 6.41996 3.87241 6.50972C3.96489 6.60013 4.09397 6.65179 4.22505 6.65179Z" fill="#00FFC3"/>
<path d="M5.82192 6.65179C5.95299 6.65179 6.08207 6.60013 6.17456 6.50972C6.26771 6.41996 6.32094 6.29467 6.32094 6.16745C6.32094 6.04023 6.26771 5.91494 6.17456 5.82518C6.08207 5.73477 5.95299 5.68311 5.82192 5.68311C5.69084 5.68311 5.56176 5.73477 5.46927 5.82518C5.37612 5.91494 5.3229 6.04023 5.3229 6.16745C5.3229 6.29467 5.37612 6.41996 5.46927 6.50972C5.56176 6.60013 5.69084 6.65179 5.82192 6.65179Z" fill="#00FFC3"/>
<path d="M7.95108 6.65179H28.1781C28.4537 6.65179 28.6771 6.43494 28.6771 6.16745C28.6771 5.89996 28.4537 5.68311 28.1781 5.68311H7.95108C7.67548 5.68311 7.45205 5.89996 7.45205 6.16745C7.45205 6.43494 7.67548 6.65179 7.95108 6.65179Z" fill="#00FFC3"/>
<path d="M30.3072 6.65179H31.3718C31.6474 6.65179 31.8708 6.43494 31.8708 6.16745C31.8708 5.89996 31.6474 5.68311 31.3718 5.68311H30.3072C30.0317 5.68311 29.8082 5.89996 29.8082 6.16745C29.8082 6.43494 30.0317 6.65179 30.3072 6.65179Z" fill="#00FFC3"/>
<path d="M29.2427 10.8494H19.6614C18.7993 10.8494 18.0978 11.5302 18.0978 12.367V12.3993H17.5323C16.6701 12.3993 15.9687 13.0801 15.9687 13.9169V18.0822H14.8376V16.5001C14.8376 15.6632 14.1361 14.9824 13.274 14.9824H4.75734C3.89516 14.9824 3.19374 15.6632 3.19374 16.5001V20.6331C3.19374 21.4699 3.89516 22.1507 4.75734 22.1507H13.274C14.1361 22.1507 14.8376 21.4699 14.8376 20.6331V19.0509H15.9687V23.2163C15.9687 24.0531 16.6701 24.7339 17.5323 24.7339H18.0978V24.7662C18.0978 25.603 18.7993 26.2838 19.6614 26.2838H29.2427C30.1048 26.2838 30.8063 25.603 30.8063 24.7662V23.7329C30.8063 22.8961 30.1048 22.2153 29.2427 22.2153H19.6614C18.7993 22.2153 18.0978 22.8961 18.0978 23.7329V23.7652H17.5323C17.2204 23.7652 16.9667 23.519 16.9667 23.2163V19.0509H18.0978V19.0832C18.0978 19.92 18.7993 20.6008 19.6614 20.6008H29.2427C30.1048 20.6008 30.8063 19.92 30.8063 19.0832V18.05C30.8063 17.2131 30.1048 16.5323 29.2427 16.5323H19.6614C18.7993 16.5323 18.0978 17.2131 18.0978 18.05V18.0822H16.9667V13.9169C16.9667 13.6142 17.2204 13.368 17.5323 13.368H18.0978V13.4002C18.0978 14.2371 18.7993 14.9179 19.6614 14.9179H29.2427C30.1048 14.9179 30.8063 14.2371 30.8063 13.4002V12.367C30.8063 11.5302 30.1048 10.8494 29.2427 10.8494ZM13.8395 20.6331C13.8395 20.9358 13.5858 21.182 13.274 21.182H4.75734C4.44548 21.182 4.19178 20.9358 4.19178 20.6331V16.5001C4.19178 16.1974 4.44548 15.9511 4.75734 15.9511H13.274C13.5858 15.9511 13.8395 16.1974 13.8395 16.5001V20.6331ZM19.0959 23.7329C19.0959 23.4302 19.3496 23.184 19.6614 23.184H29.2427C29.5545 23.184 29.8082 23.4302 29.8082 23.7329V24.7662C29.8082 25.0689 29.5545 25.3151 29.2427 25.3151H19.6614C19.3496 25.3151 19.0959 25.0689 19.0959 24.7662V23.7329ZM19.0959 18.05C19.0959 17.7473 19.3496 17.501 19.6614 17.501H29.2427C29.5545 17.501 29.8082 17.7473 29.8082 18.05V19.0832C29.8082 19.3859 29.5545 19.6321 29.2427 19.6321H19.6614C19.3496 19.6321 19.0959 19.3859 19.0959 19.0832V18.05ZM29.8082 13.4002C29.8082 13.7029 29.5545 13.9492 29.2427 13.9492H19.6614C19.3496 13.9492 19.0959 13.7029 19.0959 13.4002V12.367C19.0959 12.0643 19.3496 11.8181 19.6614 11.8181H29.2427C29.5545 11.8181 29.8082 12.0643 29.8082 12.367V13.4002Z" fill="#00FFC3"/>
<path d="M31.3718 3.61646H2.62818C1.17902 3.61646 0 4.7608 0 6.16734V26.8327C0 28.2392 1.17902 29.3836 2.62818 29.3836H31.3718C32.821 29.3836 34 28.2392 34 26.8327V6.16734C34 4.7608 32.821 3.61646 31.3718 3.61646ZM2.62818 4.58514H31.3718C32.2707 4.58514 33.002 5.29493 33.002 6.16734V7.74953H0.998043V6.16734C0.998043 5.29493 1.72934 4.58514 2.62818 4.58514ZM31.3718 28.4149H2.62818C1.72934 28.4149 0.998043 27.7051 0.998043 26.8327V8.71822H33.002V26.8327C33.002 27.7051 32.2707 28.4149 31.3718 28.4149Z" fill="#00FFC3"/>
</svg>
