<svg width="345" height="45" viewBox="0 0 345 45" fill="none" xmlns="http://www.w3.org/2000/svg">
<path d="M8.56934 0.438477H8.63525C14.3921 0.438477 18.7866 1.58838 21.8188 3.88818C22.6245 4.51807 23.0273 4.97217 23.0273 5.25049L22.9614 5.31641L20.2588 3.9541V4.02002C23.335 7.84326 24.873 9.93066 24.873 10.2822C24.873 10.8535 23.606 13.0068 21.0718 16.7422C18.2446 22.001 15.4541 26.5054 12.7002 30.2554L3.73535 41H3.60352L3.66943 38.8906C3.25928 35.4922 2.90039 31.8887 2.59277 28.0801C2.50488 28.0361 2.36572 27.4502 2.17529 26.3223L2.37305 22.521C1.96289 21.3491 1.75781 20.624 1.75781 20.3457C2.16797 19.9355 2.49023 19.7305 2.72461 19.7305C2.72461 19.3936 2.20459 18.7344 1.16455 17.7529C1.34033 17.4893 1.69922 14.9771 2.24121 10.2163C2.24121 9.70361 1.83105 9.18359 1.01074 8.65625L0.944824 8.30469C1.12061 8.2168 1.36963 8.17285 1.69189 8.17285H2.04346C0.783691 7.00098 0.102539 6.41504 0 6.41504V6.34912C0 6.20264 1.24512 5.99756 3.73535 5.73389H4.08691L4.83398 5.7998H4.8999V5.73389L2.92236 4.9209V4.76709H2.98828C3.69141 4.76709 5.11963 5.54346 7.27295 7.09619C7.78564 7.35986 8.14453 7.4917 8.34961 7.4917L6.26221 4.10791L6.45996 3.9541C7.93945 5.93164 8.97949 7.15479 9.58008 7.62354C9.71191 7.62354 9.77783 7.90186 9.77783 8.4585V10.7656H9.71191C9.47754 10.6191 9.25049 10.5459 9.03076 10.5459H8.02002V10.6118C8.02002 10.7583 8.26904 11.2856 8.76709 12.1938L8.83301 12.5234C8.74512 12.7285 8.65723 12.8457 8.56934 12.875H8.50342C8.28369 12.875 7.96143 12.6699 7.53662 12.2598V12.3916L7.82227 13.8198C7.58789 14.6108 7.31689 16.8521 7.00928 20.5435C6.68701 22.3159 6.1377 26.7544 5.36133 33.8589C5.61035 33.8442 6.33545 32.416 7.53662 29.5742C8.89893 27.5381 10.1001 25.5898 11.1401 23.7295H10.5908V23.6636C11.1768 22.9604 11.748 21.7153 12.3047 19.9282C14.7217 14.3472 15.9888 11.3149 16.106 10.8315C16.3403 9.13232 16.5454 8.06299 16.7212 7.62354C15.9009 7.22803 15.4248 6.91309 15.293 6.67871L15.3589 6.61279H15.4248L18.5449 6.81055C18.5449 6.37109 17.7319 5.60205 16.106 4.50342C15.3296 3.69775 12.8174 2.38672 8.56934 0.570312V0.438477ZM9.03076 5.99756C9.14795 5.99756 9.26514 6.22461 9.38232 6.67871C9.26514 6.67871 9.14795 6.45166 9.03076 5.99756ZM9.38232 6.74463L9.51416 6.87646V7.03027L9.38232 6.87646V6.74463ZM46.5601 10.6777H47.0215V10.7876L46.6699 10.8315H46.0327V10.7217L46.5601 10.6777ZM51.1084 10.6118V10.7217C50.918 10.7217 49.834 11.4761 47.8564 12.9849L45.7251 14.3911H45.6152L45.4614 13.8638H45.3955C45.3955 14.186 45.1392 14.3472 44.6265 14.3472C44.4214 14.5229 44.0845 14.7134 43.6157 14.9185C43.6157 15.1235 43.0957 15.3872 42.0557 15.7095H41.9897L41.8359 15.5996L37.9688 16.3906L34.7168 22.2573H34.8267L38.1226 21.2466L34.4092 22.7627V22.8286H34.4531C35.9033 22.4771 38.7158 22.0742 42.8906 21.6201L44.2969 21.5103V21.6201L31.6187 28.168L30.8496 30.1016V30.1675H30.8936C30.8936 30.0063 31.2451 29.6035 31.9482 28.959H31.9922C31.9922 29.0615 31.2964 30.4897 29.9048 33.2437H29.9487C38.9575 31.5005 44.6338 30.2627 46.9775 29.5303C46.9922 29.457 47.0947 29.4058 47.2852 29.3765V29.4204C46.333 30.27 44.9194 31.1636 43.0444 32.1011L40.6934 33.3096L40.3857 33.6611V33.7271L42.8906 32.6284L43.5278 32.5186C43.6597 32.5186 43.7622 32.5845 43.8354 32.7163C43.3521 33.1851 42.4072 33.6611 41.001 34.1445C34.8193 36.0635 30.8569 37.4404 29.1138 38.2754C26.4185 39.2422 24.7046 39.9746 23.9722 40.4727H23.9282V40.4287C24.2798 39.5498 24.5947 37.8872 24.873 35.4409L26.6968 28.7393L27.0264 26.2783C27.1875 26.2783 27.3633 25.6704 27.5537 24.4546V24.1909H27.4878V24.3008H27.3779C28.1543 21.6055 28.5425 19.335 28.5425 17.4893H27.4438V17.3794L28.5864 17.0059V15.8633C26.8579 16.0391 25.4297 16.127 24.3018 16.127L24.2358 16.061H24.1919L27.1802 11.0952H27.1143C27.0117 11.0952 26.9604 11.0586 26.9604 10.9854L27.0264 10.9414H27.29C27.29 11.0439 27.356 11.0952 27.4878 11.0952L28.916 11.2051L32.7393 11.0293L37.1777 11.1392L42.4731 10.8755L45.9229 11.0293C46.4941 11.0293 47.1094 10.9268 47.7686 10.7217L51.1084 10.6118ZM23.7744 40.6265V40.6924L23.6206 41H23.5107V40.9561L23.7744 40.6265ZM51.8115 10.5679H51.8774C53.2104 10.5679 55.4736 11.1758 58.667 12.3916C58.8428 12.5527 59.2822 12.7798 59.9854 13.0728C59.3408 12.355 59.0186 11.8276 59.0186 11.4907H59.1284C59.1284 11.6665 59.6411 12.0327 60.6665 12.5894L62.8418 15.248L63.8965 16.1929V17.687H63.9624C63.9624 17.4673 64.2993 16.9546 64.9731 16.1489V16.083H65.061V16.1489C65.061 16.6909 64.519 18.1411 63.4351 20.4995C62.2925 24.4692 61.7212 28.124 61.7212 31.4639V31.5078H61.7871C61.9922 30.1309 63.208 27.2891 65.4346 22.9824V22.9385H65.3906L64.27 23.8394V23.7295C65.2075 22.1035 66.4453 20.1406 67.9834 17.8408C68.2764 17.2256 68.7744 15.8853 69.4775 13.8198H69.5654L69.6753 18.2583C69.6753 18.7563 69.5728 19.8184 69.3677 21.4443L69.4116 21.6641L68.313 24.3667C68.313 24.8794 67.8516 26.2344 66.9287 28.4316C64.8779 34.5547 63.8525 37.8579 63.8525 38.3413L63.2593 41H63.2153L59.0186 35.7046L58.4033 34.0566H58.3374L58.2275 35.4409H58.1177V35.375C57.9858 34.6426 57.8687 31.2002 57.7661 25.0479V24.1909L57.8101 20.2798V18.4121C57.356 18.9834 56.6162 20.6973 55.5908 23.5537L56.1621 22.9385V22.9824C54.917 26.1025 53.291 29.7061 51.2842 33.793C50.6104 35.2432 49.6069 37.6089 48.2739 40.8901H48.1641C49.5117 35.2505 50.1855 31.9839 50.1855 31.0903C50.3906 29.7134 51.1816 26.5347 52.5586 21.5542L52.5146 21.4004H52.4487L50.603 24.147H50.5591V24.103C50.5591 23.8247 50.9106 22.9238 51.6138 21.4004L53.877 11.9082C52.8662 11.2197 52.1777 10.8096 51.8115 10.6777V10.5679ZM83.6499 10.1284H83.7598C85.1807 10.4653 86.228 10.7949 86.9019 11.1172C87.2095 11.3369 88.3521 11.6812 90.3296 12.1499C91.2085 12.4722 91.875 12.6333 92.3291 12.6333H92.439L92.7246 12.5894C92.7979 12.9409 93.0688 13.2632 93.5376 13.5562C94.5923 14.7866 95.2222 16.0537 95.4272 17.3574C95.7202 18.3242 95.8667 18.9761 95.8667 19.313C94.9878 23.9858 94.2627 27.084 93.6914 28.6074C93.1348 29.8965 92.0288 31.127 90.3735 32.2988V32.3647H90.4395C91.084 31.9839 91.7358 31.7129 92.395 31.5518L92.439 31.5957V31.6616C91.9116 32.3794 91.1133 33.1045 90.0439 33.8369C89.1064 34.4668 86.9385 36.0781 83.54 38.6709C80.9619 40.2236 79.6216 41 79.519 41C79.519 40.707 79.0796 40.2529 78.2007 39.6377C77.9077 39.0664 77.6953 38.7222 77.5635 38.605C75.3662 36.2466 73.8574 34.0054 73.0371 31.8813C72.7148 31.1196 72.4805 29.9038 72.334 28.2339L70.708 30.2334V30.1895C70.708 30.0283 71.3452 28.7246 72.6196 26.2783C72.9419 25.1943 74.2456 21.9351 76.5308 16.5005C77.688 14.5815 78.2666 13.2925 78.2666 12.6333V12.4795L79.9365 12.084V11.9741C79.541 11.813 79.3433 11.6885 79.3433 11.6006V11.271L79.4531 11.1611L85.2759 11.4907C85.0122 11.1831 84.4702 10.729 83.6499 10.1284ZM85.8252 14.8525V14.9185C87.2314 16.2075 87.9346 16.9692 87.9346 17.2036C87.9346 17.2769 85.957 17.4233 82.002 17.6431L81.8042 17.687V17.731L82.771 18.0166V18.0605C81.7749 19.1738 80.9033 20.6973 80.1562 22.6309L78.4863 25.9487L77.8271 28.0142H77.7173L77.8271 26.7617V26.7178H77.7832L76.9043 28.7173H76.8384V28.937C76.9263 28.937 77.1094 29.3911 77.3877 30.2993C77.3877 30.4019 78.0615 31.5591 79.4092 33.771L79.4531 33.9248H79.519V33.8809L79.4092 33.5513H79.4531L80.1562 33.8809C80.2588 33.8809 80.7129 33.5732 81.5186 32.958C85.5322 30.8633 88.0005 29.4717 88.9233 28.7832L89.1211 28.2339L88.9673 28.124L87.4512 28.7173V28.6733C87.4658 28.5562 88.3667 27.7212 90.1538 26.1685C90.6226 25.4653 91.0986 23.832 91.582 21.2686L91.626 20.1919L91.582 17.731H91.5161C91.4282 18.9321 91.3403 19.5327 91.2524 19.5327C90.4028 18.0386 89.4946 16.896 88.5278 16.105C87.356 15.27 86.4551 14.8525 85.8252 14.8525ZM95.4932 17.2476H95.603L95.8228 18.0166C95.7202 18.0166 95.6104 17.7603 95.4932 17.2476ZM109.094 10.7437H109.292V10.8535L108.875 10.9634L109.094 10.7437ZM119.729 10.7876C120.037 10.7876 120.908 11.2783 122.344 12.2598C124.204 13.4463 125.5 14.0396 126.233 14.0396V14.1055C126.233 14.208 126.16 14.2593 126.013 14.2593V14.3032H126.079L126.233 14.2593L126.277 14.3032V14.3691C126.277 15.0137 125.735 16.0757 124.651 17.5552C123.054 20.3823 121.15 24.6816 118.938 30.4531L117.993 32.6064H117.905L118.674 29.6841V29.6182H118.63C117.415 32.2256 115.928 34.7964 114.17 37.3306C113.379 38.5757 112.595 39.6743 111.819 40.6265H111.709C112.236 37.3892 112.844 34.7671 113.533 32.7603C114.412 30.4604 115.43 27.9482 116.587 25.2236V25.1577H116.521C116.521 25.2456 116.279 25.6704 115.796 26.4321C115.796 26.9448 114.902 28.2705 113.115 30.4092C111.958 32.2256 110.076 34.6572 107.468 37.7041C107.249 37.9824 106.963 38.2095 106.611 38.3853V38.4292H106.523V37.5942L106.721 31.4639C106.589 30.9365 106.523 30.3433 106.523 29.6841L107.249 22.0156V21.9717H107.205C106.575 23.6709 105.769 25.5752 104.788 27.6846L104.304 30.3652H104.26C104.114 30.3652 104.041 29.9624 104.041 29.1567H103.997C103.542 31.061 102.861 32.8921 101.953 34.6499C101.177 35.646 100.181 37.6895 98.9648 40.7803C98.8916 40.7803 98.855 40.8389 98.855 40.9561L98.811 41H98.7012L100.107 34.4961V34.4521H100.063L97.4487 40.6924H97.3389C99.3018 33.8223 100.913 27.5088 102.173 21.752C102.378 21.0342 102.48 20.5801 102.48 20.3896H102.59L102.634 20.7632H102.678L102.854 19.4009L102.788 19.1812C102.964 18.8296 103.125 18.1484 103.271 17.1377C103.403 15.5996 103.63 14.8306 103.953 14.8306C104.084 14.5962 104.15 14.4204 104.15 14.3032C103.022 14.5815 102.327 14.7207 102.063 14.7207H101.843L101.733 14.6328C101.836 14.5303 102.437 14.2812 103.535 13.8857C103.711 13.7686 103.799 13.644 103.799 13.5122H103.733L101.843 13.7759V13.688C102.415 13.5122 104.744 12.604 108.831 10.9634L108.875 11.0073H108.918L113.027 11.3149L113.115 11.5347L112.5 13.5122C112.075 15.6069 111.863 17.1157 111.863 18.0386V18.3022L112.126 21.1807H112.17C112.17 20.7998 112.485 19.9062 113.115 18.5C113.262 18.1924 113.372 17.7749 113.445 17.2476H113.533C113.533 18.9614 112.522 22.4551 110.5 27.7285L110.039 28.7832L111.907 25.9927C112.903 24.9526 114.375 23.0996 116.323 20.4336C118.403 17.7676 119.714 15.9878 120.256 15.0942C120.535 14.6401 120.828 14.4131 121.135 14.4131C121.135 14.208 120.828 13.8052 120.212 13.2046L120.146 13.1606V13.0947L120.3 13.0508L121.729 13.7319L119.729 10.8975V10.7876ZM125.332 14.6768C124.79 15.043 124.446 15.3213 124.299 15.5117H124.343C124.988 14.9844 125.354 14.7207 125.442 14.7207V14.6768H125.332ZM164.268 0.592285V0.526367H164.333C165.549 0.526367 167.834 1.61035 171.189 3.77832L171.475 3.84424L172.156 3.33887C171.965 3.33887 171.87 2.92139 171.87 2.08643V1.40527L172.002 1.27344C172.456 2.0791 172.859 2.9873 173.21 3.99805V4.96484C173.21 6.3418 173.459 7.03027 173.958 7.03027V7.18408C173.43 7.98975 170.728 9.22021 165.85 10.8755C165.073 11.2271 164.297 11.6738 163.521 12.2158H163.433C164.224 11.2197 164.648 10.5532 164.707 10.2163C164.062 10.5532 163.667 10.7217 163.521 10.7217C164.663 9.68164 165.637 9.04443 166.443 8.81006V8.72217H166.377C161.089 9.42529 157.324 10.1431 155.083 10.8755C152.695 11.4761 151.399 11.8716 151.194 12.062C150.857 12.6333 150.454 12.9995 149.985 13.1606V13.0947L150.359 11.6226V11.5347H150.271C149.128 13.6001 148.557 14.9111 148.557 15.4678L148.623 15.9731L147.415 17.1597C148.601 17.4233 149.333 17.6943 149.612 17.9727L153.281 18.1265L167.058 17.9067C171.438 18.0532 174.368 18.2729 175.847 18.5659V18.6318C175.085 19.335 173.079 20.939 169.827 23.4438L169.519 23.8174H169.607L170.969 23.3779V23.4438C166.194 27.9849 163.03 30.6436 161.477 31.4199C156.936 34.4082 149.67 38.0044 139.68 42.2085L137.725 43.3291L140.801 39.5498C141.504 38.9199 141.929 38.605 142.075 38.605V38.5171H141.855C141.299 38.7075 140.5 39.2788 139.46 40.231V40.1431C140.149 39.1763 141.299 38.1436 142.91 37.0449C143.76 36.3125 149.15 32.123 159.082 24.4766C159.829 23.7441 160.203 23.2534 160.203 23.0044H159.763L158.621 22.9165C158.621 22.7114 158.35 22.5649 157.808 22.4771C156.621 21.9937 153.435 21.5542 148.25 21.1587C146.462 20.8071 144.661 20.2871 142.844 19.5986L141.042 17.9067C142.097 15.1968 142.896 12.582 143.438 10.0625L143.965 8.65625C143.965 8.2168 143.665 7.99707 143.064 7.99707V7.90918C144.28 7.2207 148.088 5.82178 154.49 3.7124C158.708 2.37939 162.268 1.71289 165.168 1.71289C165.168 1.58105 164.868 1.20752 164.268 0.592285ZM172.31 3.25098V3.33887H172.463V3.25098H172.31ZM184.9 10.1284H185.01C186.431 10.4653 187.478 10.7949 188.152 11.1172C188.459 11.3369 189.602 11.6812 191.58 12.1499C192.458 12.4722 193.125 12.6333 193.579 12.6333H193.689L193.975 12.5894C194.048 12.9409 194.319 13.2632 194.788 13.5562C195.842 14.7866 196.472 16.0537 196.677 17.3574C196.97 18.3242 197.117 18.9761 197.117 19.313C196.238 23.9858 195.513 27.084 194.941 28.6074C194.385 29.8965 193.279 31.127 191.624 32.2988V32.3647H191.689C192.334 31.9839 192.986 31.7129 193.645 31.5518L193.689 31.5957V31.6616C193.162 32.3794 192.363 33.1045 191.294 33.8369C190.356 34.4668 188.188 36.0781 184.79 38.6709C182.212 40.2236 180.872 41 180.769 41C180.769 40.707 180.33 40.2529 179.451 39.6377C179.158 39.0664 178.945 38.7222 178.813 38.605C176.616 36.2466 175.107 34.0054 174.287 31.8813C173.965 31.1196 173.73 29.9038 173.584 28.2339L171.958 30.2334V30.1895C171.958 30.0283 172.595 28.7246 173.87 26.2783C174.192 25.1943 175.496 21.9351 177.781 16.5005C178.938 14.5815 179.517 13.2925 179.517 12.6333V12.4795L181.187 12.084V11.9741C180.791 11.813 180.593 11.6885 180.593 11.6006V11.271L180.703 11.1611L186.526 11.4907C186.262 11.1831 185.72 10.729 184.9 10.1284ZM187.075 14.8525V14.9185C188.481 16.2075 189.185 16.9692 189.185 17.2036C189.185 17.2769 187.207 17.4233 183.252 17.6431L183.054 17.687V17.731L184.021 18.0166V18.0605C183.025 19.1738 182.153 20.6973 181.406 22.6309L179.736 25.9487L179.077 28.0142H178.967L179.077 26.7617V26.7178H179.033L178.154 28.7173H178.088V28.937C178.176 28.937 178.359 29.3911 178.638 30.2993C178.638 30.4019 179.312 31.5591 180.659 33.771L180.703 33.9248H180.769V33.8809L180.659 33.5513H180.703L181.406 33.8809C181.509 33.8809 181.963 33.5732 182.769 32.958C186.782 30.8633 189.25 29.4717 190.173 28.7832L190.371 28.2339L190.217 28.124L188.701 28.7173V28.6733C188.716 28.5562 189.617 27.7212 191.404 26.1685C191.873 25.4653 192.349 23.832 192.832 21.2686L192.876 20.1919L192.832 17.731H192.766C192.678 18.9321 192.59 19.5327 192.502 19.5327C191.653 18.0386 190.745 16.896 189.778 16.105C188.606 15.27 187.705 14.8525 187.075 14.8525ZM196.743 17.2476H196.853L197.073 18.0166C196.97 18.0166 196.86 17.7603 196.743 17.2476ZM225.439 10.8535V10.9634H226.033L228.757 11.0073V11.0732C226.824 12.6406 225.659 13.6221 225.264 14.0176C223.11 16.5078 221.191 18.3755 219.507 19.6206C218.452 20.4116 217.888 20.8071 217.815 20.8071V20.7632L220.386 17.5991C220.532 17.4087 220.657 17.1743 220.759 16.896H220.693L220.1 17.2695H219.99L220.276 17.0059H220.21C218.599 17.0059 215.193 17.5845 209.993 18.7417C209.084 18.8149 208.63 18.9761 208.63 19.2251C208.279 19.8989 207.693 21.2246 206.873 23.2021L206.938 23.5977H206.982L207.048 23.5317H207.092V23.5977C207.092 23.7588 206.895 24.374 206.499 25.4434H206.565L213.684 23.1582C213.655 23.2314 212.769 23.6123 211.025 24.3008L209.927 25.0039H209.993L217.485 22.9385V22.9824C216.123 24.2568 214.219 25.3994 211.772 26.4102C209.429 27.377 207.305 28.4316 205.4 29.5742C203.95 31.9473 202.742 34.4155 201.775 36.979C201.086 38.3706 200.017 40.165 198.567 42.3623C198.494 42.3623 198.457 42.2524 198.457 42.0327H198.391L199.314 37.9019C200.002 34.9722 200.347 33.3755 200.347 33.1118V31.0903L200.303 30.4531C200.376 30.4531 200.537 29.6182 200.786 27.9482L202.632 18.5879L203.225 16.2368C202.859 15.9438 202.573 15.7974 202.368 15.7974V15.6875L202.917 15.7534C201.907 14.6841 201.123 14.0835 200.566 13.9517L199.314 13.2485L200.896 12.4355C200.896 12.5234 201.57 12.5967 202.917 12.6553L211.069 12.04C218.599 11.835 222.883 11.5273 223.923 11.1172L225.439 10.8535ZM200.5 29.1128H200.632V29.3105H200.5V29.1128ZM200.435 29.4424H200.566C200.347 30.834 200.237 31.7788 200.237 32.2769H200.105C200.105 31.5151 200.215 30.5703 200.435 29.4424ZM243.809 10.6338C245.625 13.8711 246.694 15.8413 247.017 16.5444L246.973 16.6104H246.907C245.955 16.2734 243.918 16.0098 240.798 15.8193L239.524 15.7534C238.909 16.9106 238.015 18.771 236.843 21.3345C236.375 22.0669 236.111 22.5942 236.052 22.9165C236.272 22.9165 236.382 23.041 236.382 23.29L236.272 23.6636H236.316L238.799 22.4551L238.909 22.6528C238.909 23.1069 237.59 25.1138 234.954 28.6733C234.602 29.479 233.635 30.6729 232.053 32.2549C230.369 33.9395 229.365 35.1333 229.043 35.8364L225.242 41V40.8901C225.989 39.4253 227.029 36.7227 228.362 32.7822C229.695 29.0469 230.361 26.1318 230.361 24.0371L228.406 26.4102H228.362V26.3442C228.362 25.4946 229.343 23.1582 231.306 19.335L231.79 17.709H230.208L228.625 17.6431C225.681 17.6431 223.081 17.9067 220.825 18.4341C220.869 18.3608 221.785 17.7822 223.572 16.6982C225.886 15.1309 228.113 13.8711 230.251 12.9189V12.853H230.208L227.681 13.4463V13.3364L231.306 12.3257C231.306 12.3989 231.116 12.5088 230.735 12.6553V12.6992H230.845C235.649 11.7471 239.019 11.271 240.952 11.271H241.172C241.523 11.3589 241.699 11.4834 241.699 11.6445H241.743V10.7437H241.853L243.391 13.2266C243.596 11.498 243.735 10.6338 243.809 10.6338ZM252.532 10.1724C252.957 11.8716 253.323 12.7505 253.63 12.8091C253.264 14.8013 252.861 16.2661 252.422 17.2036C251.44 20.2212 250.95 22.8433 250.95 25.0698L250.884 25.3335C251.748 24.6157 252.737 23.6489 253.85 22.4331V22.543L253.586 23.1362L256.443 20.2798L258.97 17.5771H259.014L259.124 20.8291C258.904 24.2129 258.743 27.4722 258.64 30.6069V30.6729H258.684C261.877 23.3193 264.001 18.5513 265.056 16.3687C265.569 15.1235 266.309 13.5854 267.275 11.7544L267.319 11.3809H267.429C267.429 12.3037 266.895 14.3325 265.825 17.4673C265.825 18.4634 265.371 20.7046 264.463 24.1909L264.353 25.3335V25.3994H264.397C264.602 24.8867 264.99 24.4253 265.562 24.0151L265.605 24.0811C264.653 26.1318 264.177 27.4502 264.177 28.0361C263.972 28.9297 263.679 31.105 263.298 34.562C262.903 36.2319 262.705 37.6089 262.705 38.6929V38.8467H262.595C262.449 37.4258 262.302 36.5469 262.156 36.21H262.09C262.09 37.3379 261.233 38.9126 259.519 40.9341H259.453L259.739 39.7256L259.563 39.6816V39.6157L259.673 39.4619V38.583C259.673 38.0703 259.622 37.5356 259.519 36.979C257.805 38.5317 256.501 39.6523 255.608 40.3408H255.498C256.128 32.2549 256.553 27.3843 256.772 25.729C257.021 24.8208 257.146 24.1396 257.146 23.6855L254.07 27.311C251.257 31.8081 249.719 34.2104 249.456 34.5181C248.079 36.0854 247.185 37.3452 246.775 38.2974C245.925 39.8647 245.5 40.7656 245.5 41H245.391C245.684 39.5645 246.145 34.7451 246.775 26.542L246.709 25.9487H246.599L246.335 26.542H246.226V26.498C246.226 25.9707 246.409 23.876 246.775 20.2139V20.0601L246.555 16.874L247.104 13.0288C247.104 12.897 246.848 12.6406 246.335 12.2598V12.1499L247.808 11.7544V11.7104C246.914 11.3442 246.365 11.1611 246.16 11.1611V11.0513L247.654 10.9414L251.433 10.9854C251.741 10.9854 252.07 10.7144 252.422 10.1724H252.532ZM279.954 10.48L279.998 10.436H280.042C280.671 10.436 281.982 10.751 283.975 11.3809C284.136 11.4541 284.436 12.0547 284.875 13.1826C285.139 13.4316 285.403 14.0176 285.667 14.9404L286.721 20.5435H286.611L285.93 19.3789H285.886V19.4448L286.04 21.3564L285.974 24.0591L286.194 26.6958V26.7397L286.15 28.1899C286.399 32.0718 286.729 35.4043 287.139 38.1875L287.578 39.1982H287.512C287.366 39.1104 287.124 38.5464 286.787 37.5063L286.721 37.4404H286.677V37.5063C286.677 38.5024 286.428 39.4399 285.93 40.3188H285.82C285.82 39.1323 284.941 37.2793 283.184 34.7598L282.81 34.0566C283.499 34.7305 284.011 35.0674 284.348 35.0674C284.055 33.5439 283.909 32.6064 283.909 32.2549V31.2002L283.755 28.124H283.711L279.514 31.0464V30.9805L280.481 29.772H280.415C278.804 30.7827 277.412 31.8081 276.24 32.8481C275.054 33.5806 274.329 34.1226 274.065 34.4741C272.747 36.5835 271.157 38.7588 269.297 41V40.8901C269.751 40.2017 270.527 38.0483 271.626 34.4302L278.35 17.5771V17.2256C277.646 18.0605 277.156 18.478 276.877 18.478L276.812 18.4341C277.808 16.1196 278.481 14.6694 278.833 14.0835C279.214 13.6294 279.404 13.2632 279.404 12.9849H278.416C277.947 12.9849 277.061 12.626 275.757 11.9082L275.537 11.8643V11.7544C275.933 11.8276 276.533 11.8643 277.339 11.8643H278.833C279.844 11.8643 280.745 11.9888 281.536 12.2378V12.1719L279.954 10.48ZM274.966 11.6445H275.076V11.7544H274.966V11.6445ZM277.625 28.2339H277.668C278.372 27.8384 279.521 27.2744 281.118 26.542L282.217 25.8389H282.283V25.9048L281.799 26.9595H281.843C282.078 26.9595 282.664 26.6226 283.601 25.9487V25.9048C283.601 24.7183 283.176 23.041 282.327 20.873L282.217 20.4995C281.924 20.8804 280.708 22.9971 278.569 26.8496L277.625 28.2339ZM296.455 11.0073C298.521 11.4028 301.223 11.791 304.563 12.1719C308.298 12.8604 310.4 13.3438 310.869 13.6221C311.323 13.9736 312.598 14.3618 314.692 14.7866C315.586 14.8892 316.033 15.021 316.033 15.1821L315.681 15.248V15.292L319.043 16.3906V16.4565L315.044 20.5654C309.741 24.9307 305.647 27.3623 302.761 27.8604V28.1021C303.699 28.1021 306.094 29.9331 309.946 33.5952C310.225 33.9321 310.364 34.1665 310.364 34.2983H310.298C309.478 33.5659 308.936 33.1997 308.672 33.1997V33.2437C309.785 35.1187 312.319 38.7808 316.274 44.23V44.2959C316.069 44.252 311.682 41.7837 303.113 36.8911L300.696 35.397V35.2651L302.717 35.1113C300.315 32.7383 298.535 30.7827 297.378 29.2446H297.334C296.792 29.8013 296.001 31.3833 294.961 33.9907C291.65 41.1245 289.856 44.6987 289.578 44.7134H289.512C290.552 38.3853 291.226 34.4888 291.533 33.0239V32.958H291.489C291.05 34.2764 290.72 35.0308 290.5 35.2212H290.435C290.859 30.9292 291.321 28.168 291.819 26.9375C292.595 24.8867 293.372 22.0669 294.148 18.478C294.924 16.8521 295.312 15.7754 295.312 15.248C294.858 14.9404 294.47 14.6255 294.148 14.3032V14.2593L295.181 13.9077V13.8418H294.5L293.621 13.7979V13.666L296.521 12.6992V12.5674L294.368 11.8862V11.7764L298.323 11.8862C298.323 11.6958 297.7 11.4468 296.455 11.1392V11.0073ZM307.002 17.9067V17.9507L307.178 19.1152L307.112 19.1812C306.584 18.8442 304.849 18.5146 301.904 18.1924C300.366 20.9756 299.092 23.4072 298.081 25.4873C300.234 25.0625 301.758 24.6157 302.651 24.147C304.365 23.1509 305.427 22.5723 305.837 22.4111V22.4771C305.574 22.7993 305.442 23.0923 305.442 23.356C307.668 21.7153 308.84 20.6094 308.958 20.0381L307.002 17.9067ZM295.818 30.1235L297.202 29.0688L296.917 28.7393C296.77 28.8418 296.404 29.3032 295.818 30.1235ZM339.851 10.6777H340.312V10.7876L339.961 10.8315H339.324V10.7217L339.851 10.6777ZM344.399 10.6118V10.7217C344.209 10.7217 343.125 11.4761 341.147 12.9849L339.016 14.3911H338.906L338.752 13.8638H338.687C338.687 14.186 338.43 14.3472 337.917 14.3472C337.712 14.5229 337.375 14.7134 336.907 14.9185C336.907 15.1235 336.387 15.3872 335.347 15.7095H335.281L335.127 15.5996L331.26 16.3906L328.008 22.2573H328.118L331.414 21.2466L327.7 22.7627V22.8286H327.744C329.194 22.4771 332.007 22.0742 336.182 21.6201L337.588 21.5103V21.6201L324.91 28.168L324.141 30.1016V30.1675H324.185C324.185 30.0063 324.536 29.6035 325.239 28.959H325.283C325.283 29.0615 324.587 30.4897 323.196 33.2437H323.24C332.249 31.5005 337.925 30.2627 340.269 29.5303C340.283 29.457 340.386 29.4058 340.576 29.3765V29.4204C339.624 30.27 338.21 31.1636 336.335 32.1011L333.984 33.3096L333.677 33.6611V33.7271L336.182 32.6284L336.819 32.5186C336.951 32.5186 337.053 32.5845 337.126 32.7163C336.643 33.1851 335.698 33.6611 334.292 34.1445C328.11 36.0635 324.148 37.4404 322.405 38.2754C319.709 39.2422 317.996 39.9746 317.263 40.4727H317.219V40.4287C317.571 39.5498 317.886 37.8872 318.164 35.4409L319.988 28.7393L320.317 26.2783C320.479 26.2783 320.654 25.6704 320.845 24.4546V24.1909H320.779V24.3008H320.669C321.445 21.6055 321.833 19.335 321.833 17.4893H320.735V17.3794L321.877 17.0059V15.8633C320.149 16.0391 318.721 16.127 317.593 16.127L317.527 16.061H317.483L320.471 11.0952H320.405C320.303 11.0952 320.251 11.0586 320.251 10.9854L320.317 10.9414H320.581C320.581 11.0439 320.647 11.0952 320.779 11.0952L322.207 11.2051L326.03 11.0293L330.469 11.1392L335.764 10.8755L339.214 11.0293C339.785 11.0293 340.4 10.9268 341.06 10.7217L344.399 10.6118ZM317.065 40.6265V40.6924L316.912 41H316.802V40.9561L317.065 40.6265Z" fill="#00FFC3"/>
</svg>
