<svg width="75" height="46" viewBox="0 0 75 46" fill="none" xmlns="http://www.w3.org/2000/svg">
<g clip-path="url(#clip0_39_237)">
<path d="M46.4194 25.195V8.97095C46.4194 4.0083 42.3913 0 37.4041 0C32.4169 0 28.3887 4.0083 28.3887 8.97095V25.3859C28.3887 30.3485 32.4169 34.3568 37.4041 34.3568C42.3913 34.3568 46.4194 30.1577 46.4194 25.195ZM44.8849 16.4149H29.9233V14.888C30.3069 14.888 30.6905 14.5062 30.6905 14.1245C30.6905 13.7427 30.4987 13.361 30.1151 13.361V9.73444C30.4987 9.73444 30.8823 9.3527 30.8823 8.97095C30.8823 8.58921 30.4987 8.20747 30.1151 8.20747C30.3069 5.53527 32.0332 3.24481 34.335 2.29046H34.5268C34.7187 2.29046 35.1023 2.09959 35.1023 1.90871C35.6777 1.71784 36.2532 1.52697 36.6368 1.52697C36.6368 1.90871 37.0204 2.29046 37.4041 2.29046C37.7877 2.29046 38.1713 1.90871 38.1713 1.52697C38.7468 1.52697 39.3222 1.71784 39.7059 1.90871C39.8977 2.09959 40.0895 2.29046 40.2813 2.29046H40.4731C42.7749 3.43568 44.5013 5.53527 44.6931 8.20747C44.3094 8.20747 43.9258 8.58921 43.9258 8.97095C43.9258 9.3527 44.3094 9.73444 44.6931 9.73444V13.361C44.5013 13.361 44.1176 13.7427 44.1176 14.1245C44.1176 14.5062 44.5013 14.888 44.8849 14.888V16.4149ZM44.8849 19.278H29.9233V17.751H44.8849V19.278ZM44.8849 25.195C44.8849 29.2033 41.624 32.639 37.4041 32.639C33.1841 32.639 29.9233 29.3942 29.9233 25.195V20.805H44.8849V25.195ZM27.046 25.195V15.6515H25.5115V25.3859C25.5115 30.9212 29.3478 35.5021 34.5268 36.8382V44.6639H25.5115V46.1909H34.5268H40.4731H49.4885V44.6639H40.4731V36.8382C45.6522 35.5021 49.4885 30.9212 49.4885 25.3859V15.6515H47.954V25.3859C47.954 31.112 43.3504 35.6929 37.5959 35.6929C31.8414 35.6929 27.046 30.9212 27.046 25.195ZM36.0614 44.473V37.029C36.6368 37.029 37.0204 37.2199 37.5959 37.2199C38.1713 37.2199 38.555 37.2199 39.1304 37.029V44.473H36.0614ZM52.3657 20.805H50.8312V15.6515H52.3657V20.805ZM23.977 20.805H22.4424V15.6515H23.977V20.805ZM42.7749 14.1245C42.7749 14.5062 42.3913 14.888 42.0077 14.888C41.624 14.888 41.2404 14.5062 41.2404 14.1245C41.2404 13.7427 41.624 13.361 42.0077 13.361C42.3913 13.361 42.7749 13.7427 42.7749 14.1245ZM39.7059 14.1245C39.7059 14.5062 39.3222 14.888 38.9386 14.888C38.555 14.888 38.1713 14.5062 38.1713 14.1245C38.1713 13.7427 38.555 13.361 38.9386 13.361C39.3222 13.361 39.7059 13.7427 39.7059 14.1245ZM36.8286 14.1245C36.8286 14.5062 36.445 14.888 36.0614 14.888C35.6777 14.888 35.2941 14.5062 35.2941 14.1245C35.2941 13.7427 35.6777 13.361 36.0614 13.361C36.445 13.361 36.8286 13.7427 36.8286 14.1245ZM33.7596 14.1245C33.7596 14.5062 33.3759 14.888 32.9923 14.888C32.6087 14.888 32.2251 14.5062 32.2251 14.1245C32.2251 13.7427 32.6087 13.361 32.9923 13.361C33.3759 13.361 33.7596 13.7427 33.7596 14.1245ZM44.1176 11.0705C44.1176 11.4523 43.734 11.834 43.3504 11.834C42.9667 11.834 42.7749 11.4523 42.7749 11.0705C42.7749 10.6888 43.1586 10.3071 43.5422 10.3071C43.9258 10.3071 44.1176 10.6888 44.1176 11.0705ZM41.2404 11.0705C41.2404 11.4523 40.8568 11.834 40.4731 11.834C40.0895 11.834 39.7059 11.4523 39.7059 11.0705C39.7059 10.6888 40.0895 10.3071 40.4731 10.3071C40.8568 10.3071 41.2404 10.6888 41.2404 11.0705ZM38.1713 11.0705C38.1713 11.4523 37.7877 11.834 37.4041 11.834C37.0204 11.834 36.8286 11.4523 36.8286 11.0705C36.8286 10.6888 37.2123 10.3071 37.5959 10.3071C37.9795 10.3071 38.1713 10.6888 38.1713 11.0705ZM35.2941 11.0705C35.2941 11.4523 34.9105 11.834 34.5268 11.834C34.1432 11.834 33.7596 11.4523 33.7596 11.0705C33.7596 10.6888 34.1432 10.3071 34.5268 10.3071C34.9105 10.3071 35.2941 10.6888 35.2941 11.0705ZM32.2251 11.0705C32.2251 11.4523 31.8414 11.834 31.4578 11.834C31.0742 11.834 30.6905 11.4523 30.6905 11.0705C30.6905 10.6888 31.0742 10.3071 31.4578 10.3071C31.8414 10.3071 32.2251 10.6888 32.2251 11.0705ZM42.7749 8.97095C42.7749 9.3527 42.3913 9.73444 42.0077 9.73444C41.624 9.73444 41.2404 9.3527 41.2404 8.97095C41.2404 8.58921 41.624 8.20747 42.0077 8.20747C42.3913 8.20747 42.7749 8.58921 42.7749 8.97095ZM39.7059 8.97095C39.7059 9.3527 39.3222 9.73444 38.9386 9.73444C38.555 9.73444 38.1713 9.3527 38.1713 8.97095C38.1713 8.58921 38.555 8.20747 38.9386 8.20747C39.3222 8.20747 39.7059 8.58921 39.7059 8.97095ZM36.8286 8.97095C36.8286 9.3527 36.445 9.73444 36.0614 9.73444C35.6777 9.73444 35.2941 9.3527 35.2941 8.97095C35.2941 8.58921 35.6777 8.20747 36.0614 8.20747C36.445 8.20747 36.8286 8.58921 36.8286 8.97095ZM33.7596 8.97095C33.7596 9.3527 33.3759 9.73444 32.9923 9.73444C32.6087 9.73444 32.2251 9.3527 32.2251 8.97095C32.2251 8.58921 32.6087 8.20747 32.9923 8.20747C33.3759 8.20747 33.7596 8.58921 33.7596 8.97095ZM44.1176 6.6805C44.1176 7.06224 43.734 7.44398 43.3504 7.44398C42.9667 7.44398 42.5831 7.06224 42.5831 6.6805C42.5831 6.29876 42.9667 5.91701 43.3504 5.91701C43.734 5.91701 44.1176 6.29876 44.1176 6.6805ZM41.2404 6.6805C41.2404 7.06224 40.8568 7.44398 40.4731 7.44398C40.0895 7.44398 39.7059 7.06224 39.7059 6.6805C39.7059 6.29876 40.0895 5.91701 40.4731 5.91701C40.8568 5.91701 41.2404 6.29876 41.2404 6.6805ZM38.1713 6.6805C38.1713 7.06224 37.7877 7.44398 37.4041 7.44398C37.0204 7.44398 36.6368 7.06224 36.6368 6.6805C36.6368 6.29876 37.0204 5.91701 37.4041 5.91701C37.7877 5.91701 38.1713 6.29876 38.1713 6.6805ZM35.2941 6.6805C35.2941 7.06224 34.9105 7.44398 34.5268 7.44398C34.1432 7.44398 33.7596 7.06224 33.7596 6.6805C33.7596 6.29876 34.1432 5.91701 34.5268 5.91701C34.9105 5.91701 35.2941 6.29876 35.2941 6.6805ZM32.2251 6.6805C32.2251 7.06224 31.8414 7.44398 31.4578 7.44398C31.0742 7.44398 30.6905 7.06224 30.6905 6.6805C30.6905 6.29876 31.0742 5.91701 31.4578 5.91701C31.8414 5.91701 32.2251 6.29876 32.2251 6.6805ZM42.7749 4.39004C42.7749 4.77178 42.3913 5.15353 42.0077 5.15353C41.624 5.15353 41.2404 4.77178 41.2404 4.39004C41.2404 4.0083 41.624 3.62656 42.0077 3.62656C42.3913 3.62656 42.7749 4.0083 42.7749 4.39004ZM39.7059 4.39004C39.7059 4.77178 39.3222 5.15353 38.9386 5.15353C38.555 5.15353 38.1713 4.77178 38.1713 4.39004C38.1713 4.0083 38.555 3.62656 38.9386 3.62656C39.3222 3.62656 39.7059 4.0083 39.7059 4.39004ZM36.8286 4.39004C36.8286 4.77178 36.445 5.15353 36.0614 5.15353C35.6777 5.15353 35.2941 4.77178 35.2941 4.39004C35.2941 4.0083 35.6777 3.62656 36.0614 3.62656C36.445 3.62656 36.8286 4.0083 36.8286 4.39004ZM33.7596 4.39004C33.7596 4.77178 33.3759 5.15353 32.9923 5.15353C32.6087 5.15353 32.2251 4.77178 32.2251 4.39004C32.2251 4.0083 32.6087 3.62656 32.9923 3.62656C33.3759 3.62656 33.7596 4.0083 33.7596 4.39004Z" fill="url(#paint0_linear_39_237)"/>
<path d="M17.8389 33.2116C11.1253 21.5685 17.8389 12.9793 17.8389 12.7884L19.3734 13.9336C19.1816 14.3154 13.4271 21.7593 19.3734 32.0664L17.8389 33.2116Z" fill="#00FFC3"/>
<g opacity="0.5">
<path opacity="0.5" d="M12.468 38.7469C2.10997 20.9958 12.468 7.63484 12.468 7.44397L14.0025 8.5892C13.6189 9.16181 4.41176 21.1867 14.0025 37.7925L12.468 38.7469Z" fill="#00FFC3"/>
</g>
<g opacity="0.3">
<path opacity="0.3" d="M5.94629 42.9461C-7.28901 20.4232 5.94629 3.43568 5.94629 3.24481L7.48081 4.39004C6.90537 4.96265 -4.98722 20.6141 7.48081 41.9917L5.94629 42.9461Z" fill="#00FFC3"/>
</g>
<path d="M57.1611 33.2116C63.8747 21.5685 57.1611 12.9793 57.1611 12.7884L55.6266 13.9336C55.8184 14.3154 61.5729 21.7593 55.6266 32.0664L57.1611 33.2116Z" fill="#00FFC3"/>
<g opacity="0.5">
<path opacity="0.5" d="M62.532 38.7469C72.89 20.9958 62.532 7.63484 62.532 7.44397L60.9974 8.5892C61.3811 9.16181 70.5882 21.1867 60.9974 37.7925L62.532 38.7469Z" fill="#00FFC3"/>
</g>
<g opacity="0.3">
<path opacity="0.3" d="M69.0537 42.9461C82.289 20.4232 69.0537 3.43568 69.0537 3.24481L67.5192 4.39004C68.0946 4.96265 79.9872 20.6141 67.5192 41.9917L69.0537 42.9461Z" fill="#00FFC3"/>
</g>
</g>
<defs>
<linearGradient id="paint0_linear_39_237" x1="37.4866" y1="-0.437477" x2="37.4866" y2="44.5645" gradientUnits="userSpaceOnUse">
<stop stop-color="#00FFC3"/>
<stop offset="0.9765" stop-color="#05BA8F"/>
</linearGradient>
<clipPath id="clip0_39_237">
<rect width="75" height="46" fill="white"/>
</clipPath>
</defs>
</svg>
