<svg width="21" height="21" viewBox="0 0 21 21" fill="none" xmlns="http://www.w3.org/2000/svg">
<path d="M4.15511 4.56776L2.95455 3.36721C1.0493 5.27239 0 7.80558 0 10.5C0 13.1944 1.0493 15.7276 2.95455 17.6328L4.15518 16.4322C2.57054 14.8477 1.6979 12.7409 1.6979 10.5C1.6979 8.25906 2.57054 6.15233 4.15511 4.56776Z" fill="#00FFC3"/>
<path d="M5.81084 5.79895C4.55511 7.05455 3.86357 8.72414 3.86357 10.5C3.86357 12.2759 4.55511 13.9455 5.81084 15.2011L7.01147 14.0004C6.07635 13.0655 5.56147 11.8223 5.56147 10.5C5.56147 9.1777 6.07635 7.93448 7.01147 6.99951L5.81084 5.79895Z" fill="#00FFC3"/>
<path d="M18.0454 3.36721L16.8448 4.56784C18.4295 6.15233 19.302 8.25913 19.302 10.5001C19.302 12.741 18.4294 14.8478 16.8448 16.4322L18.0454 17.6329C19.9507 15.7276 21 13.1945 21 10.5001C21 7.80565 19.9507 5.27239 18.0454 3.36721Z" fill="#00FFC3"/>
<path d="M15.1892 5.79895L13.9885 6.99951C14.9237 7.93448 15.4385 9.17762 15.4385 10.5C15.4385 11.8224 14.9237 13.0655 13.9885 14.0004L15.1892 15.2011C16.4449 13.9455 17.1364 12.2759 17.1364 10.5C17.1364 8.72414 16.4449 7.05455 15.1892 5.79895Z" fill="#00FFC3"/>
<path d="M10.5118 8.12082C9.90291 8.12082 9.29415 8.35315 8.82949 8.81774C7.90053 9.74684 7.90053 11.2531 8.82949 12.1823C9.29415 12.6468 9.90298 12.8792 10.5118 12.8792C11.1207 12.8792 11.7295 12.6469 12.1941 12.1823C13.123 11.2531 13.123 9.74684 12.1941 8.81774C11.7295 8.35315 11.1207 8.12082 10.5118 8.12082ZM10.9935 10.9817C10.8199 11.1553 10.6172 11.1813 10.5118 11.1813C10.4065 11.1813 10.2037 11.1553 10.0302 10.9819C9.76453 10.7162 9.76453 10.2839 10.03 10.0184C10.2037 9.84475 10.4064 9.81879 10.5118 9.81879C10.6172 9.81879 10.8198 9.84475 10.9935 10.0183C11.259 10.2838 11.259 10.7162 10.9935 10.9817Z" fill="#00FFC3"/>
</svg>
