<svg width="139" height="39" viewBox="0 0 139 39" fill="none" xmlns="http://www.w3.org/2000/svg">
<path d="M11.3513 10.5V18.6428C11.3513 18.6428 11.3513 18.8571 11.5655 18.8571H22.7026C22.7026 18.8571 22.9168 18.8571 22.9168 18.6428V8.7857C22.9168 8.7857 22.9168 8.7857 22.9168 8.57141C22.9168 8.57141 22.9168 8.57141 22.7026 8.57141L11.3513 10.5C11.5655 10.2857 11.3513 10.5 11.3513 10.5Z" fill="#00FFC3"/>
<path d="M8.56703 29.7857C8.7812 29.7857 8.7812 29.7857 8.56703 29.7857L8.7812 21.6429C8.7812 21.6429 8.7812 21.4286 8.56703 21.4286H0.214176C0.214176 21.4286 0.214176 21.4286 0 21.4286C0 21.4286 0 21.4286 0 21.6429V28.5C0 28.5 0 28.7143 0.214176 28.7143L8.56703 29.7857Z" fill="#00FFC3"/>
<path d="M0.214176 18.8571H8.56703C8.56703 18.8571 8.7812 18.8571 8.7812 18.6429V10.7143C8.7812 10.7143 8.7812 10.7143 8.7812 10.5C8.7812 10.5 8.7812 10.5 8.56703 10.5L0.214176 11.5714C0.214176 11.5714 0 11.5714 0 11.7857L0.214176 18.8571C0 18.8571 0 18.8571 0.214176 18.8571Z" fill="#00FFC3"/>
<path d="M22.7026 31.7143C22.7026 31.7143 22.9168 31.7143 22.7026 31.7143C22.9168 31.5 22.9168 31.5 22.7026 31.7143L22.9168 21.6429C22.9168 21.6429 22.9168 21.6429 22.9168 21.4286C22.9168 21.4286 22.9168 21.4286 22.7026 21.4286H11.5655C11.5655 21.4286 11.3513 21.4286 11.3513 21.6429V29.7857C11.3513 29.7857 11.3513 30 11.5655 30L22.7026 31.7143Z" fill="#00FFC3"/>
<path d="M138.357 27C137.715 26.7857 137.287 26.3571 137.287 25.7143C137.287 25.0714 136.858 24.4286 136.644 24.2143C136.858 23.7857 137.072 22.2857 136.644 21C136.216 19.7143 134.716 17.5714 133.217 15.4286C132.789 14.7857 132.789 13.7143 132.789 12.6428C132.789 11.5714 132.789 10.5 132.146 9.21427C131.504 7.71427 130.219 7.07141 128.72 7.07141C127.863 7.07141 126.792 7.2857 126.149 7.92855C124.65 8.99998 124.864 11.1428 125.079 12.6428C125.079 12.8571 125.079 13.0714 125.079 13.2857C125.079 14.7857 125.079 15.4286 125.079 15.6428C125.079 15.8571 124.65 16.2857 124.436 16.7143C124.008 17.1428 123.579 17.7857 123.365 18.2143C122.937 18.8571 122.723 19.7143 122.294 20.5714C122.08 21.2143 121.866 21.8571 121.652 22.2857C121.223 22.9286 121.438 23.5714 121.438 24C121.223 24 121.009 24.2143 120.795 24.6428C120.581 25.0714 120.153 25.2857 119.296 25.5C118.867 25.5 118.653 25.7143 118.439 26.1428C118.225 26.5714 118.439 27 118.439 27.4286C118.653 27.8571 118.439 28.2857 118.225 28.7143C118.225 28.9286 118.225 28.9286 118.011 29.1428C118.011 29.3571 118.011 29.5714 118.011 29.7857C118.439 30.4286 119.296 30.4286 120.367 30.6428C121.009 30.6428 121.652 31.0714 122.294 31.2857C122.937 31.5 123.579 31.7143 124.222 31.9286H124.436C125.293 31.9286 125.721 31.2857 125.935 31.0714C126.364 31.0714 127.434 30.8571 128.72 30.8571C130.005 30.8571 131.075 31.0714 131.29 31.0714C131.29 31.2857 131.718 31.7143 132.146 31.9286C132.361 32.1428 132.789 32.1428 133.003 32.1428C133.431 32.1428 134.074 32.1428 134.502 31.5C135.145 30.8571 136.43 30.2143 137.287 29.5714C137.501 29.3571 137.715 29.3571 137.929 29.1428C138.572 28.9286 138.786 28.5 138.786 27.8571C139 27.4286 138.786 27.2143 138.357 27ZM126.149 27C126.149 26.5714 125.507 25.9286 124.65 25.5C124.008 25.0714 123.365 24.4286 123.151 24C122.723 23.1428 123.151 21.4286 123.579 20.7857C123.793 20.3571 124.008 19.7143 124.222 19.0714C124.436 18.4286 124.65 17.7857 124.864 17.3571C125.293 16.9286 125.721 16.0714 125.721 15.2143C126.149 15.6428 126.792 16.0714 127.22 16.0714H127.434C127.863 15.8571 128.291 15.6428 128.934 15.4286C129.362 15.2143 130.005 14.7857 130.219 14.7857C130.647 15.2143 132.789 19.9286 133.003 21.4286C133.217 22.7143 133.003 23.5714 133.003 24H132.789C132.146 24 132.146 24.2143 131.932 24.4286C131.932 24.8571 131.718 26.5714 131.718 26.7857C131.504 27 130.433 28.2857 128.934 28.5C128.291 28.5 127.649 28.7143 127.22 28.7143C126.792 28.7143 126.578 28.7143 126.364 28.7143L125.507 27.8571C125.935 27.8571 126.149 27.4286 126.149 27ZM127.006 12.2143C126.792 11.5714 126.578 11.1428 126.149 11.1428C125.935 11.1428 125.721 11.3571 125.721 11.5714C125.721 11.1428 126.149 10.7143 126.364 10.7143C126.792 10.7143 127.006 11.1428 127.006 11.7857C127.22 12.2143 127.006 12.2143 127.006 12.2143ZM130.219 12.6428C130.219 12.4286 130.219 12.4286 130.219 12.2143C130.219 11.5714 129.79 11.1428 129.362 11.1428C128.934 11.1428 128.505 11.5714 128.505 12.2143C128.505 12.2143 128.505 12.2143 128.505 12.4286C128.505 12.2143 128.505 12 128.505 12C128.505 11.1428 128.934 10.7143 129.362 10.7143C130.005 10.7143 130.433 11.3571 130.433 12C130.433 12.2143 130.219 12.4286 130.219 12.6428ZM129.79 13.9286C129.576 14.1428 129.362 14.1428 129.148 14.3571C128.72 14.5714 127.863 15.2143 127.649 15.2143C127.434 15.2143 127.434 15.2143 127.22 15C127.22 15 127.006 15 127.006 14.7857C126.578 14.5714 126.364 14.1428 126.364 14.1428C126.578 14.1428 126.792 13.7143 127.006 13.7143C127.434 13.2857 127.649 13.0714 127.863 13.0714C128.077 13.0714 128.505 13.2857 128.934 13.5C129.148 13.5 129.148 13.7143 129.362 13.7143C129.576 13.7143 129.79 13.9286 129.79 13.9286ZM132.789 29.1428C133.003 28.2857 133.217 27.2143 133.217 26.5714C133.217 26.3571 133.217 26.3571 133.217 26.1428C133.217 25.9286 133.217 25.5 133.217 25.2857C133.217 25.7143 133.217 26.3571 133.86 26.7857C134.074 26.7857 134.288 27 134.502 27C135.145 27 135.787 26.7857 136.002 26.3571C136.216 26.1428 136.216 25.9286 136.43 25.9286V26.1428C136.43 26.7857 136.644 27.4286 137.287 27.6428C137.501 27.6428 137.929 28.0714 137.929 28.0714C137.715 28.2857 137.287 28.5 136.858 28.7143C136.216 29.1428 135.359 29.5714 134.931 30C134.502 30.6428 133.86 30.8571 133.431 30.8571C133.431 30.8571 133.431 30.8571 133.217 30.8571C132.789 30.6428 132.575 30 132.789 29.1428ZM119.296 27C119.296 26.7857 119.296 26.5714 119.296 26.5714C119.296 26.5714 119.938 26.3571 120.152 26.3571C120.367 26.3571 120.795 26.1428 121.009 26.1428C121.223 25.9286 121.438 25.7143 121.652 25.2857C121.652 25.0714 121.866 24.8571 122.08 24.8571C122.294 24.8571 122.723 25.2857 123.151 25.7143C123.151 25.9286 123.365 26.1428 123.579 26.3571C124.008 27.2143 124.65 28.0714 125.079 28.5C125.293 28.7143 125.935 29.3571 125.721 30C125.721 30.4286 125.079 30.6428 125.079 30.8571C125.079 30.8571 125.079 30.8571 124.864 30.8571C124.222 30.8571 122.937 30.4286 122.294 30C121.866 29.7857 121.223 29.7857 120.795 29.5714C120.367 29.5714 119.724 29.3571 119.51 29.3571C119.51 29.3571 119.51 28.9286 119.51 28.7143C119.51 28.5 119.724 28.2857 119.724 28.0714C119.296 27.6428 119.296 27.2143 119.296 27Z" fill="#00FFC3"/>
<path fill-rule="evenodd" clip-rule="evenodd" d="M69.6071 39C58.8983 34.2857 53.7581 29.5714 53.7581 24.8571V7.07143C53.7581 5.35714 54.6148 5.35714 57.399 3.42857C57.399 3.42857 63.396 0 69.6071 0C74.9614 0 79.245 1.71429 82.0292 3.64286C84.8135 5.57143 85.6702 5.35714 85.6702 7.28571C85.6702 7.71429 85.6702 22.2857 85.6702 25.0714C85.4561 29.5714 80.1017 34.2857 69.6071 39ZM81.8151 24.8571C81.8151 24.4286 81.8151 23.7857 81.8151 22.7143C81.8151 22.0714 81.8151 21.2143 81.8151 19.2857C81.8151 18.2143 81.8151 17.1429 81.8151 16.2857C81.8151 12.4286 81.8151 9 81.8151 7.92857C81.3867 7.28571 80.3158 6.85714 79.8875 6.42857C77.3174 4.71429 73.4622 3.42857 69.3929 3.42857C65.5377 3.42857 60.6117 5.35714 58.8983 6.42857C58.4699 6.64286 57.6132 7.28571 56.9707 7.71429V24.8571C56.9707 27.4286 60.8259 31.0714 69.3929 35.1429C77.9599 31.0714 81.8151 27.4286 81.8151 24.8571Z" fill="#00FFC3"/>
<path d="M100.234 18.8572H81.8151V20.1429H100.234V18.8572Z" fill="#00FFC3"/>
<path d="M101.519 21.6429C102.702 21.6429 103.661 20.6835 103.661 19.5C103.661 18.3166 102.702 17.3572 101.519 17.3572C100.336 17.3572 99.3776 18.3166 99.3776 19.5C99.3776 20.6835 100.336 21.6429 101.519 21.6429Z" fill="#00FFC3"/>
<path d="M38.8427 20.0994L57.2618 20.0994L57.2618 18.8137L38.8427 18.8137L38.8427 20.0994Z" fill="#00FFC3"/>
<path d="M37.4807 21.6429C38.6636 21.6429 39.6225 20.6835 39.6225 19.5C39.6225 18.3166 38.6636 17.3572 37.4807 17.3572C36.2979 17.3572 35.339 18.3166 35.339 19.5C35.339 20.6835 36.2979 21.6429 37.4807 21.6429Z" fill="#00FFC3"/>
</svg>
